<?xml version="1.0" encoding="utf-8"?>
<!-- Generator: Adobe Illustrator 21.1.0, SVG Export Plug-In . SVG Version: 6.00 Build 0)  -->
<svg version="1.1" id="Layer_1" xmlns="http://www.w3.org/2000/svg" xmlns:xlink="http://www.w3.org/1999/xlink" x="0px" y="0px"
	 viewBox="0 0 33 33" style="enable-background:new 0 0 33 33;" xml:space="preserve">
<style type="text/css">
	.st0{fill:#E73527;}
</style>
<title>facebook</title>
<path class="st0" d="M26.1,0H6.9C3.1,0,0,3.1,0,6.9v19.3C0,29.9,3.1,33,6.9,33h19.3c3.8,0,6.9-3.1,6.9-6.9V6.9C33,3.1,29.9,0,26.1,0
	z M22,9.6h-2.6c-0.8,0-1.5,0.3-1.5,1.2v1.5H22l-0.3,4.1h-3.8v11h-4.1v-11H11v-4.1h2.8V9.7c0-2.8,1.5-4.2,4.8-4.2H22V9.6z"/>
</svg>
