<svg id="Layer_1" data-name="Layer 1" xmlns="http://www.w3.org/2000/svg" viewBox="0 0 348.05 69.94"><defs><style>.cls-1{fill:#e73527;}</style></defs><title>favor_logo</title><path class="cls-1" d="M145.5,23.88c.39.44,1,1.12,1.63,2,3.87,5.24,4.79,10.74,5.75,15.38C157,61.4,152,80.12,152,80.13a82.51,82.51,0,0,1-4.08,11.64L146,93l-3.49-.24-1.32-.5L137.62,92l-3.13-.87-3.74-.91L127,88.72l-1.23-.29-3.69-1-1-.24-.9-.51-.66-.35-4.3-1.06-1.93-1-2.53-1.08-2.14-1.33-1.33-.64-.91-.68-1.55-.87-2-1.67-3.21-.19-1.16.45-2.32.9-.91.13-2.18.78-.79.11-9.11-.06-3.29-1-3.55-1.33-1.12-.55c-3.46,1.45-7.57,3.15-12.19,5.05C51.69,86.9,48.91,87.95,45.63,89a123.42,123.42,0,0,1-12.87,3.38l-2.87-.12-.75-1.12a101.31,101.31,0,0,1-7-32.07l.14-15.71A40.22,40.22,0,0,1,27.1,26.27l.22-.28,3.3-1.81,5.75.93a91.52,91.52,0,0,1,34.7,12.76l3.35,2.76,1.71.65,5.18-.94.58-.06,13.55,0,.91.47.11.2,5,0,2.34-1.79,2.53-2,3.17-2.23,4.39-2.37a81.1,81.1,0,0,1,29.86-8.76ZM32.34,32.4a122.79,122.79,0,0,0,1.34,51.41,73.74,73.74,0,0,0,23.45-6.94c3.19-1.6,8.85-4.43,12.75-8.75l4.33-4.89-15.83.26a3.76,3.76,0,0,1,0-7.32l15.48-.1a28.81,28.81,0,0,0-3.71-7.71c-3.95-5.79-9-8.52-12.5-10.37A51.47,51.47,0,0,0,32.34,32.4Zm69.93,22.78,17.35.07a3.38,3.38,0,1,1,.13,6.75l-17.51.3A42.88,42.88,0,0,0,110.88,73C123.08,83.9,138,84.38,143,84.32a90.43,90.43,0,0,0-.89-52c-4.15-.12-19.58-.08-31.49,11.26A39.48,39.48,0,0,0,102.27,55.18Z" transform="translate(-22.15 -23.32)"/><path class="cls-1" d="M348.19,92.32l-10.61-.07-.33-65.41V24.27h22.84a7.56,7.56,0,0,1,5.33,2.56,6.36,6.36,0,0,1,1,1.79l1,2,1,2.64.88,9,0,5.27-.63,3.11-.91,3.47-.79,1.4L364.57,58l0,2.53L368,64.21l.22.52.85,1.72.14,1,.14,17.15.12,4.19.74,3.12s-7.76.13-11.11,0L358.43,72a7.3,7.3,0,0,0-1.59-5.22,7.09,7.09,0,0,0-3.43-2.23l-5.64,0Zm10.08-40.17L358.33,38a3.66,3.66,0,0,0-2.5-3.58l-7.55-.21v21l4.86,0a6.78,6.78,0,0,0,4.27-1.87A5.9,5.9,0,0,0,358.27,52.15Z" transform="translate(-22.15 -23.32)"/><path class="cls-1" d="M309.92,23.5l7.47-.18a14.53,14.53,0,0,1,10,5.51,14.11,14.11,0,0,1,2.76,8.52c0,.27,0,41.73,0,41.73a13.49,13.49,0,0,1-3.63,10.34,13,13,0,0,1-7.66,3.7l-9.7.15a13.32,13.32,0,0,1-7.39-3.1C297,86,297.25,79.74,297.29,78.93l0-40.44a14.17,14.17,0,0,1,12.6-15Zm-1.69,34.56h0V78.58c-.16,2.59,1,4.82,2.86,5.59a4.3,4.3,0,0,0,2.58.17,4.73,4.73,0,0,0,4.5-1.5,4.89,4.89,0,0,0,1-4l0-40.19a5.76,5.76,0,0,0-5.39-5.55,5.27,5.27,0,0,0-3.72,1.19,5.44,5.44,0,0,0-1.78,4.39Z" transform="translate(-22.15 -23.32)"/><path class="cls-1" d="M245.26,92.32l-1-11.92H230.46l-2.11,11.74-.5.19h-8.63l10-68h15.69l11.22,67.62-.61.4-10.29,0ZM231.08,71.07h11.2l-5.57-33.7-5.64,33.7Z" transform="translate(-22.15 -23.32)"/><path class="cls-1" d="M256.28,24.28H267l7.33,52.19,2.11,0,6.85-52.21h10s-9.89,66.49-10.14,68.13l-3,.08H267.7L256.23,25.13Z" transform="translate(-22.15 -23.32)"/><path class="cls-1" d="M213.28,54.23c0,3.29,0,6.36,0,9.43,0,.83-.6.69-1.1.69H199.3v28c-3.05,0-5.92,0-8.79,0a11.89,11.89,0,0,0-2,.4,10.82,10.82,0,0,1-.23-1.7q0-32.81,0-65.61V24.29h28.91v9.95H199.37v20Z" transform="translate(-22.15 -23.32)"/></svg>