<svg id="Layer_1" data-name="Layer 1" xmlns="http://www.w3.org/2000/svg" viewBox="0 0 198.12 41.56"><defs><style>.cls-1{fill:#e73527;}</style></defs><title>grubhub_logo</title><path class="cls-1" d="M175,40.61V.78a61.23,61.23,0,0,1,16.4.67,11.16,11.16,0,0,1,3.67,3.08c3.45,4.54,2.52,10.93,1,12.33-.67.62-1.11,1.46-1.75,2.12a1.19,1.19,0,0,0-.42.83,1.21,1.21,0,0,0,.61.94A5.38,5.38,0,0,1,196,22.81,32.44,32.44,0,0,1,197.8,27c.81,3.13.25,9-3.55,11.79-1.88,1.4-4,1.53-8.23,1.8-.9.06-1.25,0-9.72,0Zm7-12.07c0,1,0,2.07,0,3.11a1.9,1.9,0,0,0,1.79,1.9c1.52-.15,3.09.51,4.59-.77.9-.77,1.7-1.35,1.75-2.56a28.22,28.22,0,0,0,0-3,4.2,4.2,0,0,0-3.7-3.62c-.72,0-1.44,0-2.15,0A2,2,0,0,0,182,25.91Q182,27.23,182,28.54Zm.42-11.26a14,14,0,0,0,5.58-.67,3.55,3.55,0,0,0,1.75-1.08,4.07,4.07,0,0,0,.67-2.92,5.44,5.44,0,0,0-.75-2.42c-1.15-1.8-4.22-2.55-7.5-1.58a33.58,33.58,0,0,0,.25,8.67Z"/><path class="cls-1" d="M43.09,40.61c-.05-1-2.83-11-3.13-12.74s-1.61-2.83-3.4-2.29c-.3.09-.6.76-.61,1.16,0,4.28,0,8.56,0,12.84,0,.27,0,.54,0,1-2.48,0-4.86,0-7.25,0-.2,0-.54-.52-.54-.8q0-19.07,0-38.15c0-.2,0-.39.05-.7.3-.06.73-.15,1.25-.24A33.63,33.63,0,0,1,37.34.2a32.24,32.24,0,0,1,4.24.57A15.4,15.4,0,0,1,47.34,4.2a12.37,12.37,0,0,1,3.33,4.68c1.5,3.94.68,8.28-.91,10.24-.9,1.11-1.6,2.37-2.6,3.39a2.92,2.92,0,0,0-.84,1.43,2.67,2.67,0,0,0,.09,1.42,4.58,4.58,0,0,0,.53.88c.22,1,3.31,12.1,4,13.45.09.17-.3.88-.48.89C48.06,40.63,45.63,40.61,43.09,40.61Zm-7.16-27.7h0v4.4a7.82,7.82,0,0,0,5.5-.37c.8-.39,2.42-1.19,2.81-2.81.35-1.45-.48-2.77-1.12-3.79a5.1,5.1,0,0,0-1.69-1.77,5,5,0,0,0-1.69-.63,7.29,7.29,0,0,0-3.56.19,16.78,16.78,0,0,0-.26,4.79Z"/><path class="cls-1" d="M86.92,20.66c0-6.27,0-12.55,0-18.82a1.33,1.33,0,0,1,.24-1,1.23,1.23,0,0,1,1-.24c1,.09,4.81.08,10.19,0a9.89,9.89,0,0,1,8.78,5.18,11.74,11.74,0,0,1,1.41,7.87A13.12,13.12,0,0,1,107.42,17a11.19,11.19,0,0,0-.8,1.58c-.28.75-1,2.15-.21,2.85a4.68,4.68,0,0,1,.73.79,10.7,10.7,0,0,1,1.72,2.49c.94,1.76,1.41,7.1-1.66,11.52-.65.93-2.47,3.56-5.49,4.18a3.74,3.74,0,0,1-1.18.13c-4.24,0-8.47,0-12.71,0a1,1,0,0,1-.71-.2,1.07,1.07,0,0,1-.21-.82C87,38.8,87,31.24,86.92,20.66Zm7,7.95,0,5.1c.69-.07,1.24-.09,1.58-.1,2-.05,3.22.12,4.51-.48l.16-.09a4.86,4.86,0,0,0,1.7-1.8,5.27,5.27,0,0,0-.72-5.9,7.44,7.44,0,0,0-3-1.67,12.21,12.21,0,0,0-2.73-.07c-.34,0-.84,0-1.45,0ZM94,16.7a10.13,10.13,0,0,0,5.75-.83,4.66,4.66,0,0,0,1.31-1.2,4,4,0,0,0,.57-1.33,4.09,4.09,0,0,0-.21-3,3.69,3.69,0,0,0-1.19-1.32,3.93,3.93,0,0,0-1.88-.63,29.15,29.15,0,0,0-4.26-.13C94.14,9.6,94.09,15.35,94,16.7Z"/><path class="cls-1" d="M145.16.64c1.42,0,2.84,0,4.25,0,1.11,0,2.61-.3,3.22.28s.25,2.08.26,3.18q0,12.12,0,24.23c0,1.07-.21,3.44,1.26,4.65a3.73,3.73,0,0,0,4.85-.33A4.09,4.09,0,0,0,160.06,30c.18-4,.09-7.91.1-11.87,0-5.48,0-11,0-16.43,0-.32.35-.92.55-.92,2.38-.06,4.76,0,7.24,0,0,.47,0,1.18,0,2.06,0,8.34-.2,10.78-.2,16.35,0,7,.31,6.13.08,8.5-.49,5.11-.84,8.81-3.75,11.33-3.48,3-8.47,2.49-9.31,2.41a9.83,9.83,0,0,1-6.6-3.32,10.81,10.81,0,0,1-2.33-4.42c-.28-1-.33-1.64-.44-5.25-.12-4-.14-5.58-.14-5.58-.08-5.53-.15-4.62-.12-7.23C145.18,12,145.19,7.28,145.16.64Z"/><path class="cls-1" d="M122.9,40.61c-2.18,0-4.26,0-6.33,0-.23,0-.6-.46-.64-.74a15.11,15.11,0,0,1,0-2q0-18,0-36c0-1,.28-1.25,1.23-1.2,1.64.07,3.28,0,4.91,0,.72,0,1,.24,1,1,0,4.56,0,9.11-.06,13.67,0,1,.27,1.43,1.35,1.38,1.84-.08,3.68-.06,5.52,0,.94,0,1.24-.33,1.23-1.26,0-4.52,0-9,0-13.55,0-1,.27-1.24,1.21-1.21,1.87.06,3.75,0,5.73,0v39.9H131c0-.9,0-1.77,0-2.63,0-4,0-8,0-12,0-1.2-.43-1.55-1.51-1.53-1.72,0-3.44,0-5.16,0-1,0-1.47.33-1.45,1.46.07,4.68,0,9.35.06,14A7.4,7.4,0,0,1,122.9,40.61Z"/><path class="cls-1" d="M11.17,26.53V21.46a7.23,7.23,0,0,1,0-1.31c.07-.36-.11-.23.19-.38a2,2,0,0,1,.57,0h9.42c.59,0,.59,0,.59.57,0,.9,0,1.81,0,2.71,0,1.78-.07,3.56,0,5.34a16.14,16.14,0,0,1-.34,4.83A8.57,8.57,0,0,1,20,37a13.5,13.5,0,0,0-1.23,1.27A16.71,16.71,0,0,1,16.26,40,19.7,19.7,0,0,1,13,41.25a17.75,17.75,0,0,1-2.27.29,12.11,12.11,0,0,1-3.2-.23,9.86,9.86,0,0,1-2.69-.94,9.83,9.83,0,0,1-4.58-6,7.36,7.36,0,0,1-.23-1.63q0-5.48-.06-11C0,18.19,0,14.6,0,11a20.14,20.14,0,0,1,0-2.51A8.25,8.25,0,0,1,.45,6.25,6.69,6.69,0,0,1,1.77,4.1,10.35,10.35,0,0,1,4.88,1.56,11.63,11.63,0,0,1,8.29.47,9.16,9.16,0,0,1,12.41.13C13.22.3,15.55.6,16,1a7,7,0,0,0,1.4.72,2.92,2.92,0,0,1,1.39,1.17C19.58,4,20.72,5.18,21,6.5a29.2,29.2,0,0,1,1,4.86c0,.56.18,1.57-.2,2-.11.13-6.29.66-6.61.31s-.15-.5-.18-1.07a5.45,5.45,0,0,0-.48-2.27,4.79,4.79,0,0,0-2.4-2.65,3.78,3.78,0,0,0-3.19-.08A3.68,3.68,0,0,0,7.24,9.7,6,6,0,0,0,7,12.19q0,2.65,0,5.3c0,3.6,0,7.2,0,10.8a15.69,15.69,0,0,0,0,2.49,4.06,4.06,0,0,0,1.1,1.8,3.41,3.41,0,0,0,3.28,1.11,4.27,4.27,0,0,0,1.6-.35A3.56,3.56,0,0,0,14.5,32c.16-.26,1.41-2.36.21-4.09A3.52,3.52,0,0,0,11.17,26.53Z"/><path class="cls-1" d="M72.11.7h6.94c0,.71,0,1.34,0,2,0,9.84,0,19.68-.06,29.52a5.93,5.93,0,0,1-.2,2.11,6.86,6.86,0,0,1-.71,1.48,11.34,11.34,0,0,1-1.38,2,10.51,10.51,0,0,1-2.39,2A11.11,11.11,0,0,1,72.09,41a10.22,10.22,0,0,1-4.65.47,10.91,10.91,0,0,1-4.18-.95,9.92,9.92,0,0,1-4.07-3,10,10,0,0,1-1.6-3.56A17.11,17.11,0,0,1,57,28.93c0-3.27,0-4.91.06-7.39,0-6.74,0-13.47,0-20.21a4.79,4.79,0,0,1,.13-.71c2.13,0,4.24,0,6.35,0,.22,0,.59.66.6,1,0,5.6,0,11.2,0,16.8,0,3.52-.07,7,0,10.56a6.31,6.31,0,0,0,2.16,4.37c.41.38,1.38.21,2.09.19A2.79,2.79,0,0,0,70.28,33c1.61-1.25,1.79-2.73,1.78-4.52,0-8.92,0-17.84,0-26.76C72,1.39,72.08,1.08,72.11.7Z"/></svg>