<?xml version="1.0" encoding="utf-8"?>
<!-- Generator: Adobe Illustrator 21.1.0, SVG Export Plug-In . SVG Version: 6.00 Build 0)  -->
<svg version="1.1" id="Layer_1" xmlns="http://www.w3.org/2000/svg" xmlns:xlink="http://www.w3.org/1999/xlink" x="0px" y="0px"
	 viewBox="0 0 33 33" style="enable-background:new 0 0 33 33;" xml:space="preserve">
<style type="text/css">
	.st0{fill:#E73527;}
</style>
<path class="st0" d="M16.5,23.1c3.6,0,6.5-2.9,6.5-6.5c0-1.9-0.8-3.7-2.2-4.8c-0.4-0.4-1-0.8-1.6-1c-0.8-0.4-1.6-0.6-2.6-0.6
	s-1.9,0.1-2.8,0.4c-0.5,0.3-1.1,0.7-1.5,1.1c-1.4,1.2-2.2,2.9-2.2,4.8C10,20.2,12.9,23.1,16.5,23.1z M16.5,11.8
	c2.6,0,4.8,2.2,4.8,4.8s-2.2,4.8-4.8,4.8s-4.8-2.2-4.8-4.8S13.9,11.8,16.5,11.8z M23.7,12.4H33v14.2c0,3.6-2.9,6.5-6.5,6.5H6.6
	C3,33,0,30.1,0,26.5V12.4h9.2C8.5,13.6,8,15.1,8,16.6c0,4.7,3.7,8.4,8.4,8.4s8.4-3.7,8.4-8.4C24.9,15.1,24.5,13.6,23.7,12.4z
	 M26.5,0H9.6v6.9H8.3V0H6.9v6.9H5.5V0.1c-0.4,0-1,0.1-1.4,0.3v6.5H2.8V1.2C1.1,2.5,0,4.3,0,6.5V11h10.3c1.6-1.8,3.9-2.8,6.2-2.8
	s4.7,1,6.2,2.8H33V6.5C33,2.9,30.1,0,26.5,0z M30.3,7.3c0,0.5-0.4,1-1,1h-3.4c-0.7,0-1.1-0.4-1.1-1V3.7c0-0.6,0.4-1,1-1h3.4
	c0.7,0,1.1,0.4,1.1,1V7.3z"/>
</svg>
