<svg id="Layer_1" data-name="Layer 1" xmlns="http://www.w3.org/2000/svg" viewBox="0 0 2923 1008"><defs><style>.cls-1{fill:#e73527;}.cls-2{fill:#fefefe;}</style></defs><title>prime_now_logo</title><path d="M2924,162q-12.43,38.06-24.86,76.13-33.53,102.81-67.06,205.62c-.72,2.21-1.48,4.41-2.35,6.56-3,7.39-8.6,11.46-16.53,11.53-19.83.17-39.66.33-59.48,0-10.51-.2-15.74-5.35-18.61-16.82-5.73-22.9-11.33-45.82-17-68.74Q2702,310.85,2686,245.47c-.28-1.14-.41-2.29-1.61-3.16L2651,376.37q-8.56,34.36-17.14,68.71c-3.1,12.32-9,16.87-21.71,16.91-17.33.06-34.66,0-52,0-13.42,0-18.6-3.67-22.75-16.44-9.65-29.7-19.16-59.44-28.78-89.15q-30-92.7-60.06-185.39a59.16,59.16,0,0,1-3-12.6c-.76-7.92,2.62-11.94,10.67-12.33,5.32-.26,10.66-.09,16-.09q23.5,0,47,0c13.09,0,18.12,3.88,21.07,16.49q23.88,102,47.68,204c.41,1.77.87,3.54,1.64,6.64,3-11.66,5.66-22.08,8.28-32.52Q2620,252.31,2642.09,164c3.41-13.61,9-18,22.9-18q21.75,0,43.49,0c14.58,0,19.81,4.27,23.46,18.55q26,101.7,52,203.38c.4,1.56.91,3.09,1.67,5.63,5.6-25.69,11-50.38,16.36-75.06q15-68.45,30-136.9c2.43-11.06,7.9-15.51,19.28-15.58,20.16-.11,40.33,0,60.49,0,5.09,0,9.47,1.37,12.27,6Z" transform="translate(-1 -1)"/><path d="M2427.88,304.16c-.32,29.16-3.93,58.1-16.49,85.19-20.34,43.84-54.86,69.75-102.08,78.48-31.68,5.86-63.39,5.13-94.36-4.49-43.88-13.63-73.82-42.77-88.46-85.9-17-50.05-17.23-101,1.45-150.7,18.28-48.6,54.64-77.2,105.53-86.59,33.55-6.19,67.12-5.25,99.52,6.33,47.16,16.86,75.09,51.42,87.92,99C2426.06,264.56,2427.69,284.11,2427.88,304.16Zm-221.42.79c.27,19.54,1.7,39.9,9.49,59.25,9.72,24.15,28.19,37.24,53,37.63,27.67.44,46.26-11.28,57-36.19,7.17-16.63,9.31-34.3,9.89-52.17.73-22.38-.3-44.61-7.8-66-12-34.43-39-45.21-69.93-40-22.22,3.72-35.52,18.21-43.13,38.6C2208,264.7,2206.65,284.24,2206.46,305Z" transform="translate(-1 -1)"/><path d="M1848,179.78c12.59-9.55,25.23-17.82,38.9-24.37,32.94-15.79,67.41-22.47,103.76-16.5,37.21,6.12,62.4,33.3,66.41,70.87a210.92,210.92,0,0,1,1.11,22.44q0,105.48,0,211c0,15.62-3.17,18.83-18.6,18.83q-27.74,0-55.49,0c-12,0-16.25-4.28-16.25-16.23q0-94.73,0-189.46a84.44,84.44,0,0,0-2.25-20.79c-4.27-16.86-15.26-26.5-32.51-28.54-24.57-2.92-47,3.84-68.64,14.81-6.8,3.44-9.17,7.41-9.12,15.23.38,68.48.22,137,.22,205.46,0,16.47-3.06,19.54-19.47,19.54q-27.24,0-54.49,0c-12.3,0-16.56-4.29-16.56-16.51q0-141.72,0-283.44c0-11.81,4.09-16,15.86-16q21.75-.08,43.49,0c10.52,0,15.48,3.91,18.28,14.1C1844.38,166.49,1846.11,172.87,1848,179.78Z" transform="translate(-1 -1)"/><path class="cls-1" d="M1417,1009c-38.77-1.13-77.45-3.45-116-7.79A1236.13,1236.13,0,0,1,1108.62,964a1204.22,1204.22,0,0,1-220.26-85A1205.48,1205.48,0,0,1,647.92,719.56c-9-7.67-17.83-15.54-26.74-23.31a24.19,24.19,0,0,1-6.39-8.21c-2.28-5-2.47-10,.81-14.71,3.41-4.85,8.36-6.32,14-5.77a26.5,26.5,0,0,1,10.72,3.86C765,743.74,897.51,797,1036.73,833.81a1657.7,1657.7,0,0,0,197.1,39.4q77.48,10.69,155.59,14.24c35.63,1.64,71.27,2.19,106.91,1.29a1598.29,1598.29,0,0,0,178.07-14.5c142.65-19.67,280.47-56.91,413.23-112.74,7.92-3.33,15.87-4.91,24.3-2.5,16.79,4.81,22.78,22.34,12.51,36.46a44.47,44.47,0,0,1-10.19,9.5A884.28,884.28,0,0,1,1996.91,877c-102,52.33-209.76,87.43-322.09,109.19a1248.19,1248.19,0,0,1-167.8,21.1c-6,.33-12.18-.57-18,1.69Z" transform="translate(-1 -1)"/><path class="cls-1" d="M2111.76,699.57c-35.71.31-69.19,3.24-102.61,7-9.59,1.08-19.17,2.26-28.77,3.31-3.14.35-6.31.58-9.41-.39-5.83-1.82-8.12-6.19-6.34-12s6.18-9.74,11-13.09c28.06-19.33,59.18-31.54,92.15-39.32,45.17-10.66,90.89-12.81,136.93-7.82,17.87,1.94,35.45,5.43,52.35,12,11.46,4.49,16.66,12.7,18,24.54,2.3,20.27.21,40.28-3.34,60.12-9,50.43-26.22,97.87-53.62,141.37-13.48,21.39-29.34,40.81-48.48,57.44-4.29,3.72-8.67,7.25-14.43,8.56-8.77,2-14.62-3.43-12.81-12.24a54,54,0,0,1,3.07-9c16-40,31.58-80.14,42.83-121.8,5.08-18.82,9.36-37.8,9.49-57.43a71,71,0,0,0-1-11.42c-1.68-10.73-8.17-17.48-18.07-21.38-10.32-4.06-21.14-5.82-32.08-7C2134.37,699.74,2122,699.67,2111.76,699.57Z" transform="translate(-1 -1)"/><path class="cls-1" d="M1,154c3.93-6.55,10-8.18,17.22-8.07,14,.23,28,0,42,.08,10.51,0,15.51,3.9,18.31,14.06,1.32,4.8,2.59,9.61,4.05,15.08,3.44-2.82,6.45-5.59,9.75-8,43.17-31.07,89.92-40.2,140-20.16,32.35,12.93,52,39,64.61,70.61,12.46,31.21,15.1,63.93,13.43,97.15-1.4,27.7-7,54.43-19.35,79.45-17.16,34.71-42.34,61-80.88,70.42-42,10.26-81.24,2.58-116.23-23.73-.64-.48-1.31-.94-2.78-2,0,2.43,0,4.15,0,5.88q0,64.24,0,128.49c0,12.37-3.35,15.81-15.63,15.84-19.33,0-38.66-.14-58,.09-7.14.08-13-1.58-16.53-8.23ZM91.16,303c0,25.5.07,51-.08,76.49,0,3.29,1,5,3.85,6.61a114.17,114.17,0,0,0,59.93,14.47c29.71-.86,48.45-15.3,57.43-43.69,4.46-14.09,6.18-28.63,6.61-43.29.65-22.37-.07-44.66-6.94-66.25-7.63-24-23.29-38.66-48.89-41.55-24.11-2.72-46.6,2.48-67.92,13.72-3.13,1.65-4.08,3.58-4.06,7C91.22,252,91.16,277.45,91.16,303Z" transform="translate(-1 -1)"/><path class="cls-1" d="M668,1c4.79,1.81,10,2.34,14.68,4.45,19.61,8.75,30,28.1,26.9,50.34-3.36,24.19-20,39.48-44.53,41.37-8.73.67-17.32.38-25.71-2.11-18.25-5.43-29.52-17.28-32.87-36.29-4.57-25.92,8.38-48.28,32.09-55.38,2.8-.84,5.87-.72,8.43-2.39Z" transform="translate(-1 -1)"/><path class="cls-1" d="M776.58,303.86q0-69.5,0-139c0-15.74,3.17-18.86,19.1-18.86,13.33,0,26.67,0,40,0,10.69,0,15.46,3.66,18.44,13.86q1.54,5.26,3.12,10.52c1.73,5.74,1.72,5.72,6.65,2.6,18.19-11.5,36.87-22,57.58-28.37C950,135.91,978.91,133.22,1008,142a71,71,0,0,1,40.43,30.81c1.74,2.74,2.9,3,5.61,1.21,22.15-14.42,45.43-26.43,71.42-32.4,22.47-5.16,45.13-6.88,67.87-2.34,35.21,7,58.94,33.13,63.69,69.29a140.58,140.58,0,0,1,1.16,18.43q0,108.25,0,216.49c0,1.33,0,2.67,0,4-.13,10.06-4.23,14.39-14.28,14.47-17,.14-34,0-51,0-3.67,0-7.34.11-11,0-9-.35-13.4-4.67-13.91-13.6-.11-1.83-.12-3.66-.12-5.49q0-98.25,0-196.49c0-9.08-1.49-17.94-6.54-25.78-6.95-10.8-17.69-14.23-29.67-14.38-23-.29-44.78,5.37-65.75,14.63-3.2,1.42-2.84,3.57-2.84,6q0,56.25,0,112.49,0,53,0,106c0,12.69-4,16.64-16.82,16.64q-28.25,0-56.5,0c-13,0-17.1-4.11-17.1-17q0-97.75,0-195.49a71.27,71.27,0,0,0-1.31-14.89c-4-18.63-15.17-28.13-34.34-28.41-23.55-.35-45.82,5.18-67.06,15.27-2.77,1.32-2.88,3.11-2.88,5.53q.05,40.75,0,81.5,0,68.5,0,137c0,12.5-3.94,16.48-16.41,16.5q-28.5,0-57,0c-12.82,0-17-4.14-17-17.15Q776.53,374.35,776.58,303.86Z" transform="translate(-1 -1)"/><path class="cls-1" d="M1386.83,326.23c3,24.22,8.13,46.38,28.41,61.39,12.56,9.29,27.26,12.78,42.49,14.4,33,3.52,65-2.11,96.72-10.5a47.59,47.59,0,0,1,5.83-1.35q9.79-1.31,12.05,8.33a24.63,24.63,0,0,1,.64,5.43c.06,10,.1,20,0,30-.1,11.92-2.86,15.89-14.07,20.16-33.26,12.66-67.73,18-103.25,17-25.37-.71-50-4.82-73.12-15.76-35.35-16.74-58.52-44.43-69.06-81.66-14.27-50.4-13.73-101,6.68-149.72,20.74-49.54,59.4-77.25,112.29-84.93,29.15-4.23,58.24-3.74,86.36,6.12,33.31,11.68,56.34,33.64,64.47,68.92,4.69,20.37,4.19,40.77-3.77,60.37-10.15,25-30.26,38.92-54.75,47.56-22.07,7.79-45,10.21-68.23,10.8S1410.28,331.91,1386.83,326.23ZM1442.34,277a132.41,132.41,0,0,0,19.5-1.07c2.31-.3,4.61-.63,6.9-1,20.28-3.69,31.45-13.39,33.64-30.83,2.45-19.49-4.16-37.1-27.34-42.7a72,72,0,0,0-12.34-1.74c-29.18-1.83-53.28,8.75-65.92,38.71-4,9.57-6.33,19.56-8.12,29.76-.63,3.58.61,4.32,3.52,4.8A306.3,306.3,0,0,0,1442.34,277Z" transform="translate(-1 -1)"/><path class="cls-1" d="M454.83,192c4.89-5,9.75-10.47,15-15.44,16.91-15.89,35.92-28,59.26-32.13,10.09-1.79,20.24-1.79,30.38-1.3,8,.38,12.08,4.36,12.22,12.35q.51,28.73,0,57.48c-.16,8.87-4.72,12.74-13.8,13-10.33.26-20.58-1.5-30.93-1.15a214.53,214.53,0,0,0-64,12.29c-3.5,1.22-4.29,3.14-4.29,6.6q.14,100.23.06,200.46a40.81,40.81,0,0,1-.24,6c-1.2,8-4.76,11.64-12.92,11.73q-32,.34-64,0c-8.17-.09-12-4-13.24-12.12a40.49,40.49,0,0,1-.28-6q0-140,0-280a39.8,39.8,0,0,1,.33-6c1.23-8.08,4.65-11.56,12.91-11.7q24.49-.44,49,0c8.35.14,13.27,4.84,15.48,13.7,2.41,9.68,4.69,19.4,7,29.1C453.14,189.89,453,191,454.83,192Z" transform="translate(-1 -1)"/><path class="cls-1" d="M703,303.94q0,71,0,141.92C703,458,699,462,686.76,462q-27.73,0-55.47,0c-15.17,0-18.71-3.58-18.71-19q0-60,0-119.93,0-79,0-157.91c0-16.16,3-19.2,19.25-19.2q27.23,0,54.47,0c13.12,0,16.7,3.57,16.7,16.52Q703,233.23,703,303.94Z" transform="translate(-1 -1)"/><path class="cls-2" d="M91.16,303c0-25.5.06-51-.07-76.49,0-3.42.93-5.35,4.06-7C116.47,208.21,139,203,163.07,205.74c25.61,2.89,41.26,17.56,48.89,41.55,6.87,21.59,7.59,43.88,6.94,66.25-.43,14.67-2.15,29.2-6.61,43.29-9,28.39-27.72,42.83-57.43,43.69a114.17,114.17,0,0,1-59.93-14.47c-2.86-1.59-3.87-3.32-3.85-6.61C91.22,353.95,91.16,328.45,91.16,303Z" transform="translate(-1 -1)"/><path class="cls-2" d="M2206.46,305c.19-20.71,1.54-40.25,8.53-58.95,7.62-20.39,20.92-34.88,43.13-38.6,30.94-5.18,57.88,5.61,69.93,40,7.5,21.43,8.53,43.66,7.8,66-.58,17.87-2.72,35.54-9.89,52.17-10.74,24.91-29.32,36.63-57,36.19-24.83-.39-43.31-13.48-53-37.63C2208.16,344.85,2206.73,324.49,2206.46,305Z" transform="translate(-1 -1)"/><path class="cls-2" d="M1442.34,277a306.3,306.3,0,0,1-50.15-4.12c-2.92-.48-4.15-1.23-3.52-4.8,1.79-10.2,4.09-20.19,8.12-29.76,12.64-30,36.74-40.54,65.92-38.71a72,72,0,0,1,12.34,1.74c23.17,5.59,29.79,23.21,27.34,42.7-2.19,17.44-13.37,27.15-33.64,30.83-2.29.42-4.6.75-6.9,1A132.41,132.41,0,0,1,1442.34,277Z" transform="translate(-1 -1)"/></svg>