<svg id="Layer_1" data-name="Layer 1" xmlns="http://www.w3.org/2000/svg" viewBox="0 0 143.73 63.7"><defs><style>.cls-1{fill:#f70303;}.cls-2{fill:#e73628;}</style></defs><title>uber_eats</title><path class="cls-1" d="M10.6,47.2" transform="translate(0.13 0)"/><path d="M35.2,6.8a3.56,3.56,0,0,1,2.4,4.1,3.62,3.62,0,0,1-3.3,3.2,11.08,11.08,0,0,1-1.9.2H24.5c-.7,0-.9-.3-.9-.9V1.2c0-.7.2-.9.9-1h7.2a9.86,9.86,0,0,1,2.4.3c2.1.5,2.8,2,2.6,3.9A2.54,2.54,0,0,1,35.2,6.8ZM26.8,12h6.1c.7-.1,1.3-.3,1.4-1.1a4.3,4.3,0,0,0,0-1.6,1.3,1.3,0,0,0-.9-1,5.16,5.16,0,0,0-1.1-.2H28.5a3.75,3.75,0,0,0-1,.1.88.88,0,0,0-.8.9C26.8,10.1,26.8,11.1,26.8,12Zm0-6h5.1a1.7,1.7,0,0,0,.7-.1,1.2,1.2,0,0,0,1.1-1.2,1.92,1.92,0,0,0-.6-2c-.2-.1-.3-.2-.5-.2a3.4,3.4,0,0,0-1-.1H26.7C26.8,3.6,26.8,4.8,26.8,6Z" transform="translate(0.13 0)"/><path d="M71.9,8.6c1,1.7,2.1,3.4,3.1,5.1.1.2.2.3.2.5a4.33,4.33,0,0,0-.5.1H72.5a.75.75,0,0,1-.7-.4c-.9-1.6-1.8-3.1-2.7-4.7-.1-.3-.3-.3-.6-.3-1,0-2,0-3,.1s-1.1.5-1.1,1.3v4H61.9c-.5,0-.5,0-.5-.5V1.3c0-.8.2-1,.9-1.1h6.8a11.76,11.76,0,0,1,2.7.3,3.49,3.49,0,0,1,3,3.6,7.49,7.49,0,0,1-.2,2.1,3.07,3.07,0,0,1-2.1,2.3A1.27,1.27,0,0,0,71.9,8.6ZM64.3,6.7H70a1.57,1.57,0,0,0,1.7-1.4,3.79,3.79,0,0,0,0-1.5,1.59,1.59,0,0,0-1.3-1.3,3.08,3.08,0,0,0-1-.1H64.2C64.3,3.8,64.3,5.2,64.3,6.7Z" transform="translate(0.13 0)"/><path d="M46.5,12.2h9.8a4.88,4.88,0,0,1-.3.7c-.2.4-.3.8-.5,1.2a.55.55,0,0,1-.6.4h-10c-1.1,0-1.3-.2-1.3-1.3V1.3c0-.9.2-1.2,1.1-1.2H56.3c0,.2-.1.3-.1.4L55.6,2a.67.67,0,0,1-.7.5H46.6V6.1h7.2c0,.2-.1.3-.1.4L53.1,8a.55.55,0,0,1-.6.4H48.1a1.27,1.27,0,0,0-.6.1c-.6.2-.9.5-.9,1.1A22.6,22.6,0,0,0,46.5,12.2Z" transform="translate(0.13 0)"/><path d="M17.6.1v9a5.11,5.11,0,0,1-4.4,5.3,12.21,12.21,0,0,1-6-.2,4.94,4.94,0,0,1-3.8-5c-.1-2.9,0-5.8,0-8.7,0-.3.1-.4.4-.4H6.5V8.7a4.1,4.1,0,0,0,.1,1.1A2.76,2.76,0,0,0,9,12.1a8.08,8.08,0,0,0,3.1,0c1.6-.3,2.4-1.4,2.5-3.2V.6c0-.5.1-.6.6-.6A17.72,17.72,0,0,0,17.6.1Z" transform="translate(0.13 0)"/><path class="cls-2" d="M84.6,12.1c3.3,0,6.6,0,9.9.1V22.5c3.9-.1,7.8-.1,11.8-.2l.3,8.1c-2.6,0-4.7-.1-6.1-.2-2.3-.1-4.1-.3-5.2.9a3.47,3.47,0,0,0-.6.9c0,6.6,0,13.1-.1,19.7a6.73,6.73,0,0,0,4.5,2.4,6.66,6.66,0,0,0,4.8-1.4l4.2,7.2a18.29,18.29,0,0,1-9.8,3.3c-1.9,0-5.8.1-9.3-2.7A13.43,13.43,0,0,1,84.4,53" transform="translate(0.13 0)"/><path class="cls-2" d="M142.1,31.9c-2.6,1-5.1,2-7.7,3-.3-.5-3.8-6.2-9.3-6-3.5.1-7.3,2.5-7.1,4.5.1,1.5,2.4,2.4,4.4,3.2,3.8,1.5,5.3.9,9.1,1.8,2.6.6,6.8,1.6,9.5,5.1a12.45,12.45,0,0,1,2.6,7.8,12.47,12.47,0,0,1-3.7,8.1c-3.7,3.7-8.6,3.9-12.7,4-3.4.1-7.8.3-12.4-2.6a18,18,0,0,1-7.4-9.2c2.6-1.4,5.1-2.8,7.7-4.1,1,1.4,5.8,7.9,12.4,7.8.2,0,5.7-.2,6.6-2.9.5-1.7-1-3.4-1.2-3.7-1.9-2.3-4.4-2.1-9.3-3.2-5.1-1.1-8.1-1.8-10.7-4-.7-.6-4.2-3.6-4.3-8.3-.1-4.9,3.7-8,4.8-9,4-3.4,8.6-3.5,10.9-3.6,1.7,0,9.4-.2,14.6,5.6A17.79,17.79,0,0,1,142.1,31.9Z" transform="translate(0.13 0)"/><path class="cls-2" d="M11.4,45.2c9.7.1,19.4.2,29.1.4.1-.8,2-12.2-6.4-19.8a20.23,20.23,0,0,0-13.9-5.1A20.88,20.88,0,0,0,4.7,28.5,22.54,22.54,0,0,0-.1,43.9,21,21,0,0,0,6.7,58.4c6,5.5,13.2,5.3,15.3,5.3a18.62,18.62,0,0,0,10.6-3,17.58,17.58,0,0,0,6.6-7.8c-2.8-1.2-5.7-2.4-8.5-3.6-.3.4-3.9,5.7-9.9,5.6-6.5-.1-10-6.5-10.3-7.5a1.93,1.93,0,0,1,0-1.5A1.29,1.29,0,0,1,11.4,45.2Zm9.5-16.6a10.15,10.15,0,0,1,9.5,9.6c-3.2-.1-6.5-.1-9.9-.1s-6.8,0-10.1.1A10.24,10.24,0,0,1,20.9,28.6Z" transform="translate(0.13 0)"/><path class="cls-2" d="M82.4,62.2a23.38,23.38,0,0,1-1.6-4.4,35.66,35.66,0,0,1-.8-4.4,209.37,209.37,0,0,1-.5-21,16.41,16.41,0,0,0-3.8-7.3c-4.2-4.3-9.9-4.5-12.8-4.6a21.43,21.43,0,0,0-11,2.4,21.12,21.12,0,0,0-8.6,8.7c2.8,1.2,5.6,2.5,8.4,3.7a10.18,10.18,0,0,1,2.4-3.4A11.17,11.17,0,0,1,61.5,29,8.6,8.6,0,0,1,67,30.4c.5.4,2.5,1.8,2.3,3.6,0,.3-.2,1.4-1.9,2.6-2.5,1.8-5.3,1.7-7.3,1.8-1.5.1-8.7.4-13.4,4.4-.8.7-4.1,3.5-4.4,7.8-.4,5.5,4.3,9.2,5.1,9.9a14.48,14.48,0,0,0,10.9,2.9,15.74,15.74,0,0,0,5.6-.9,13.55,13.55,0,0,0,4.9-2.7,8,8,0,0,0,1.3-1.4,8.47,8.47,0,0,1,1,1.7,6.8,6.8,0,0,1,.4,2.1C75.2,62.3,78.8,62.3,82.4,62.2ZM69.6,50.9a7.5,7.5,0,0,1-2.8,2.8,12.93,12.93,0,0,1-5.3,1.7c-2.7.4-5.1.7-7.1-.8a4.53,4.53,0,0,1-1.9-2.9,4.79,4.79,0,0,1,1.1-3.3c2.9-4.1,14.3-4.3,15.1-4.3.3.1.7.2,1,.3.1.9.3,1.8.4,2.7A8.29,8.29,0,0,1,69.6,50.9Z" transform="translate(0.13 0)"/></svg>