<svg 
id="Layer_1" 
data-name="Layer 1" 
xmlns="http://www.w3.org/2000/svg" 
viewBox="0 0 557.54 61.75"
width="3000"
><defs><style>.cls-1{fill:#e73527;}</style></defs>
<title>logo_straight</title><polygon class="cls-1" points="7.85 14.46 8.41 49.71 2.77 50.15 3.6 60.79 48.01 60.81 52.33 39.37 42.84 38.85 39 50.17 21.65 49.94 19.85 14.49 26.45 14.29 26.25 3.6 0.19 4.68 0 14.46 7.85 14.46"/><polygon class="cls-1" points="56.71 4.06 57.04 14.29 62.35 14.25 63.44 51 58.27 51.12 58.64 61.56 80.63 61.34 80.9 51.31 76.44 51.17 76.91 13.97 82.05 14.18 82.35 3.82 56.71 4.06"/><path class="cls-1" d="M95.1,18.3l6.37,4.15s4.63-6,5.92-8.14,2.66-5.48,0-10.66A7.78,7.78,0,0,0,99.54.09s-6.66.74-6.81,8.59A7.19,7.19,0,0,0,96.29,14,28.07,28.07,0,0,1,95.1,18.3Z" transform="translate(0 0.01)"/><polygon class="cls-1" points="200.97 5.46 201.84 15.26 208.05 15.07 210.18 51.03 204.9 51.09 205.66 61.47 224.52 60.5 224.14 50.48 218.56 50.49 217.49 25.74 242.09 60.78 249.54 61.21 252.18 15.08 257.12 15.26 257.93 5.32 236 4.21 235.79 14.11 241.63 14.3 241.24 33.21 219.34 4.69 200.97 5.46"/><path class="cls-1" d="M310,14.25c-3.55-5-9.47-9.47-18.8-10.81-3.17-.44-9.77,0-12.62,1-6.18,2.3-13.77,6.66-17,20.13,0,0-1.92,13.18,4,23.69,0,0,6.12,14.08,24.43,12.73,7-.52,16.58-3,21.47-17.32C313.89,36.71,315.75,22.36,310,14.25ZM299.17,35s-.07,14.51-11.66,15.69c0,0-10.7.89-12.92-15.25a25.62,25.62,0,0,1,1.18-14.36s2.08-7,10.82-7.57C286.59,13.51,300.21,12.18,299.17,35Z" transform="translate(0 0.01)"/><polygon class="cls-1" points="316.76 5.12 317.34 15.2 324.49 15.01 325.63 50.4 320.11 50.97 320.67 60.9 339.71 60.34 339.44 50.37 334.1 50.62 333.08 25.82 357.4 60.84 364.76 61.22 367.95 15.11 373.04 15.18 373.88 5.67 351.92 4.52 351.62 14.72 357.46 14.85 356.73 34.2 335.62 4.28 316.76 5.12"/><path class="cls-1" d="M546.3,6.08l11.24,1.27-2.69,18.89L544,24.79s3-7.16-9.56-10.06c0,0-8-1.16-9.23,5.24,0,0-.1,2.69,4,3.65,0,0,13.19,4.11,15.76,6.49,0,0,11,5.59,8.78,16.14,0,0,.53,15.57-20.16,14.75a19.47,19.47,0,0,1-14.38-6.68V60l-9.59-.14.25-23.16,9.88.34v5.49S521.48,53,537,50c0,0,10.79-3.49-.9-10.63,0,0-13.53-5-18.89-8.33,0,0-9-7-4.66-16.26,0,0,4.45-10.54,19.79-10.07,0,0,10,0,13.18,6.73Z" transform="translate(0 0.01)"/><path class="cls-1" d="M485,51.74,467.11,4.68,459,4.7l-17.4,46.8-5.46.6.8,9.38,18.06-1-.3-9.63-3.92.18,2.7-6.31,15.89-.08,2.76,6.2-3.53,0v9.54l21,1.1,1.19-9.41ZM457.65,34.63,462,22.82l4.61,11.62Z" transform="translate(0 0.01)"/><polygon class="cls-1" points="125.1 14.46 125.66 49.71 120.02 50.15 120.85 60.79 165.26 60.81 169.58 39.37 160.09 38.85 156.25 50.17 138.91 49.94 137.1 14.49 143.7 14.29 143.5 3.6 117.44 4.68 117.25 14.46 125.1 14.46"/><polygon class="cls-1" points="380.91 4.9 381.33 14.98 388.48 14.9 389.06 50.31 383.53 50.79 383.93 60.73 402.98 60.47 402.87 50.5 397.52 50.67 396.89 25.85 420.65 61.26 428.01 61.75 431.93 15.69 437.02 15.85 438.01 6.35 416.08 4.86 415.62 15.05 421.45 15.27 420.41 34.61 399.77 4.36 380.91 4.9"/><path class="cls-1" d="M489.52,20.57l6.37,4.15s4.63-6,5.92-8.14,2.66-5.48,0-10.66A7.78,7.78,0,0,0,494,2.36s-6.66.74-6.81,8.59a7.19,7.19,0,0,0,3.55,5.33A28.07,28.07,0,0,1,489.52,20.57Z" transform="translate(0 0.01)"/></svg>