<svg id="Layer_1" data-name="Layer 1" xmlns="http://www.w3.org/2000/svg" viewBox="0 0 29.69 9.33"><defs><style>.cls-1{fill:#010101;}</style></defs><title>header5</title><path class="cls-1" d="M3.68,2.2a1.17,1.17,0,0,1,0,.19,1,1,0,0,1,0,.25,1.48,1.48,0,0,1-.07.24,1.05,1.05,0,0,1-.09.18.17.17,0,0,1-.14.08.34.34,0,0,1-.14,0,.18.18,0,0,1-.09-.06l0-.08,0-.07A.14.14,0,0,0,3,2.86a.36.36,0,0,0-.17,0l-.34.08a2,2,0,0,0-.41.17,1.67,1.67,0,0,0-.37.28,1.08,1.08,0,0,0-.23.3c0,.09-.05.14,0,.16s.1,0,.27,0a1,1,0,0,1,.54.21,1.23,1.23,0,0,1,.42.54,2.3,2.3,0,0,1,.16.77,5.26,5.26,0,0,1,0,.9,3.29,3.29,0,0,1-.24.9A3.37,3.37,0,0,1,2.07,8a2.39,2.39,0,0,1-.63.56,1.38,1.38,0,0,1-.73.21.57.57,0,0,1-.32-.09.64.64,0,0,1-.21-.23,1.22,1.22,0,0,1-.12-.35A2.64,2.64,0,0,1,0,7.68a4.57,4.57,0,0,1,0-.47C0,7,0,6.92,0,6.82a.4.4,0,0,1,.05-.19.18.18,0,0,1,.08-.06l.14,0a1.05,1.05,0,0,1,.05-.24.12.12,0,0,1,.12-.07H.82a.15.15,0,0,1,.11.08.24.24,0,0,1,0,.21q0,.13-.1.35t-.1.44q0,.22-.07.43a2.13,2.13,0,0,0,0,.37.66.66,0,0,0,.06.26.16.16,0,0,0,.15.09.5.5,0,0,0,.35-.21,2.26,2.26,0,0,0,.35-.56,5.28,5.28,0,0,0,.29-.85A6.1,6.1,0,0,0,2,5.94a3,3,0,0,0,0-.71,1.68,1.68,0,0,0-.16-.52,1.22,1.22,0,0,0-.33-.41A.93.93,0,0,0,1.1,4.1.74.74,0,0,1,.85,4a.19.19,0,0,1-.07-.08.14.14,0,0,1,0-.08,1.23,1.23,0,0,1,.07-.2,2.79,2.79,0,0,1,.27-.46,2.53,2.53,0,0,1,.53-.56,2.78,2.78,0,0,1,.77-.42,2.56,2.56,0,0,1,.78-.18,1.21,1.21,0,0,1,.4,0A.18.18,0,0,1,3.68,2.2Z" transform="translate(0 -1.66)"/><path class="cls-1" d="M4.88,4.67a.83.83,0,0,1,.54.17,1,1,0,0,1,.3.45,1.84,1.84,0,0,1,.09.63,3,3,0,0,1-.1.72,3.82,3.82,0,0,1-.27.72A2.91,2.91,0,0,1,5,8a2.08,2.08,0,0,1-.53.45,1.25,1.25,0,0,1-.63.17.54.54,0,0,1-.2,0l-.15-.07-.08,0s0,0,0,.06q-.18.78-.29,1.33L3,10.57l0,.22a.35.35,0,0,1,0,.09.25.25,0,0,1-.08.07.18.18,0,0,1-.1,0h-.1l-.1,0-.1,0-.09,0-.08,0a.2.2,0,0,1-.06-.07.13.13,0,0,1,0-.1l0-.13.07-.21.1-.33c0-.13.1-.41.2-.82s.2-.88.33-1.41.24-1,.34-1.39l.26-1,.15-.53a.48.48,0,0,1,.07-.16.22.22,0,0,1,.13-.05h.34a.16.16,0,0,1,.09,0l0,.05a.22.22,0,0,1,0,.06v.1a0,0,0,0,0,0,0h0l.08-.06a1,1,0,0,1,.19-.12A.57.57,0,0,1,4.88,4.67Zm-1,3.63a.47.47,0,0,0,.32-.15,1.68,1.68,0,0,0,.29-.38,3.81,3.81,0,0,0,.25-.54,6.5,6.5,0,0,0,.2-.62C5,6.41,5,6.2,5.06,6a3.8,3.8,0,0,0,.06-.54,1.27,1.27,0,0,0,0-.38q0-.15-.15-.15A.23.23,0,0,0,4.78,5a.66.66,0,0,0-.13.16,1.24,1.24,0,0,0-.1.23l-.08.26q0,.13-.06.25l0,.18a.29.29,0,0,1,0,.1l-.07.06-.11,0L4,6.22,4,6.19q-.08.34-.13.54t-.08.42c0,.15,0,.29-.06.42a2.7,2.7,0,0,0,0,.37.79.79,0,0,0,0,.26A.13.13,0,0,0,3.85,8.31Z" transform="translate(0 -1.66)"/><path class="cls-1" d="M6.68,6.79s0,0,0,0v0c0,.17-.05.32-.07.46a3.13,3.13,0,0,0,0,.32c0,.07,0,.15,0,.23a2,2,0,0,0,0,.26,1,1,0,0,0,.06.22c0,.06.06.09.1.09s.08,0,.12-.08A1,1,0,0,0,7,8.15L7,8c0-.07,0-.14.06-.21a.22.22,0,0,1,.07-.13.11.11,0,0,1,.09,0l.1,0,.11,0,.11.05.09.06a.13.13,0,0,1,0,.09.31.31,0,0,1-.06.18,1.59,1.59,0,0,1-.21.26,1.22,1.22,0,0,1-.24.21A1,1,0,0,1,7,8.63a.88.88,0,0,1-.27,0,.68.68,0,0,1-.34-.08.81.81,0,0,1-.26-.23A1.08,1.08,0,0,1,5.93,8a1.36,1.36,0,0,1-.06-.37q0-.17,0-.36c0-.13,0-.27,0-.43S6,6.53,6,6.35a4.69,4.69,0,0,1,.15-.52,2.92,2.92,0,0,1,.22-.49,1.87,1.87,0,0,1,.32-.41,1.46,1.46,0,0,1,.42-.29,1.32,1.32,0,0,1,.54-.11A.54.54,0,0,1,8,4.64a.69.69,0,0,1,.21.28,1.17,1.17,0,0,1,.08.4,2,2,0,0,1,0,.46,2.11,2.11,0,0,1-.14.46,1.67,1.67,0,0,1-.25.4,1.19,1.19,0,0,1-.35.28A.92.92,0,0,1,7.09,7H7a.34.34,0,0,1-.19-.09A.41.41,0,0,1,6.68,6.79Zm0-.25a.21.21,0,0,0,0,.06.08.08,0,0,0,0,.06l.07,0h.08a.35.35,0,0,0,.25-.14,1.69,1.69,0,0,0,.23-.35,3.32,3.32,0,0,0,.19-.45,3.66,3.66,0,0,0,.12-.45,1.2,1.2,0,0,0,0-.35c0-.09,0-.14-.1-.14A.38.38,0,0,0,7.32,5a1.82,1.82,0,0,0-.25.4,4,4,0,0,0-.21.55Q6.76,6.25,6.7,6.54Z" transform="translate(0 -1.66)"/><path class="cls-1" d="M10.11,4.52a.52.52,0,0,1,.29.08.55.55,0,0,1,.18.2.85.85,0,0,1,.09.28,1.38,1.38,0,0,1,0,.23c0,.05,0,.1,0,.15a.12.12,0,0,1-.06.1l-.2,0a.81.81,0,0,1-.23,0l-.11,0,0,0a.16.16,0,0,1,0-.08s0-.1,0-.18a1.9,1.9,0,0,0,0-.22.56.56,0,0,0,0-.18s0-.08-.09-.08-.09,0-.16.1a2,2,0,0,0-.23.29,4.26,4.26,0,0,0-.26.44,4.35,4.35,0,0,0-.24.55,4.58,4.58,0,0,0-.18.64,3,3,0,0,0-.07.58c0,.16,0,.29,0,.39a2.32,2.32,0,0,0,0,.28A.73.73,0,0,0,9,8.28a.14.14,0,0,0,.12.09.16.16,0,0,0,.12-.08,1,1,0,0,0,.11-.21,2.78,2.78,0,0,0,.1-.28l.07-.25a.27.27,0,0,1,.05-.12.16.16,0,0,1,.12,0l.22,0,.19.07a.13.13,0,0,1,.07.07.25.25,0,0,1,0,.11,1.9,1.9,0,0,1-.09.25,1.27,1.27,0,0,1-.19.32,1.09,1.09,0,0,1-.31.26.91.91,0,0,1-.47.11.86.86,0,0,1-.41-.09.71.71,0,0,1-.27-.24,1.09,1.09,0,0,1-.15-.37,2,2,0,0,1,0-.42c0-.14,0-.3,0-.5a4.62,4.62,0,0,1,.11-.61,4.83,4.83,0,0,1,.21-.66,2.48,2.48,0,0,1,.35-.61,1.78,1.78,0,0,1,.51-.44A1.36,1.36,0,0,1,10.11,4.52Z" transform="translate(0 -1.66)"/><path class="cls-1" d="M11.1,8.21a.18.18,0,0,0,0,.06v0l0,.06a.56.56,0,0,1,0,.12.17.17,0,0,1-.07.14.21.21,0,0,1-.15,0l-.2,0-.16,0a.16.16,0,0,1-.08-.05.18.18,0,0,1,0-.08.41.41,0,0,1,0-.07s0-.08,0-.19,0-.27.08-.49.08-.42.12-.63.09-.42.14-.62l.13-.58.12-.49.08-.3,0-.12,0-.07.07-.06a.12.12,0,0,1,.09,0l.15,0,.17.08a.18.18,0,0,1,.09.1.31.31,0,0,1,0,.15q-.27,1.13-.43,1.87T11.1,8.21Zm1-5a.53.53,0,0,1,.06.16.87.87,0,0,1,0,.21,1,1,0,0,1,0,.22.64.64,0,0,1-.09.21.48.48,0,0,1-.16.15.44.44,0,0,1-.23.06.59.59,0,0,1-.22,0,.44.44,0,0,1-.14-.1A.42.42,0,0,1,11.27,4l0-.11a.32.32,0,0,1,0-.07.33.33,0,0,1,0-.07l0-.07a.11.11,0,0,1,.05,0l.09,0,.06,0v0a.42.42,0,0,1,.07-.29.37.37,0,0,1,.2-.14.41.41,0,0,1,.23,0A.32.32,0,0,1,12.14,3.24Z" transform="translate(0 -1.66)"/><path class="cls-1" d="M14.75,4.86l.08.09a.12.12,0,0,1,0,.13q-.25.53-.42,1t-.26.81A5.62,5.62,0,0,0,14,7.5c0,.19,0,.36,0,.5a.3.3,0,0,0,0,.13.12.12,0,0,0,0,.06l.06,0,.06,0a.08.08,0,0,1,0,.06.37.37,0,0,1,0,.12.17.17,0,0,1-.08.12l-.14.07-.2,0h-.22c-.07,0-.11,0-.12-.06a.43.43,0,0,1,0-.09V8.42s0,0,0-.08,0,0,0,0l-.1.09a1.33,1.33,0,0,1-.24.15.83.83,0,0,1-.39.09.63.63,0,0,1-.3-.07.72.72,0,0,1-.21-.18.9.9,0,0,1-.14-.24,1.56,1.56,0,0,1-.08-.26,2,2,0,0,1,0-.24c0-.08,0-.15,0-.22s0-.2,0-.38a4.76,4.76,0,0,1,.1-.6,5,5,0,0,1,.21-.67,2.51,2.51,0,0,1,.34-.62A1.76,1.76,0,0,1,13,4.72a1.36,1.36,0,0,1,.71-.18.46.46,0,0,1,.3.08.54.54,0,0,1,.16.2.67.67,0,0,1,.11-.16s.09,0,.2,0A.74.74,0,0,1,14.75,4.86Zm-2,3.51c.09,0,.18-.07.27-.21a3,3,0,0,0,.24-.53q.12-.32.23-.7l.19-.64.12-.39.09-.27h-.13l-.07,0a.09.09,0,0,1,0,0,.18.18,0,0,1,0-.05.34.34,0,0,1,0-.07l0-.15a1.69,1.69,0,0,0,0-.2.46.46,0,0,0,0-.16.07.07,0,0,0-.08-.07.31.31,0,0,0-.16.1,1.81,1.81,0,0,0-.24.28,3.81,3.81,0,0,0-.27.43,4,4,0,0,0-.25.57,4.88,4.88,0,0,0-.18.69,4.23,4.23,0,0,0-.07.79,1.27,1.27,0,0,0,.07.49C12.6,8.31,12.65,8.36,12.7,8.36Z" transform="translate(0 -1.66)"/><path class="cls-1" d="M16.87,2.27a.18.18,0,0,1,0,.12,1.33,1.33,0,0,1-.06.18l-.17.5-.28.85q-.15.48-.32,1t-.3,1.13q-.14.57-.26,1.12a6.16,6.16,0,0,0-.14.82c0,.18,0,.29,0,.35a.73.73,0,0,1,0,.14.35.35,0,0,1-.06.12.19.19,0,0,1-.1.07.54.54,0,0,1-.18,0l-.18,0-.11,0a.16.16,0,0,1-.08,0,.22.22,0,0,1,0-.07.23.23,0,0,1,0-.07.86.86,0,0,1,0-.11s0-.14,0-.29.06-.33.1-.56.11-.5.19-.82.18-.69.31-1.12.27-.92.45-1.46S16,3,16.24,2.31c0-.06,0-.08.06-.08l.05,0,0,0,0,0,.07-.21a.09.09,0,0,1,.05-.05.13.13,0,0,1,.1,0l.11.08A.52.52,0,0,1,16.87,2.27Z" transform="translate(0 -1.66)"/><path class="cls-1" d="M20.16,1.66a1.27,1.27,0,0,1,.66.16,1.07,1.07,0,0,1,.4.43,1.47,1.47,0,0,1,.16.61,2.44,2.44,0,0,1-.07.71A3.2,3.2,0,0,1,21,4.3a3.07,3.07,0,0,1-.48.67,3,3,0,0,1-.66.53,2.55,2.55,0,0,1-.83.31q-.14.47-.28,1l-.23.87a3.9,3.9,0,0,0-.1.44,1.06,1.06,0,0,0,0,.16s0,.1,0,.15a1.18,1.18,0,0,1,0,.21.2.2,0,0,1-.07.13l-.12,0h-.13l-.14,0-.18-.08a.18.18,0,0,1-.1-.14.62.62,0,0,1,0-.2L17.81,8,18,7.42l.2-.72.24-.84-.1,0-.06,0,0,0a.1.1,0,0,1,0-.07.2.2,0,0,1,0-.07.19.19,0,0,1,.1-.06l.1,0h.06l.38-1.28q.2-.67.32-1l.14-.43a.3.3,0,0,1,.07-.1.23.23,0,0,1,.11-.06.22.22,0,0,1,.14,0,.17.17,0,0,1,.1.11,1.09,1.09,0,0,1-.1.37l.09.07,0,.06a.23.23,0,0,1,0,.1.48.48,0,0,1,0,.15L19.6,4l-.24.8-.1.35a.06.06,0,0,0,0,0v0h0A2.48,2.48,0,0,0,20,4.68,3,3,0,0,0,20.48,4a2.74,2.74,0,0,0,.24-.73,2,2,0,0,0,0-.65,1,1,0,0,0-.19-.47.46.46,0,0,0-.38-.18,1.27,1.27,0,0,0-.43.07,1.65,1.65,0,0,0-.37.18,2,2,0,0,0-.32.26,2.81,2.81,0,0,0-.26.29L18.6,3l-.12.21a.25.25,0,0,1-.08.09l-.08,0h-.08l-.08,0L18,3.21l-.13-.14A.17.17,0,0,1,17.85,3a.33.33,0,0,1,0-.1A1.05,1.05,0,0,1,18,2.67a2.38,2.38,0,0,1,.33-.33,2.89,2.89,0,0,1,1.14-.6A2.72,2.72,0,0,1,20.16,1.66Z" transform="translate(0 -1.66)"/><path class="cls-1" d="M21.27,8.21a.16.16,0,0,0,0,.06v0l0,.06a.6.6,0,0,1,0,.12.17.17,0,0,1-.07.14.21.21,0,0,1-.15,0l-.2,0-.16,0a.16.16,0,0,1-.08-.05.18.18,0,0,1,0-.08.4.4,0,0,1,0-.07s0-.08,0-.19,0-.27.08-.49.08-.42.13-.63.09-.42.14-.62l.13-.58.12-.49.08-.3,0-.12,0-.07.07-.06a.13.13,0,0,1,.09,0l.15,0,.17.08a.18.18,0,0,1,.09.1.31.31,0,0,1,0,.15q-.27,1.13-.43,1.87T21.27,8.21Zm1-5a.51.51,0,0,1,.06.16.89.89,0,0,1,0,.21,1,1,0,0,1,0,.22.66.66,0,0,1-.09.21.48.48,0,0,1-.16.15.44.44,0,0,1-.23.06.59.59,0,0,1-.22,0,.43.43,0,0,1-.14-.1A.43.43,0,0,1,21.44,4l0-.11a.34.34,0,0,1,0-.07.33.33,0,0,1,0-.07l0-.07a.11.11,0,0,1,.05,0l.09,0,.06,0v0a.42.42,0,0,1,.07-.29.37.37,0,0,1,.2-.14.41.41,0,0,1,.23,0A.32.32,0,0,1,22.31,3.24Z" transform="translate(0 -1.66)"/><path class="cls-1" d="M23.87,8l.09,0,.07.06a.17.17,0,0,1,0,.11.79.79,0,0,1,0,.12V8.4l0,0,0,0h-.1l-.21,0h-.4a3.66,3.66,0,0,0-.49,0,2.6,2.6,0,0,0-.4.1.27.27,0,0,1-.24,0A.48.48,0,0,1,22,8.4a.69.69,0,0,1-.07-.27A.76.76,0,0,1,22,7.81a4.56,4.56,0,0,1,.23-.48q.16-.3.41-.67a8.93,8.93,0,0,1,.56-.75,7.34,7.34,0,0,1,.66-.7l0,0h0l-.18,0-.44.07-.36.08-.1,0,0,0,0,0,0,.07a.1.1,0,0,1,0,.05l-.08,0a.13.13,0,0,1-.13-.08.6.6,0,0,1-.06-.17,1,1,0,0,1,0-.17,1.33,1.33,0,0,1,0-.14s0-.08,0-.13a.13.13,0,0,1,.06-.1,1.86,1.86,0,0,1,.37-.09,4.87,4.87,0,0,1,.74-.08h.74l.1,0a.21.21,0,0,1,.09.07.2.2,0,0,1,0,.09.81.81,0,0,1,0,.1.32.32,0,0,1,0,.12l0,.1-.1.12-.19.22-.27.33-.32.42c-.11.15-.22.32-.33.49s-.21.35-.31.53a4.29,4.29,0,0,0-.21.42.71.71,0,0,0-.06.18s0,0,.11,0l.44,0C23.45,8,23.66,8,23.87,8Z" transform="translate(0 -1.66)"/><path class="cls-1" d="M26.21,8l.09,0,.07.06a.16.16,0,0,1,0,.11,1,1,0,0,1,0,.12V8.4l0,0,0,0h-.1l-.21,0h-.4a3.68,3.68,0,0,0-.49,0,2.53,2.53,0,0,0-.4.1.27.27,0,0,1-.24,0,.46.46,0,0,1-.13-.17.72.72,0,0,1-.07-.27.78.78,0,0,1,.06-.32,4.77,4.77,0,0,1,.23-.48c.11-.2.25-.43.41-.67a9.17,9.17,0,0,1,.56-.75,7.45,7.45,0,0,1,.66-.7l0,0h0l-.18,0-.44.07-.36.08-.1,0,0,0,0,0,0,.07a.11.11,0,0,1,0,.05l-.08,0a.13.13,0,0,1-.13-.08.58.58,0,0,1-.06-.17,1,1,0,0,1,0-.17,1.31,1.31,0,0,1,0-.14s0-.08,0-.13a.13.13,0,0,1,.06-.1,1.82,1.82,0,0,1,.37-.09,4.88,4.88,0,0,1,.74-.08h.74l.1,0a.22.22,0,0,1,.08.07.21.21,0,0,1,0,.09s0,.06,0,.1a.32.32,0,0,1,0,.12l0,.1-.1.12-.19.22-.27.33-.32.42q-.17.23-.33.49c-.11.17-.21.35-.31.53a4,4,0,0,0-.21.42.69.69,0,0,0-.06.18s0,0,.11,0l.44,0Q25.9,8,26.21,8Z" transform="translate(0 -1.66)"/><path class="cls-1" d="M29.59,4.86l.08.09a.12.12,0,0,1,0,.13q-.25.53-.42,1a8.49,8.49,0,0,0-.26.81,5.51,5.51,0,0,0-.13.65c0,.19,0,.36,0,.5a.29.29,0,0,0,0,.13.12.12,0,0,0,0,.06l.06,0,.06,0a.08.08,0,0,1,0,.06.4.4,0,0,1,0,.12.17.17,0,0,1-.08.12l-.14.07-.2,0h-.22c-.07,0-.11,0-.12-.06l0-.09s0,0,0-.07,0,0,0-.08,0,0,0,0l-.1.09a1.3,1.3,0,0,1-.24.15.83.83,0,0,1-.39.09.63.63,0,0,1-.3-.07.73.73,0,0,1-.21-.18.89.89,0,0,1-.14-.24,1.57,1.57,0,0,1-.08-.26,1.81,1.81,0,0,1,0-.24c0-.08,0-.15,0-.22s0-.2,0-.38a4.76,4.76,0,0,1,.1-.6A5,5,0,0,1,27,5.79a2.53,2.53,0,0,1,.34-.62,1.77,1.77,0,0,1,.51-.45,1.36,1.36,0,0,1,.71-.18.46.46,0,0,1,.3.08.55.55,0,0,1,.16.2.64.64,0,0,1,.11-.16s.09,0,.2,0A.74.74,0,0,1,29.59,4.86Zm-2,3.51c.09,0,.18-.07.27-.21a2.93,2.93,0,0,0,.24-.53q.12-.32.23-.7l.19-.64.12-.39.09-.27h-.13l-.07,0a.08.08,0,0,1,0,0,.18.18,0,0,1,0-.05.34.34,0,0,1,0-.07l0-.15a1.7,1.7,0,0,0,0-.2.46.46,0,0,0,0-.16.07.07,0,0,0-.08-.07.31.31,0,0,0-.16.1,1.81,1.81,0,0,0-.24.28,3.75,3.75,0,0,0-.27.43,4,4,0,0,0-.25.57,5,5,0,0,0-.18.69,4.19,4.19,0,0,0-.07.79,1.27,1.27,0,0,0,.07.49C27.45,8.31,27.5,8.36,27.55,8.36Z" transform="translate(0 -1.66)"/></svg>