<svg id="Layer_1" data-name="Layer 1" xmlns="http://www.w3.org/2000/svg" viewBox="0 0 14.03 8.42"><defs><style>.cls-1{fill:#231f20;}</style></defs><title>header4</title><path class="cls-1" d="M4.42.53a1.43,1.43,0,0,1,0,.23,1.21,1.21,0,0,1,0,.3,1.83,1.83,0,0,1-.09.28,1.29,1.29,0,0,1-.11.21.21.21,0,0,1-.17.1.42.42,0,0,1-.17,0,.24.24,0,0,1-.1-.07.33.33,0,0,1-.05-.09l0-.09a.17.17,0,0,0-.06-.06.42.42,0,0,0-.2,0A2.83,2.83,0,0,0,3,1.41a2.43,2.43,0,0,0-.49.21A2,2,0,0,0,2,2a1.29,1.29,0,0,0-.28.36q-.07.16-.06.19s.12,0,.33.06a1.22,1.22,0,0,1,.64.26,1.47,1.47,0,0,1,.5.64,2.76,2.76,0,0,1,.19.93,6.34,6.34,0,0,1,0,1.08A4,4,0,0,1,3,6.55a4,4,0,0,1-.56.94,2.89,2.89,0,0,1-.75.67,1.66,1.66,0,0,1-.88.26.7.7,0,0,1-.39-.1A.78.78,0,0,1,.22,8a1.46,1.46,0,0,1-.15-.42A3.22,3.22,0,0,1,0,7.1a5.44,5.44,0,0,1,0-.56c0-.19,0-.35,0-.46a.5.5,0,0,1,.06-.23.22.22,0,0,1,.1-.07l.16,0a1.27,1.27,0,0,1,.06-.29.15.15,0,0,1,.14-.09H1a.18.18,0,0,1,.14.1.29.29,0,0,1,0,.25q-.06.16-.13.42t-.12.53c0,.18-.06.35-.08.51a2.53,2.53,0,0,0,0,.44.78.78,0,0,0,.07.31A.19.19,0,0,0,1,8.05a.6.6,0,0,0,.42-.25,2.71,2.71,0,0,0,.42-.68,6.29,6.29,0,0,0,.35-1A7.32,7.32,0,0,0,2.42,5a3.54,3.54,0,0,0,0-.85,2,2,0,0,0-.2-.63A1.47,1.47,0,0,0,1.82,3a1.14,1.14,0,0,0-.5-.25A.9.9,0,0,1,1,2.72a.24.24,0,0,1-.08-.09.17.17,0,0,1,0-.09A1.54,1.54,0,0,1,1,2.3a3.32,3.32,0,0,1,.33-.56A3,3,0,0,1,2,1.07a3.34,3.34,0,0,1,.92-.5A3.07,3.07,0,0,1,3.82.35a1.46,1.46,0,0,1,.48,0A.22.22,0,0,1,4.42.53Z"/><path class="cls-1" d="M4.24,7.75a.22.22,0,0,0,0,.07l0,.06,0,.07a.65.65,0,0,1,0,.14.21.21,0,0,1-.08.16A.25.25,0,0,1,4,8.3l-.24,0-.2,0a.19.19,0,0,1-.1-.06.22.22,0,0,1,0-.09.47.47,0,0,1,0-.08s0-.1,0-.23,0-.33.1-.58.1-.51.15-.76.11-.5.16-.75L4,5l.14-.59L4.27,4l0-.14a.33.33,0,0,1,0-.09l.08-.07a.15.15,0,0,1,.11,0l.18.06.2.1A.21.21,0,0,1,5,4a.36.36,0,0,1,0,.18q-.33,1.36-.51,2.25T4.24,7.75Zm1.25-6A.63.63,0,0,1,5.56,2a1,1,0,0,1,0,.25,1.26,1.26,0,0,1,0,.27.77.77,0,0,1-.11.25.57.57,0,0,1-.19.18A.53.53,0,0,1,5,3a.69.69,0,0,1-.26,0,.5.5,0,0,1-.17-.11.51.51,0,0,1-.1-.15l0-.13a.36.36,0,0,1,0-.09.39.39,0,0,1,0-.08.3.3,0,0,1,0-.08.14.14,0,0,1,.06-.06l.11,0,.07,0a.08.08,0,0,0,0,0,.5.5,0,0,1,.09-.35A.45.45,0,0,1,5,1.62a.48.48,0,0,1,.28,0A.38.38,0,0,1,5.48,1.77Z"/><path class="cls-1" d="M9.08.93q-.15.64-.29,1.16L8.51,3.16q-.15.56-.29,1.15T8,5.45c-.08.37-.14.72-.19,1.05a7,7,0,0,0-.08.76q0,.26,0,.28l.1,0,.09,0s0,.07,0,.14a.38.38,0,0,1-.06.17L7.79,8l-.12.09-.18.08-.23.07a.38.38,0,0,1-.17,0A.22.22,0,0,1,7,8.23a.22.22,0,0,1,0-.07l0-.09a1.42,1.42,0,0,1,0-.16,2.06,2.06,0,0,1,0-.21.32.32,0,0,0,0-.11h0l-.06.1-.13.22a1.14,1.14,0,0,1-.18.23.84.84,0,0,1-.22.15A.61.61,0,0,1,6,8.35a.76.76,0,0,1-.56-.21,1.3,1.3,0,0,1-.32-.56A2.74,2.74,0,0,1,5,6.78a4.71,4.71,0,0,1,.09-.91A4.89,4.89,0,0,1,5.39,5a3.72,3.72,0,0,1,.44-.79,2.28,2.28,0,0,1,.58-.56,1.25,1.25,0,0,1,.7-.21.66.66,0,0,1,.46.17Q7.74,2.86,8,2T8.3.69L8.46.15l0-.07L8.58,0A.14.14,0,0,1,8.7,0l.13.05a.15.15,0,0,1,.08.11.49.49,0,0,1,0,.19q0,.11,0,.18a.65.65,0,0,0,0,.09,0,0,0,0,0,0,0h0l0,0s0,0,.07,0l.07.06a.22.22,0,0,1,0,.08A.43.43,0,0,1,9.08.93Zm-2.3,5c0-.08,0-.19.08-.33s.07-.3.1-.46.06-.33.09-.5,0-.32.06-.46a1.54,1.54,0,0,0,0-.33q0-.13-.09-.13t-.26.18a2.5,2.5,0,0,0-.26.49,6.32,6.32,0,0,0-.24.69q-.11.39-.2.79t-.14.79a6,6,0,0,0-.06.69,1.7,1.7,0,0,0,0,.49c0,.12.09.19.17.19s.16-.06.25-.17a2.49,2.49,0,0,0,.25-.44,5.94,5.94,0,0,0,.24-.6c.08-.22.14-.44.2-.65l-.13,0a.14.14,0,0,1-.09-.05.18.18,0,0,1,0-.07A.28.28,0,0,1,6.78,5.91Z"/><path class="cls-1" d="M9.3,6s0,0,0,0a.12.12,0,0,0,0,.05c0,.2-.06.38-.08.55a3.67,3.67,0,0,0,0,.38q0,.13,0,.28a2.33,2.33,0,0,0,0,.31,1.27,1.27,0,0,0,.07.26c0,.07.07.11.13.11s.09,0,.14-.1a1.19,1.19,0,0,0,.11-.18,2.13,2.13,0,0,0,.08-.2c0-.08.05-.16.07-.25a.26.26,0,0,1,.08-.16A.14.14,0,0,1,10,7l.12,0,.13,0,.13.06.11.07a.16.16,0,0,1,.06.11.36.36,0,0,1-.08.21,1.93,1.93,0,0,1-.25.31,1.55,1.55,0,0,1-.28.25,1.2,1.2,0,0,1-.27.13,1.07,1.07,0,0,1-.33,0,.82.82,0,0,1-.41-.1,1,1,0,0,1-.31-.28,1.29,1.29,0,0,1-.2-.41,1.62,1.62,0,0,1-.07-.44c0-.14,0-.28,0-.44s0-.33,0-.52.06-.39.11-.6a5.56,5.56,0,0,1,.18-.63,3.52,3.52,0,0,1,.27-.59,2.24,2.24,0,0,1,.38-.5,1.74,1.74,0,0,1,.51-.34,1.57,1.57,0,0,1,.65-.13.64.64,0,0,1,.41.13.83.83,0,0,1,.25.34,1.41,1.41,0,0,1,.1.48,2.43,2.43,0,0,1,0,.55,2.52,2.52,0,0,1-.17.55,2,2,0,0,1-.3.48,1.43,1.43,0,0,1-.42.34,1.1,1.1,0,0,1-.53.13H9.63a.4.4,0,0,1-.23-.11A.5.5,0,0,1,9.3,6Zm0-.3a.25.25,0,0,0,0,.07.09.09,0,0,0,0,.08l.09,0,.09,0a.41.41,0,0,0,.3-.17,2,2,0,0,0,.28-.42,4.07,4.07,0,0,0,.23-.54,4.29,4.29,0,0,0,.15-.54,1.45,1.45,0,0,0,0-.42q0-.17-.12-.17a.46.46,0,0,0-.35.19,2.17,2.17,0,0,0-.3.48A4.74,4.74,0,0,0,9.5,5Q9.39,5.39,9.32,5.74Z"/><path class="cls-1" d="M14,3.49a2.26,2.26,0,0,1,0,.36,1.26,1.26,0,0,1-.07.33.89.89,0,0,1-.08.17l-.08.07a.26.26,0,0,1-.14,0,.16.16,0,0,1-.12,0,.29.29,0,0,1,0-.08.28.28,0,0,0,0-.08s-.06,0-.14,0l-.27,0a1.63,1.63,0,0,0-.3.12,1.69,1.69,0,0,0-.3.2,1,1,0,0,0-.22.23q-.07.11-.06.14l.05,0,.17,0a1.52,1.52,0,0,1,.33.08.83.83,0,0,1,.35.25,1.18,1.18,0,0,1,.23.5,1.77,1.77,0,0,1,0,.69,2.85,2.85,0,0,1-.17.65,2,2,0,0,1-.31.51,1.67,1.67,0,0,1-.48.39,1.37,1.37,0,0,1-.67.16.65.65,0,0,1-.5-.17A.8.8,0,0,1,11,7.69a1.74,1.74,0,0,1,0-.53q0-.28.06-.39a.28.28,0,0,1,.07-.15.23.23,0,0,1,.1-.05h.11a1.18,1.18,0,0,1,0-.14l0-.1s.05,0,.11,0l.16,0,.13,0a.12.12,0,0,1,.07.05.17.17,0,0,1,0,.06.33.33,0,0,1,0,.06l0,.11L11.73,7a3.89,3.89,0,0,0-.1.46,1.34,1.34,0,0,0,0,.38q0,.16.15.16a.3.3,0,0,0,.2-.08.76.76,0,0,0,.16-.2,1.78,1.78,0,0,0,.13-.29q.06-.16.1-.32t.08-.32q0-.16,0-.29a1.59,1.59,0,0,0,0-.32,1,1,0,0,0-.11-.38.94.94,0,0,0-.29-.33,1.27,1.27,0,0,0-.54-.2.23.23,0,0,1-.13-.08.26.26,0,0,1,0-.12.37.37,0,0,1,0-.12,1.18,1.18,0,0,1,.05-.17,2.44,2.44,0,0,1,.19-.35A1.91,1.91,0,0,1,12,3.93a2.6,2.6,0,0,1,.66-.39,3,3,0,0,1,.9-.22h.17l.11,0,.1.05A.14.14,0,0,1,14,3.49Z"/></svg>