<svg id="Layer_1" data-name="Layer 1" xmlns="http://www.w3.org/2000/svg" viewBox="0 0 57.07 11.07"><title>header1</title><path d="M4.23,4.56a.55.55,0,0,1,.19,0,.17.17,0,0,1,.08.06.23.23,0,0,1,0,.13.89.89,0,0,1,0,.2,1.17,1.17,0,0,1-.06.19.34.34,0,0,1-.11.14.33.33,0,0,1-.23,0H3.75q-.06.57-.13,1.21t-.1,1a2,2,0,0,0,0,.42l0,.07,0,.06a.12.12,0,0,1,0,.08.16.16,0,0,1-.05.08l-.09.06-.11,0-.12,0H2.87a.18.18,0,0,1-.16-.11.18.18,0,0,1,0-.07s0-.06,0-.12,0-.18,0-.35l.08-.61q0-.35.11-.76T3,5.74q0-.25,0-.25l-.19.06a2,2,0,0,0-.38.22,2.88,2.88,0,0,0-.42.35,3.42,3.42,0,0,0-.33.39q-.14.2-.24.37a3.33,3.33,0,0,0-.16.31q-.06.14-.14.35L1,8.11l-.19.57a.67.67,0,0,1-.12.25A.18.18,0,0,1,.5,9a.83.83,0,0,1-.25-.11L.06,8.7A.17.17,0,0,1,0,8.55a1.57,1.57,0,0,1,.06-.25q0-.16.22-.65T.69,6.51q.24-.64.55-1.4t.69-1.59q.38-.83.82-1.69T3.45.55L3.73.09l.06,0,.08,0A.21.21,0,0,1,4,.06a.61.61,0,0,1,.13.11,1.1,1.1,0,0,1,.13.16,1.16,1.16,0,0,1,.11.19.92.92,0,0,1,.06.2q0,.1,0,.16a.74.74,0,0,1,0,.11.68.68,0,0,1,0,.09l-.06.28q-.05.24-.21,1.09T3.83,4.61l.23,0ZM1.92,5.71a3.41,3.41,0,0,1,.64-.57,4,4,0,0,1,.62-.34l.16-.92q.08-.47.18-.92t.19-.89q.1-.43.16-.67a2,2,0,0,0,.06-.25s0,0,0,0l0,.07-.31.64q-.2.42-.46,1l-.57,1.3q-.31.72-.63,1.52v.05S1.89,5.74,1.92,5.71Z"/><path d="M6.78,3.5a1,1,0,0,1,.65.2,1.15,1.15,0,0,1,.36.53A2.22,2.22,0,0,1,7.9,5a3.63,3.63,0,0,1-.12.86,4.59,4.59,0,0,1-.32.86,3.49,3.49,0,0,1-.5.76A2.48,2.48,0,0,1,6.32,8a1.49,1.49,0,0,1-.76.2.68.68,0,0,1-.24,0l-.18-.09a.19.19,0,0,0-.1,0s0,0-.05.07Q4.79,9,4.65,9.7l-.18.87q0,.2-.06.26a.41.41,0,0,1-.05.11.3.3,0,0,1-.09.09.21.21,0,0,1-.11,0H4l-.12,0-.12,0-.11,0-.1,0a.23.23,0,0,1-.07-.08.16.16,0,0,1,0-.12l.05-.16.09-.25.12-.4q.07-.24.24-1t.4-1.69q.23-.95.41-1.67t.32-1.21l.18-.63a.57.57,0,0,1,.08-.19.27.27,0,0,1,.16-.06l.23,0H6a.19.19,0,0,1,.1,0,.15.15,0,0,1,0,.06.25.25,0,0,1,0,.07v.12a0,0,0,0,0,0,0h0l.1-.08a1.13,1.13,0,0,1,.23-.15A.68.68,0,0,1,6.78,3.5ZM5.55,7.86a.57.57,0,0,0,.39-.18,2,2,0,0,0,.35-.46,4.6,4.6,0,0,0,.3-.65,7.7,7.7,0,0,0,.24-.74q.1-.38.16-.74a4.54,4.54,0,0,0,.07-.65A1.53,1.53,0,0,0,7,4Q7,3.8,6.85,3.8a.27.27,0,0,0-.18.08.81.81,0,0,0-.16.2,1.5,1.5,0,0,0-.12.28l-.1.31q0,.16-.07.3l0,.21a.32.32,0,0,1,0,.11A.21.21,0,0,1,6,5.35a.27.27,0,0,1-.13,0l-.13,0-.1,0q-.1.4-.15.65t-.09.51q0,.26-.07.51a3.27,3.27,0,0,0,0,.44.94.94,0,0,0,.05.31A.16.16,0,0,0,5.55,7.86Z"/><path d="M10.31,3.5a1,1,0,0,1,.65.2,1.15,1.15,0,0,1,.36.53,2.22,2.22,0,0,1,.11.76,3.63,3.63,0,0,1-.12.86,4.59,4.59,0,0,1-.32.86,3.49,3.49,0,0,1-.5.76A2.48,2.48,0,0,1,9.86,8a1.49,1.49,0,0,1-.76.2.68.68,0,0,1-.24,0l-.18-.09a.19.19,0,0,0-.1,0s0,0-.05.07Q8.32,9,8.18,9.7L8,10.57q0,.2-.06.26a.41.41,0,0,1-.05.11A.3.3,0,0,1,7.8,11a.21.21,0,0,1-.11,0H7.57l-.12,0-.12,0-.11,0-.1,0A.23.23,0,0,1,7,10.83a.16.16,0,0,1,0-.12l.05-.16.09-.25.12-.4q.07-.24.24-1t.4-1.69q.23-.95.41-1.67t.32-1.21l.18-.63a.57.57,0,0,1,.08-.19.27.27,0,0,1,.16-.06l.23,0h.18a.19.19,0,0,1,.1,0,.15.15,0,0,1,0,.06.25.25,0,0,1,0,.07v.12a0,0,0,0,0,0,0h0l.1-.08A1.13,1.13,0,0,1,10,3.57.68.68,0,0,1,10.31,3.5ZM9.08,7.86a.57.57,0,0,0,.39-.18,2,2,0,0,0,.35-.46,4.6,4.6,0,0,0,.3-.65,7.7,7.7,0,0,0,.24-.74q.1-.38.16-.74a4.54,4.54,0,0,0,.07-.65,1.53,1.53,0,0,0,0-.46q-.05-.18-.18-.18a.27.27,0,0,0-.18.08.81.81,0,0,0-.16.2,1.5,1.5,0,0,0-.12.28l-.1.31q0,.16-.07.3l0,.21a.32.32,0,0,1,0,.11.21.21,0,0,1-.08.07.27.27,0,0,1-.13,0l-.13,0-.1,0q-.1.4-.15.65T9,6.48q0,.26-.07.51a3.27,3.27,0,0,0,0,.44.94.94,0,0,0,.05.31A.16.16,0,0,0,9.08,7.86Z"/><path d="M12.48,6s0,0,0,0a.11.11,0,0,0,0,0q-.05.3-.08.55a3.67,3.67,0,0,0,0,.38q0,.13,0,.28a2.31,2.31,0,0,0,0,.31,1.28,1.28,0,0,0,.07.26q0,.11.13.11s.09,0,.14-.1a1.19,1.19,0,0,0,.11-.18,2.1,2.1,0,0,0,.08-.2q0-.12.07-.25A.26.26,0,0,1,13,7.05a.14.14,0,0,1,.11,0l.12,0,.13,0,.13.06.11.07a.16.16,0,0,1,.06.11.36.36,0,0,1-.08.21,1.93,1.93,0,0,1-.25.31,1.55,1.55,0,0,1-.28.25,1.19,1.19,0,0,1-.27.13,1.07,1.07,0,0,1-.33,0,.82.82,0,0,1-.41-.1,1,1,0,0,1-.31-.28,1.28,1.28,0,0,1-.2-.41,1.63,1.63,0,0,1-.07-.44q0-.21,0-.44t0-.52q0-.28.11-.6a5.56,5.56,0,0,1,.18-.63,3.52,3.52,0,0,1,.27-.59,2.24,2.24,0,0,1,.38-.5A1.74,1.74,0,0,1,13,3.45a1.57,1.57,0,0,1,.65-.13.64.64,0,0,1,.41.13.83.83,0,0,1,.25.34,1.41,1.41,0,0,1,.1.48,2.43,2.43,0,0,1,0,.55,2.52,2.52,0,0,1-.17.55,2,2,0,0,1-.3.48,1.43,1.43,0,0,1-.42.34,1.1,1.1,0,0,1-.53.13h-.16a.4.4,0,0,1-.23-.11A.5.5,0,0,1,12.48,6Zm0-.3a.25.25,0,0,0,0,.07.09.09,0,0,0,0,.08l.09,0h.09a.41.41,0,0,0,.3-.17,2,2,0,0,0,.28-.42,4.07,4.07,0,0,0,.23-.54,4.29,4.29,0,0,0,.15-.54,1.45,1.45,0,0,0,0-.42q0-.17-.12-.17a.46.46,0,0,0-.35.19,2.17,2.17,0,0,0-.3.48,4.74,4.74,0,0,0-.25.67Q12.58,5.39,12.5,5.74Z"/><path d="M17.37,2l.13,0,.06,0s0,.07,0,.15a.65.65,0,0,1,0,.23.54.54,0,0,1-.12.19.39.39,0,0,1-.28.07h-.42l-.42,0L16,3.88q-.15.55-.26,1t-.18.78q-.08.36-.14.71T15.27,7l-.08.49a1.15,1.15,0,0,0,0,.23.3.3,0,0,0,0,.1l0,.07,0,.08a.12.12,0,0,1,0,.1.17.17,0,0,1-.08.08l-.14,0h-.19l-.23,0-.18,0-.11-.06A.24.24,0,0,1,14.29,8a.6.6,0,0,1,0-.21,1.86,1.86,0,0,1,0-.26l.06-.26q.3-1.34.59-2.41t.53-1.91,0-.08h-.1l-.13,0-.16,0a.23.23,0,0,1-.17,0,.15.15,0,0,1-.07-.15.22.22,0,0,1,0-.15A.51.51,0,0,1,15,2.48l.29-.11.36-.11q.21-.66.35-1.09l.19-.54L16.27.5l0-.06.07,0a.19.19,0,0,1,.13,0,1,1,0,0,1,.18.13.51.51,0,0,1,.13.16.37.37,0,0,1,0,.12.93.93,0,0,1-.05.23l-.14.45-.17.54L17,2Z"/><path d="M17,7.75a.23.23,0,0,0,0,.07l0,.06,0,.07a.65.65,0,0,1,0,.14.21.21,0,0,1-.08.16.25.25,0,0,1-.18.05l-.24,0-.2,0a.19.19,0,0,1-.1-.06.22.22,0,0,1,0-.09.48.48,0,0,1,0-.08s0-.1,0-.23,0-.33.1-.58.1-.51.15-.76.11-.5.16-.75L16.79,5l.14-.59L17,4l0-.14a.33.33,0,0,1,0-.09l.08-.07a.15.15,0,0,1,.11,0l.18.06.2.1a.21.21,0,0,1,.1.12.36.36,0,0,1,0,.18q-.33,1.36-.51,2.25T17,7.75Zm1.25-6a.63.63,0,0,1,.07.19,1,1,0,0,1,0,.25,1.26,1.26,0,0,1,0,.27.77.77,0,0,1-.11.25.57.57,0,0,1-.19.18.53.53,0,0,1-.27.07.69.69,0,0,1-.26,0,.5.5,0,0,1-.17-.11.51.51,0,0,1-.1-.15l0-.13a.36.36,0,0,1,0-.09.39.39,0,0,1,0-.08.3.3,0,0,1,0-.08.14.14,0,0,1,.06-.06l.11,0,.07,0a.08.08,0,0,0,0,0,.5.5,0,0,1,.09-.35.45.45,0,0,1,.24-.16.48.48,0,0,1,.28,0A.38.38,0,0,1,18.24,1.77Z"/><path d="M20.11,7.51l.11,0,.08.07a.2.2,0,0,1,0,.13,1.08,1.08,0,0,1,0,.14V8l0,0-.06,0H20.1l-.25,0h-.48a4.27,4.27,0,0,0-.59.06,3.13,3.13,0,0,0-.48.11.32.32,0,0,1-.29,0A.56.56,0,0,1,17.85,8a.85.85,0,0,1-.08-.32.92.92,0,0,1,.07-.39,5.52,5.52,0,0,1,.28-.57q.2-.37.49-.81a10.9,10.9,0,0,1,.67-.9,8.85,8.85,0,0,1,.79-.84s0,0,0,0h0l-.22,0-.53.09-.43.09-.12,0,0,0,0,0,0,.08a.12.12,0,0,1,0,.06l-.1,0a.15.15,0,0,1-.15-.09.7.7,0,0,1-.07-.2,1.25,1.25,0,0,1,0-.2,1.59,1.59,0,0,1,0-.17q0-.08,0-.15a.15.15,0,0,1,.08-.11,2.17,2.17,0,0,1,.44-.11,6,6,0,0,1,.89-.09h.67l.22,0,.12,0a.26.26,0,0,1,.1.09.25.25,0,0,1,0,.11,1.16,1.16,0,0,1,0,.13.38.38,0,0,1,0,.14l-.06.12-.12.15-.23.27-.33.4-.38.51q-.2.28-.4.58T19,6.6a5,5,0,0,0-.25.51.85.85,0,0,0-.07.21s0,0,.13,0l.53,0Q19.74,7.44,20.11,7.51Z"/><path d="M21.61,6s0,0,0,0a.11.11,0,0,0,0,0q-.05.3-.08.55a3.67,3.67,0,0,0,0,.38q0,.13,0,.28a2.31,2.31,0,0,0,0,.31,1.28,1.28,0,0,0,.07.26q0,.11.13.11s.09,0,.14-.1a1.19,1.19,0,0,0,.11-.18,2.1,2.1,0,0,0,.08-.2q0-.12.07-.25a.26.26,0,0,1,.08-.16.14.14,0,0,1,.11,0l.12,0,.13,0,.13.06.11.07a.16.16,0,0,1,.06.11.36.36,0,0,1-.08.21,1.93,1.93,0,0,1-.25.31,1.55,1.55,0,0,1-.28.25,1.19,1.19,0,0,1-.27.13,1.07,1.07,0,0,1-.33,0,.82.82,0,0,1-.41-.1,1,1,0,0,1-.31-.28,1.28,1.28,0,0,1-.2-.41,1.63,1.63,0,0,1-.07-.44q0-.21,0-.44t0-.52q0-.28.11-.6A5.56,5.56,0,0,1,21,4.88a3.52,3.52,0,0,1,.27-.59,2.24,2.24,0,0,1,.38-.5,1.74,1.74,0,0,1,.51-.34,1.57,1.57,0,0,1,.65-.13.64.64,0,0,1,.41.13.83.83,0,0,1,.25.34,1.41,1.41,0,0,1,.1.48,2.43,2.43,0,0,1,0,.55,2.52,2.52,0,0,1-.17.55,2,2,0,0,1-.3.48,1.43,1.43,0,0,1-.42.34,1.1,1.1,0,0,1-.53.13h-.16a.4.4,0,0,1-.23-.11A.5.5,0,0,1,21.61,6Zm0-.3a.25.25,0,0,0,0,.07.09.09,0,0,0,0,.08l.09,0h.09a.41.41,0,0,0,.3-.17,2,2,0,0,0,.28-.42,4.07,4.07,0,0,0,.23-.54,4.29,4.29,0,0,0,.15-.54,1.45,1.45,0,0,0,0-.42q0-.17-.12-.17a.46.46,0,0,0-.35.19,2.17,2.17,0,0,0-.3.48,4.74,4.74,0,0,0-.25.67Q21.7,5.39,21.63,5.74Z"/><path d="M26.14,3.78q0,.09,0,.15s0,.08,0,.13a.68.68,0,0,1,0,.16q0,.08-.15.1a.5.5,0,0,1-.22,0l-.15-.05-.09,0s-.08,0-.15.09a1.41,1.41,0,0,0-.23.28,3.43,3.43,0,0,0-.22.39,4.34,4.34,0,0,0-.18.41q-.08.21-.14.43t-.14.59q-.07.37-.13.72t-.1.65l-.06.39a.23.23,0,0,1-.06.13L24,8.37l-.11,0h-.11l-.18,0-.17-.06a.15.15,0,0,1-.07-.05l0-.06a.2.2,0,0,1,0-.07l0-.17q0-.14.1-.52l.17-.81.19-.89L24,4.85l.17-.74.11-.48a.38.38,0,0,1,.08-.19.13.13,0,0,1,.1,0l.11,0,.13.05.13.07.11.07a.21.21,0,0,1,.07.07.24.24,0,0,1,0,.08.26.26,0,0,1,0,.06l0,.1,0,.13a.23.23,0,0,0,0,.07h0l0-.06a2,2,0,0,1,.35-.44l.25-.2.12-.06.11,0,.11,0a.18.18,0,0,1,.08.13,1.57,1.57,0,0,1,0,.16Z"/><path d="M28.54,3.49a2.26,2.26,0,0,1,0,.36,1.26,1.26,0,0,1-.07.33.89.89,0,0,1-.08.17l-.08.07a.26.26,0,0,1-.14,0,.16.16,0,0,1-.12,0,.29.29,0,0,1,0-.08.28.28,0,0,0,0-.08s-.06,0-.14,0l-.27,0a1.63,1.63,0,0,0-.3.12,1.69,1.69,0,0,0-.3.2,1,1,0,0,0-.22.23q-.07.11-.06.14l.05,0,.17,0a1.52,1.52,0,0,1,.33.08.83.83,0,0,1,.35.25,1.18,1.18,0,0,1,.23.5,1.77,1.77,0,0,1,0,.69,2.85,2.85,0,0,1-.17.65,2,2,0,0,1-.31.51,1.67,1.67,0,0,1-.48.39,1.37,1.37,0,0,1-.67.16.65.65,0,0,1-.5-.17.8.8,0,0,1-.21-.42,1.74,1.74,0,0,1,0-.53q0-.28.06-.39a.28.28,0,0,1,.07-.15.23.23,0,0,1,.1-.05h.11a1.18,1.18,0,0,1,0-.14l0-.1s.05,0,.11,0l.16,0,.13,0a.12.12,0,0,1,.07.05.17.17,0,0,1,0,.06.33.33,0,0,1,0,.06l0,.11L26.24,7a3.87,3.87,0,0,0-.1.46,1.34,1.34,0,0,0,0,.38q0,.16.15.16a.3.3,0,0,0,.2-.08.76.76,0,0,0,.16-.2,1.78,1.78,0,0,0,.13-.29q.06-.16.1-.32T27,6.76q0-.16,0-.29a1.6,1.6,0,0,0,0-.33,1,1,0,0,0-.11-.38.93.93,0,0,0-.29-.33,1.27,1.27,0,0,0-.54-.2.23.23,0,0,1-.13-.08.26.26,0,0,1,0-.12.37.37,0,0,1,0-.12,1.18,1.18,0,0,1,.05-.17,2.44,2.44,0,0,1,.19-.35,1.91,1.91,0,0,1,.41-.47,2.6,2.6,0,0,1,.66-.39,3,3,0,0,1,.9-.22h.17l.11,0,.1.05A.14.14,0,0,1,28.54,3.49Z"/><path d="M33.76,3.71l.09.11a.14.14,0,0,1,0,.15q-.3.63-.5,1.16t-.31,1a6.86,6.86,0,0,0-.16.78q0,.34-.06.59a.36.36,0,0,0,0,.15.16.16,0,0,0,.06.07l.07,0,.07,0a.09.09,0,0,1,0,.07.44.44,0,0,1,0,.14.21.21,0,0,1-.1.14l-.17.08-.23.06-.26,0c-.08,0-.13,0-.15-.07a.47.47,0,0,1,0-.11s0-.05,0-.08,0-.06,0-.1,0,0,0,0L32,8a1.56,1.56,0,0,1-.29.18,1,1,0,0,1-.47.11.76.76,0,0,1-.36-.08A.85.85,0,0,1,30.57,8a1.1,1.1,0,0,1-.17-.29,1.88,1.88,0,0,1-.1-.32,2.5,2.5,0,0,1,0-.29q0-.13,0-.26t0-.46a5.67,5.67,0,0,1,.12-.72,6,6,0,0,1,.25-.8,3,3,0,0,1,.41-.74,2.13,2.13,0,0,1,.61-.54,1.64,1.64,0,0,1,.85-.21.56.56,0,0,1,.36.1.64.64,0,0,1,.19.24.8.8,0,0,1,.13-.19s.11,0,.23,0A.88.88,0,0,1,33.76,3.71ZM31.31,7.92q.17,0,.32-.25A3.6,3.6,0,0,0,31.93,7c.09-.26.19-.54.27-.84l.22-.76L32.58,5l.11-.32h-.16a.13.13,0,0,1-.08,0,.11.11,0,0,1,0-.06.22.22,0,0,1,0-.06.43.43,0,0,1,0-.09l.05-.18A2,2,0,0,0,32.54,4a.55.55,0,0,0,0-.2.09.09,0,0,0-.09-.08.38.38,0,0,0-.2.12,2.14,2.14,0,0,0-.29.33,4.55,4.55,0,0,0-.32.52,4.77,4.77,0,0,0-.3.69,5.73,5.73,0,0,0-.22.83,5.08,5.08,0,0,0-.08.95,1.54,1.54,0,0,0,.09.59Q31.21,7.92,31.31,7.92Z"/><path d="M36.24,7.7q0,.12,0,.13l.08,0,.07,0s0,.07,0,.15a.31.31,0,0,1-.08.21.46.46,0,0,1-.18.12l-.17,0h-.28a.34.34,0,0,1-.19-.12.68.68,0,0,1-.16-.25.9.9,0,0,1-.06-.27q0-.13,0-.41t.08-.78q.07-.49.15-.93t.16-.79q.08-.36.12-.62a1.9,1.9,0,0,0,0-.4q0-.14-.1-.14a.39.39,0,0,0-.28.13,1.65,1.65,0,0,0-.25.35,3.75,3.75,0,0,0-.23.48q-.11.26-.19.53t-.15.51l-.1.37,0,.21,0,.22-.06.33-.06.38-.06.37,0,.3,0,.18a.12.12,0,0,1,0,.08l-.08,0h-.25l-.16,0q-.08,0-.09-.07a.36.36,0,0,1,0-.1.93.93,0,0,1,0-.13,2,2,0,0,1,.06-.21.17.17,0,0,1-.15-.23q.17-.76.34-1.47l.28-1.15q.11-.44.12-.59a2.24,2.24,0,0,0,0-.31,1.32,1.32,0,0,1,0-.3.46.46,0,0,1,.08-.2.25.25,0,0,1,.11-.08h.13l.23.06a.79.79,0,0,1,.2.1.27.27,0,0,1,.1.12.32.32,0,0,1,0,.18.66.66,0,0,0,0,.13h0l.08-.11a1.25,1.25,0,0,1,.16-.2.91.91,0,0,1,.18-.14l.16-.06h.12a.9.9,0,0,1,.58.15.68.68,0,0,1,.23.43,2.19,2.19,0,0,1,0,.67q-.06.39-.15.88t-.17,1A7.39,7.39,0,0,0,36.24,7.7Z"/><path d="M40.81.93q-.15.64-.29,1.16l-.28,1.08q-.15.56-.29,1.15t-.25,1.14Q39.58,6,39.5,6.5a7,7,0,0,0-.08.76q0,.26,0,.28l.1,0,.09,0s0,.07,0,.14a.38.38,0,0,1-.06.17l-.1.11-.12.08-.18.08L39,8.28a.38.38,0,0,1-.17,0,.22.22,0,0,1-.09-.05.21.21,0,0,1,0-.07l0-.09a1.45,1.45,0,0,1,0-.16,2,2,0,0,1,0-.21.32.32,0,0,0,0-.11h0l-.06.1-.13.22a1.14,1.14,0,0,1-.18.23.84.84,0,0,1-.22.15.61.61,0,0,1-.26.06.76.76,0,0,1-.56-.21,1.3,1.3,0,0,1-.32-.56,2.74,2.74,0,0,1-.11-.79,4.71,4.71,0,0,1,.09-.91A4.9,4.9,0,0,1,37.11,5a3.72,3.72,0,0,1,.44-.79,2.28,2.28,0,0,1,.58-.56,1.25,1.25,0,0,1,.7-.21.66.66,0,0,1,.46.17q.17-.7.38-1.53T40,.69l.16-.54,0-.07L40.31,0a.14.14,0,0,1,.12,0l.13.05a.15.15,0,0,1,.08.11.49.49,0,0,1,0,.19q0,.11,0,.18a.65.65,0,0,0,0,.09,0,0,0,0,0,0,0h0l0,0s0,0,.07,0l.07.06a.22.22,0,0,1,0,.08A.43.43,0,0,1,40.81.93Zm-2.3,5q0-.12.08-.33t.1-.46q0-.25.09-.5t.06-.46a1.54,1.54,0,0,0,0-.33q0-.13-.09-.13t-.26.18a2.5,2.5,0,0,0-.26.49,6.32,6.32,0,0,0-.24.69q-.11.39-.2.79t-.14.79a6,6,0,0,0-.06.69,1.7,1.7,0,0,0,0,.49q.05.18.17.18T38,7.83a2.48,2.48,0,0,0,.25-.44,5.94,5.94,0,0,0,.24-.6q.11-.33.2-.65l-.13,0a.14.14,0,0,1-.09,0,.18.18,0,0,1,0-.07A.29.29,0,0,1,38.5,5.91Z"/><path d="M46.37.53a1.43,1.43,0,0,1,0,.23,1.21,1.21,0,0,1,0,.3,1.83,1.83,0,0,1-.09.28,1.29,1.29,0,0,1-.11.21.21.21,0,0,1-.17.1.42.42,0,0,1-.17,0,.24.24,0,0,1-.1-.07.33.33,0,0,1-.05-.09l0-.09a.17.17,0,0,0-.06-.06.42.42,0,0,0-.2,0,2.83,2.83,0,0,0-.41.09,2.43,2.43,0,0,0-.49.21A2,2,0,0,0,44,2a1.29,1.29,0,0,0-.28.36q-.07.16-.06.19s.12,0,.33.06a1.22,1.22,0,0,1,.64.26,1.47,1.47,0,0,1,.5.64,2.76,2.76,0,0,1,.19.93,6.34,6.34,0,0,1,0,1.08A4,4,0,0,1,45,6.55a4,4,0,0,1-.56.94,2.9,2.9,0,0,1-.75.67,1.66,1.66,0,0,1-.88.25.7.7,0,0,1-.39-.1A.78.78,0,0,1,42.17,8,1.47,1.47,0,0,1,42,7.62,3.2,3.2,0,0,1,42,7.1a5.44,5.44,0,0,1,0-.56q0-.29,0-.47a.49.49,0,0,1,.06-.23.22.22,0,0,1,.1-.07l.16,0a1.28,1.28,0,0,1,.06-.29.15.15,0,0,1,.14-.09h.41a.18.18,0,0,1,.14.1.29.29,0,0,1,0,.25q-.06.16-.13.42t-.12.53q-.05.26-.08.51a2.52,2.52,0,0,0,0,.44.79.79,0,0,0,.07.31.19.19,0,0,0,.18.11.6.6,0,0,0,.42-.25,2.7,2.7,0,0,0,.42-.68,6.29,6.29,0,0,0,.35-1A7.32,7.32,0,0,0,44.37,5a3.54,3.54,0,0,0,0-.85,2,2,0,0,0-.2-.63,1.47,1.47,0,0,0-.4-.49,1.14,1.14,0,0,0-.5-.25.9.9,0,0,1-.3-.09.24.24,0,0,1-.08-.09.17.17,0,0,1,0-.09A1.54,1.54,0,0,1,43,2.3a3.32,3.32,0,0,1,.33-.56,3,3,0,0,1,.63-.67,3.34,3.34,0,0,1,.92-.5,3.07,3.07,0,0,1,.93-.21,1.46,1.46,0,0,1,.48,0A.22.22,0,0,1,46.37.53Z"/><path d="M48.12.61a.21.21,0,0,1,0,.14,1.64,1.64,0,0,1-.07.21l-.21.6q-.15.45-.34,1t-.38,1.25q-.2.67-.36,1.35t-.31,1.34a7.37,7.37,0,0,0-.16,1q0,.32,0,.42a.91.91,0,0,1,0,.17.43.43,0,0,1-.07.14.23.23,0,0,1-.13.08.67.67,0,0,1-.22,0l-.21,0-.13,0a.19.19,0,0,1-.1-.06.28.28,0,0,1-.06-.08.29.29,0,0,1,0-.09,1,1,0,0,1,0-.13q0-.08,0-.35t.13-.67q.08-.41.23-1t.37-1.34q.23-.77.54-1.75T47.36.66t.07-.09l.06,0,0,0,.05,0,.09-.25a.11.11,0,0,1,.06-.06.15.15,0,0,1,.12,0l.13.1A.65.65,0,0,1,48.12.61Z"/><path d="M47.77,7.75a.23.23,0,0,0,0,.07l0,.06,0,.07a.65.65,0,0,1,0,.14.21.21,0,0,1-.08.16.25.25,0,0,1-.18.05l-.24,0-.2,0a.19.19,0,0,1-.1-.06.22.22,0,0,1,0-.09A.48.48,0,0,1,47,8s0-.1,0-.23,0-.33.1-.58.1-.51.15-.76.11-.5.16-.75L47.57,5l.14-.59L47.8,4l0-.14a.33.33,0,0,1,0-.09L48,3.71a.15.15,0,0,1,.11,0l.18.06.2.1a.21.21,0,0,1,.1.12.36.36,0,0,1,0,.18Q48.22,5.51,48,6.39T47.77,7.75Zm1.25-6a.63.63,0,0,1,.07.19,1,1,0,0,1,0,.25,1.26,1.26,0,0,1,0,.27.77.77,0,0,1-.11.25.57.57,0,0,1-.19.18.53.53,0,0,1-.27.07.69.69,0,0,1-.26,0,.5.5,0,0,1-.17-.11.51.51,0,0,1-.1-.15l0-.13a.36.36,0,0,1,0-.09.39.39,0,0,1,0-.08.3.3,0,0,1,0-.08A.14.14,0,0,1,48,2.23l.11,0,.07,0a.08.08,0,0,0,0,0,.5.5,0,0,1,.09-.35.45.45,0,0,1,.24-.16.48.48,0,0,1,.28,0A.38.38,0,0,1,49,1.77Z"/><path d="M50.9,3.32a.62.62,0,0,1,.35.09.65.65,0,0,1,.22.24,1,1,0,0,1,.11.33,1.63,1.63,0,0,1,0,.28q0,.1,0,.18a.14.14,0,0,1-.07.12.92.92,0,0,1-.24.06.94.94,0,0,1-.28,0,.3.3,0,0,1-.13,0l0-.05a.19.19,0,0,1,0-.1s0-.12,0-.21a2.27,2.27,0,0,0,0-.27.67.67,0,0,0,0-.22q0-.09-.1-.09s-.11,0-.2.12a2.39,2.39,0,0,0-.28.34,5,5,0,0,0-.31.52,5.19,5.19,0,0,0-.29.66,5.5,5.5,0,0,0-.21.77,3.62,3.62,0,0,0-.08.7q0,.29,0,.47a2.79,2.79,0,0,0,0,.34.89.89,0,0,0,.08.26.16.16,0,0,0,.14.1.2.2,0,0,0,.15-.1A1.16,1.16,0,0,0,50,7.58a3.39,3.39,0,0,0,.11-.34l.08-.3a.33.33,0,0,1,.06-.15.19.19,0,0,1,.15,0l.27.05a1,1,0,0,1,.23.08.16.16,0,0,1,.08.08.31.31,0,0,1,0,.14,2.3,2.3,0,0,1-.11.3,1.55,1.55,0,0,1-.23.38,1.34,1.34,0,0,1-.38.32,1.11,1.11,0,0,1-.56.13,1,1,0,0,1-.49-.11.86.86,0,0,1-.32-.29,1.31,1.31,0,0,1-.18-.45,2.41,2.41,0,0,1-.06-.51,5.94,5.94,0,0,1,0-.59,5.58,5.58,0,0,1,.13-.73A5.71,5.71,0,0,1,49,4.78a3,3,0,0,1,.42-.73,2.11,2.11,0,0,1,.61-.53A1.64,1.64,0,0,1,50.9,3.32Z"/><path d="M52.34,6s0,0,0,0a.11.11,0,0,0,0,0q-.05.3-.08.55a3.67,3.67,0,0,0,0,.38q0,.13,0,.28a2.31,2.31,0,0,0,0,.31,1.28,1.28,0,0,0,.07.26q0,.11.13.11s.09,0,.14-.1a1.19,1.19,0,0,0,.11-.18,2.1,2.1,0,0,0,.08-.2q0-.12.07-.25a.26.26,0,0,1,.08-.16A.14.14,0,0,1,53,7l.12,0,.13,0,.13.06.11.07a.16.16,0,0,1,.06.11.36.36,0,0,1-.08.21,1.93,1.93,0,0,1-.25.31,1.55,1.55,0,0,1-.28.25,1.19,1.19,0,0,1-.27.13,1.07,1.07,0,0,1-.33,0,.82.82,0,0,1-.41-.1,1,1,0,0,1-.31-.28,1.28,1.28,0,0,1-.2-.41,1.63,1.63,0,0,1-.07-.44q0-.21,0-.44t0-.52q0-.28.11-.6a5.56,5.56,0,0,1,.18-.63A3.52,3.52,0,0,1,52,4.29a2.24,2.24,0,0,1,.38-.5,1.74,1.74,0,0,1,.51-.34,1.57,1.57,0,0,1,.65-.13.64.64,0,0,1,.41.13.83.83,0,0,1,.25.34,1.41,1.41,0,0,1,.1.48,2.43,2.43,0,0,1,0,.55,2.52,2.52,0,0,1-.17.55,2,2,0,0,1-.3.48,1.43,1.43,0,0,1-.42.34,1.1,1.1,0,0,1-.53.13h-.16a.4.4,0,0,1-.23-.11A.5.5,0,0,1,52.34,6Zm0-.3a.25.25,0,0,0,0,.07.09.09,0,0,0,0,.08l.09,0h.09a.41.41,0,0,0,.3-.17,2,2,0,0,0,.28-.42,4.07,4.07,0,0,0,.23-.54,4.29,4.29,0,0,0,.15-.54,1.45,1.45,0,0,0,0-.42q0-.17-.12-.17a.46.46,0,0,0-.35.19,2.17,2.17,0,0,0-.3.48,4.74,4.74,0,0,0-.25.67Q52.43,5.39,52.35,5.74Z"/><path d="M57.07,3.49a2.26,2.26,0,0,1,0,.36,1.26,1.26,0,0,1-.07.33.89.89,0,0,1-.08.17l-.08.07a.26.26,0,0,1-.14,0,.16.16,0,0,1-.12,0,.29.29,0,0,1,0-.08.28.28,0,0,0,0-.08s-.06,0-.14,0l-.27,0a1.63,1.63,0,0,0-.3.12,1.69,1.69,0,0,0-.3.2,1,1,0,0,0-.22.23q-.07.11-.06.14l.05,0,.17,0a1.52,1.52,0,0,1,.33.08.83.83,0,0,1,.35.25,1.18,1.18,0,0,1,.23.5,1.77,1.77,0,0,1,0,.69,2.85,2.85,0,0,1-.17.65,2,2,0,0,1-.31.51,1.67,1.67,0,0,1-.48.39,1.37,1.37,0,0,1-.67.16.65.65,0,0,1-.5-.17A.8.8,0,0,1,54,7.69a1.74,1.74,0,0,1,0-.53q0-.28.06-.39a.28.28,0,0,1,.07-.15.23.23,0,0,1,.1-.05h.11a1.18,1.18,0,0,1,0-.14l0-.1s.05,0,.11,0l.16,0,.13,0a.12.12,0,0,1,.07.05.17.17,0,0,1,0,.06.33.33,0,0,1,0,.06l0,.11L54.77,7a3.87,3.87,0,0,0-.1.46,1.34,1.34,0,0,0,0,.38q0,.16.15.16a.3.3,0,0,0,.2-.08.76.76,0,0,0,.16-.2,1.78,1.78,0,0,0,.13-.29q.06-.16.1-.32t.08-.32q0-.16,0-.29a1.6,1.6,0,0,0,0-.33,1,1,0,0,0-.11-.38.93.93,0,0,0-.29-.33,1.27,1.27,0,0,0-.54-.2.23.23,0,0,1-.13-.08.26.26,0,0,1,0-.12.37.37,0,0,1,0-.12,1.18,1.18,0,0,1,.05-.17,2.44,2.44,0,0,1,.19-.35,1.91,1.91,0,0,1,.41-.47,2.6,2.6,0,0,1,.66-.39,3,3,0,0,1,.9-.22h.17l.11,0,.1.05A.14.14,0,0,1,57.07,3.49Z"/></svg>