<svg id="Layer_1" data-name="Layer 1" xmlns="http://www.w3.org/2000/svg" viewBox="0 0 89.38 8.68"><defs><style>.cls-1{fill:#231f20;}</style></defs><title>header3</title><path class="cls-1" d="M3.84.71q-.23.73-.45,1.45T3,3.57q-.19.69-.35,1.32L2.34,6.07l-.23,1q-.1.45-.17.75h.72l.18,0a.1.1,0,0,1,.07.09.52.52,0,0,1,0,.16.66.66,0,0,1-.05.17.23.23,0,0,1-.08.11l-.08,0H1.34l-.61,0-.49,0C.1,8.5,0,8.48,0,8.43a.59.59,0,0,1,0-.12.78.78,0,0,1,0-.14.16.16,0,0,1,.06-.11L.23,8l.31-.07L1,7.86q.19-.82.39-1.61t.4-1.49q.2-.7.38-1.29l.31-1,.2-.63.09-.28-.33.18-.28.18A.73.73,0,0,0,2,2l-.09.11-.09.09a.4.4,0,0,1-.14.06.34.34,0,0,1-.2,0l-.16-.07-.12-.1A.53.53,0,0,1,1,1.94a.32.32,0,0,1,0-.16.26.26,0,0,1,0-.08l.06-.06.17-.12.45-.27L2.35.9,3,.6,3.37.4l.2-.08a.32.32,0,0,1,.16,0,.17.17,0,0,1,.13.1A.45.45,0,0,1,3.84.71Z"/><path class="cls-1" d="M6.64.34a.65.65,0,0,1,.51.23,1.57,1.57,0,0,1,.31.63,4,4,0,0,1,.13.93,8,8,0,0,1,0,1.13,11.13,11.13,0,0,1-.21,1.22A10.9,10.9,0,0,1,7,5.7a8.88,8.88,0,0,1-.48,1.12,5.08,5.08,0,0,1-.6.93,2.93,2.93,0,0,1-.7.63,1.47,1.47,0,0,1-.79.23A1,1,0,0,1,3.6,8.2,2.1,2.1,0,0,1,3.25,7a6.08,6.08,0,0,1,.22-1.77A11.6,11.6,0,0,1,4.34,3l-.1,0-.1,0a.15.15,0,0,1-.08-.07.2.2,0,0,1,0-.1.49.49,0,0,1,0-.11.56.56,0,0,1,0-.11,6.78,6.78,0,0,1,.64-1.05A3.69,3.69,0,0,1,5.39.8,2.06,2.06,0,0,1,6,.44,2,2,0,0,1,6.64.34ZM4.51,8.24A.48.48,0,0,0,4.83,8a3.35,3.35,0,0,0,.37-.57,8.92,8.92,0,0,0,.39-.84q.2-.48.38-1t.35-1.11q.16-.57.28-1.11t.19-1a5.81,5.81,0,0,0,.06-.84A1.65,1.65,0,0,0,6.77.95.28.28,0,0,0,6.5.74a.49.49,0,0,0-.2,0A.92.92,0,0,0,6.07,1a2.46,2.46,0,0,0-.27.3,4,4,0,0,0-.3.47l.07.06.1.11a.23.23,0,0,1,0,.19,1.24,1.24,0,0,1-.16.37,9.11,9.11,0,0,0-.42.84q-.2.45-.38.93t-.31,1q-.14.48-.23.93A7.65,7.65,0,0,0,4.07,7a3.34,3.34,0,0,0,0,.67,1.05,1.05,0,0,0,.14.45A.34.34,0,0,0,4.51,8.24Z"/><path class="cls-1" d="M8.5.23a.47.47,0,0,1,.22.09.28.28,0,0,1,.09.15.53.53,0,0,1,0,.21,2.42,2.42,0,0,1-.06.26q0,.14-.11.31a1.79,1.79,0,0,1-.16.32.89.89,0,0,1-.2.23A.28.28,0,0,1,8,1.86.08.08,0,0,1,8,1.78.65.65,0,0,1,8,1.6l.09-.25a1.74,1.74,0,0,0,.07-.27.56.56,0,0,0,0-.24q0-.11-.07-.22T8,.42A.21.21,0,0,1,8,.28.16.16,0,0,1,8.18.2,1.1,1.1,0,0,1,8.5.23Zm.8.08a1.08,1.08,0,0,1,.28.1.32.32,0,0,1,.14.13.37.37,0,0,1,0,.18,1.49,1.49,0,0,1,0,.24,2.23,2.23,0,0,1-.09.3,1.59,1.59,0,0,1-.16.32.94.94,0,0,1-.23.24.39.39,0,0,1-.28.08q-.13,0-.15-.07a.2.2,0,0,1,0-.15L9,1.46a1.15,1.15,0,0,0,.12-.26.57.57,0,0,0,0-.23,2,2,0,0,0,0-.21l0-.2A.4.4,0,0,1,9,.4.12.12,0,0,1,9.09.31.4.4,0,0,1,9.3.31Z"/><path class="cls-1" d="M14,0a.55.55,0,0,1,.38.13.82.82,0,0,1,.22.34,1.8,1.8,0,0,1,.1.47,3.87,3.87,0,0,1,0,.52q0,.26,0,.5l-.06.35a.4.4,0,0,1-.09.2.25.25,0,0,1-.18.09h-.25l-.23-.06a.27.27,0,0,1-.13-.08.21.21,0,0,1,0-.08.39.39,0,0,1,0-.14l.08-.29.11-.4q.06-.21.1-.42a3.29,3.29,0,0,0,.06-.38,1,1,0,0,0,0-.27q0-.11-.1-.11t-.3.22a4.48,4.48,0,0,0-.39.59q-.21.38-.45.88t-.46,1.07q-.23.57-.44,1.16t-.38,1.16q-.17.57-.28,1.07a6.09,6.09,0,0,0-.14.88,1.63,1.63,0,0,0,0,.59.27.27,0,0,0,.26.22.53.53,0,0,0,.33-.12,1.41,1.41,0,0,0,.29-.32,2.85,2.85,0,0,0,.25-.46q.11-.25.21-.52c.06-.18.12-.35.17-.52l.11-.4q0-.14,0-.16s-.05,0-.12,0l-.22.08-.17.07-.07,0h-.06l-.06,0a.13.13,0,0,1,0-.07l0-.11a1.28,1.28,0,0,1,0-.17q0-.11.25-.21a.06.06,0,0,0,0,0s0-.06,0-.11.06-.1.17-.16a1.86,1.86,0,0,1,.41-.13,2.93,2.93,0,0,1,.46-.06,2.28,2.28,0,0,1,.38,0l.23,0,.11,0a.17.17,0,0,1,.06.14q0,.11,0,.22a1.08,1.08,0,0,1,0,.23.13.13,0,0,1-.14.12h-.13l0,0a.72.72,0,0,0-.06.17q0,.15-.14.47a5.41,5.41,0,0,1-.25.64A5.24,5.24,0,0,1,13,7.5,3,3,0,0,1,12.6,8a2,2,0,0,1-.53.37,1.45,1.45,0,0,1-.63.14.87.87,0,0,1-.65-.24,1.32,1.32,0,0,1-.33-.65,3.34,3.34,0,0,1-.06-1,7.93,7.93,0,0,1,.17-1.16,11.54,11.54,0,0,1,.35-1.26A13.46,13.46,0,0,1,11.42,3,12.44,12.44,0,0,1,12,1.84a7.51,7.51,0,0,1,.66-1,3.61,3.61,0,0,1,.67-.65A1.11,1.11,0,0,1,14,0Z"/><path class="cls-1" d="M16.85.83a.21.21,0,0,1,0,.14,1.64,1.64,0,0,1-.07.21l-.21.6q-.15.45-.34,1t-.38,1.25q-.2.67-.36,1.35t-.31,1.35a7.37,7.37,0,0,0-.16,1q0,.32,0,.42a.9.9,0,0,1,0,.17.44.44,0,0,1-.07.14.23.23,0,0,1-.13.08.67.67,0,0,1-.22,0l-.21,0-.13,0a.19.19,0,0,1-.1-.05.28.28,0,0,1-.06-.09.29.29,0,0,1,0-.09,1,1,0,0,1,0-.13c0-.06,0-.17,0-.35s.07-.4.13-.67.13-.6.23-1,.22-.83.37-1.34.33-1.1.54-1.75.45-1.39.72-2.19q0-.1.07-.09l.06,0,0,0,.05,0,.09-.25a.11.11,0,0,1,.06-.06.15.15,0,0,1,.12,0l.13.1A.65.65,0,0,1,16.85.83Z"/><path class="cls-1" d="M18.94,4a1.09,1.09,0,0,1,0,.21q0,.16-.12.56t-.16.95c-.05.36-.1.75-.14,1.18s-.06.87-.07,1.33a.21.21,0,0,1-.06.16l-.09,0h-.5l-.06,0a.1.1,0,0,1,0-.05.29.29,0,0,1,0-.06s0,0,0-.08V8s0-.06,0-.06h0l0,0a1.67,1.67,0,0,1-.41.41.83.83,0,0,1-.47.15.91.91,0,0,1-.58-.18,1,1,0,0,1-.32-.47,2.23,2.23,0,0,1-.11-.68,5.37,5.37,0,0,1,0-.8,8.43,8.43,0,0,1,.15-.84q.1-.42.2-.78t.2-.64q.09-.28.13-.36a.35.35,0,0,1,.08-.12.13.13,0,0,1,.12,0l.15,0,.15.08.13.09.09.1.06.11a.36.36,0,0,1,0,.14.51.51,0,0,1,0,.16.61.61,0,0,1-.1.18l-.07.07,0,0,0,0a1.71,1.71,0,0,0-.08.23q-.06.21-.18.64t-.18.83c0,.26-.08.51-.1.73a3.41,3.41,0,0,0,0,.58,1,1,0,0,0,.09.38.21.21,0,0,0,.19.13q.11,0,.22-.15a2.17,2.17,0,0,0,.23-.41c.08-.17.15-.37.23-.59s.15-.46.22-.7.14-.49.2-.74L18,4.88l.13-.6.08-.36a1,1,0,0,1,0-.12l0-.06.06,0a.19.19,0,0,1,.11,0l.2,0,.22.09A.16.16,0,0,1,18.94,4Z"/><path class="cls-1" d="M22,2.2l.13,0,.06,0s0,.07,0,.15a.65.65,0,0,1,0,.23.54.54,0,0,1-.12.19.39.39,0,0,1-.28.07h-.42l-.42,0-.33,1.16q-.15.55-.26,1t-.18.78q-.08.36-.14.71t-.12.67l-.08.49a1.16,1.16,0,0,0,0,.23.3.3,0,0,0,0,.1l0,.07,0,.08a.12.12,0,0,1,0,.1.17.17,0,0,1-.08.08.38.38,0,0,1-.14,0H19.5l-.23,0-.18,0L19,8.31a.24.24,0,0,1-.08-.13.6.6,0,0,1,0-.21,1.87,1.87,0,0,1,0-.26L19,7.45q.3-1.34.59-2.41t.53-1.91,0-.08H20l-.13,0-.16,0a.23.23,0,0,1-.17,0,.15.15,0,0,1-.07-.15.22.22,0,0,1,0-.15.51.51,0,0,1,.15-.09l.29-.11.36-.11q.21-.66.35-1.09l.19-.54.05-.13,0-.06.07,0a.19.19,0,0,1,.13,0,1,1,0,0,1,.18.13.51.51,0,0,1,.13.16.37.37,0,0,1,0,.12.93.93,0,0,1-.05.23l-.14.45-.17.54.5-.06Z"/><path class="cls-1" d="M21.69,6.25s0,0,0,0a.12.12,0,0,0,0,.05c0,.2-.06.38-.08.55a3.67,3.67,0,0,0,0,.38q0,.13,0,.28a2.33,2.33,0,0,0,0,.31,1.27,1.27,0,0,0,.07.26c0,.07.07.11.13.11s.09,0,.14-.1A1.19,1.19,0,0,0,22,7.88a2.13,2.13,0,0,0,.08-.2c0-.08.05-.16.07-.25a.26.26,0,0,1,.08-.16.14.14,0,0,1,.11,0l.12,0,.13,0,.13.06.11.07a.16.16,0,0,1,.06.11.36.36,0,0,1-.08.21,1.93,1.93,0,0,1-.25.31,1.55,1.55,0,0,1-.28.25,1.2,1.2,0,0,1-.27.13,1.07,1.07,0,0,1-.33,0,.82.82,0,0,1-.41-.1A1,1,0,0,1,21,8.13a1.29,1.29,0,0,1-.2-.41,1.62,1.62,0,0,1-.07-.44c0-.14,0-.28,0-.44s0-.33,0-.52.06-.39.11-.6a5.56,5.56,0,0,1,.18-.63,3.52,3.52,0,0,1,.27-.59,2.24,2.24,0,0,1,.38-.5,1.74,1.74,0,0,1,.51-.34,1.57,1.57,0,0,1,.65-.13.64.64,0,0,1,.41.13.83.83,0,0,1,.25.34,1.41,1.41,0,0,1,.1.48,2.43,2.43,0,0,1,0,.55,2.52,2.52,0,0,1-.17.55,2,2,0,0,1-.3.48,1.43,1.43,0,0,1-.42.34,1.1,1.1,0,0,1-.53.13H22a.4.4,0,0,1-.23-.11A.5.5,0,0,1,21.69,6.25Zm0-.3a.25.25,0,0,0,0,.07.09.09,0,0,0,0,.08l.09,0,.09,0a.41.41,0,0,0,.3-.17,2,2,0,0,0,.28-.42A4.07,4.07,0,0,0,22.74,5a4.29,4.29,0,0,0,.15-.54,1.45,1.45,0,0,0,0-.42q0-.17-.12-.17a.46.46,0,0,0-.35.19,2.17,2.17,0,0,0-.3.48,4.74,4.74,0,0,0-.25.67Q21.79,5.6,21.71,6Z"/><path class="cls-1" d="M26.09,7.92q0,.12,0,.13l.08,0,.07,0s0,.07,0,.15a.31.31,0,0,1-.08.21.46.46,0,0,1-.18.12l-.17,0h-.28a.34.34,0,0,1-.19-.12.68.68,0,0,1-.16-.25A.9.9,0,0,1,25.21,8c0-.09,0-.22,0-.41s0-.45.08-.78.1-.64.15-.93.11-.55.16-.79.09-.45.12-.62a1.9,1.9,0,0,0,0-.4q0-.14-.1-.14a.39.39,0,0,0-.28.13,1.65,1.65,0,0,0-.25.35,3.75,3.75,0,0,0-.23.48q-.11.26-.19.53t-.15.51l-.1.37,0,.21,0,.22L24.31,7l-.06.38-.06.37,0,.29,0,.18a.12.12,0,0,1,0,.08l-.08,0h-.11l-.14,0-.16,0c-.05,0-.09,0-.09-.07a.36.36,0,0,1,0-.1.93.93,0,0,1,0-.13,2,2,0,0,1,.06-.21.17.17,0,0,1-.15-.23q.17-.76.34-1.47L24,5q.11-.44.12-.59a2.24,2.24,0,0,0,0-.31,1.32,1.32,0,0,1,0-.3.46.46,0,0,1,.08-.2.25.25,0,0,1,.11-.08h.13l.23.06a.79.79,0,0,1,.2.1.27.27,0,0,1,.1.12A.32.32,0,0,1,25,4a.66.66,0,0,0,0,.13h0L25.09,4a1.25,1.25,0,0,1,.16-.2.91.91,0,0,1,.18-.14l.16-.06h.12a.9.9,0,0,1,.58.15.68.68,0,0,1,.23.43,2.19,2.19,0,0,1,0,.67q-.06.39-.15.88c-.06.32-.12.67-.17,1A7.39,7.39,0,0,0,26.09,7.92Z"/><path class="cls-1" d="M28.39,6.26a14.13,14.13,0,0,1-1.68,0s0-.09,0-.19a1,1,0,0,1,.12-.25A.29.29,0,0,1,27,5.65l.37,0,.52,0,.5,0h.33q.1,0,.1.12a.79.79,0,0,1,0,.25,1,1,0,0,1-.11.25A.33.33,0,0,1,28.39,6.26Z"/><path class="cls-1" d="M33.71.46a1.29,1.29,0,0,1,0,.21q0,.08,0,.18a1.41,1.41,0,0,1,0,.2,1.07,1.07,0,0,1,0,.18.33.33,0,0,1-.06.12.1.1,0,0,1-.11,0,.21.21,0,0,1-.11-.06l-.06-.08a.2.2,0,0,0-.07-.07.7.7,0,0,0-.27,0l-.62,0-.6.06-.22,0s0,0,0,.06l.07.08a.21.21,0,0,1,0,.09,1.44,1.44,0,0,1-.09.39l-.25.85-.22.77-.07.27a.06.06,0,0,0,0,0l0,0h.17l.36,0H32a.37.37,0,0,1,.16,0,.12.12,0,0,1,.07.11q0,.08,0,.13s0,.06,0,.08v.08a.09.09,0,0,1,0,.06l-.11,0h-.2a.31.31,0,0,1,0,.11.26.26,0,0,1-.1.08.41.41,0,0,1-.21,0H30.9q-.21.77-.37,1.41t-.28,1.14a3.56,3.56,0,0,1-.2.59,3,3,0,0,1-.25.47.92.92,0,0,1-.27.28.43.43,0,0,1-.19.08l-.09,0-.06,0a.31.31,0,0,1-.05-.09,1,1,0,0,1,0-.22,2.64,2.64,0,0,1,0-.31q0-.16,0-.32a1.9,1.9,0,0,1,0-.26.3.3,0,0,1,.05-.14.06.06,0,0,1,.07,0,.18.18,0,0,1,.07.06l.06.1q.17-.71.34-1.38T30,4.62l-.07,0h-.17l-.07,0a.37.37,0,0,1-.05-.11.72.72,0,0,1,0-.17.13.13,0,0,1,0-.12l.08,0,.1,0,.15,0,.2-.05q.25-.88.46-1.54l.27-.85q.06-.19,0-.21a.36.36,0,0,0-.16,0,1.86,1.86,0,0,0-.31.12.72.72,0,0,0-.27.19.28.28,0,0,0-.06.24.43.43,0,0,0,.14.23l.14.14a.13.13,0,0,1,0,.1.37.37,0,0,1-.06.14.44.44,0,0,1-.11.11.13.13,0,0,1-.11,0l-.13-.06-.22-.17a1.91,1.91,0,0,1-.28-.27,1.06,1.06,0,0,1-.19-.33.5.5,0,0,1,0-.36.93.93,0,0,1,.31-.37,2.58,2.58,0,0,1,.71-.35A8.66,8.66,0,0,1,31.64.53Q32.39.39,33,.34a3.29,3.29,0,0,1,.64,0S33.69.38,33.71.46Z"/><path class="cls-1" d="M34.53,4q0,.09,0,.15s0,.08,0,.13a.68.68,0,0,1,0,.16q0,.08-.15.1a.5.5,0,0,1-.22,0L34,4.48l-.09,0s-.08,0-.15.09a1.41,1.41,0,0,0-.23.28,3.43,3.43,0,0,0-.22.39,4.34,4.34,0,0,0-.18.41c-.05.14-.1.28-.14.43s-.09.34-.14.59-.09.49-.13.72-.08.46-.1.65l-.06.39a.23.23,0,0,1-.06.13l-.09.06-.11,0h-.11l-.18,0-.17-.05a.15.15,0,0,1-.07-.05l0-.06a.21.21,0,0,1,0-.07l0-.17c0-.09,0-.26.1-.52L32,6.81l.19-.89.19-.86.17-.74.11-.48a.38.38,0,0,1,.08-.19.13.13,0,0,1,.1,0l.11,0,.13.05.13.07.11.07a.21.21,0,0,1,.07.07.24.24,0,0,1,0,.08.26.26,0,0,1,0,.06l0,.1,0,.13a.23.23,0,0,0,0,.07h0l0-.06a2,2,0,0,1,.35-.44l.25-.2.12-.06.11,0,.11,0a.18.18,0,0,1,.08.13,1.57,1.57,0,0,1,0,.16Z"/><path class="cls-1" d="M35,6.25s0,0,0,0a.12.12,0,0,0,0,.05c0,.2-.06.38-.08.55a3.67,3.67,0,0,0,0,.38q0,.13,0,.28a2.33,2.33,0,0,0,0,.31,1.27,1.27,0,0,0,.07.26c0,.07.07.11.13.11s.09,0,.14-.1a1.19,1.19,0,0,0,.11-.18,2.13,2.13,0,0,0,.08-.2c0-.08.05-.16.07-.25a.26.26,0,0,1,.08-.16.14.14,0,0,1,.11,0l.12,0,.13,0,.13.06.11.07a.16.16,0,0,1,.06.11.36.36,0,0,1-.08.21,1.93,1.93,0,0,1-.25.31,1.55,1.55,0,0,1-.28.25,1.2,1.2,0,0,1-.27.13,1.07,1.07,0,0,1-.33,0,.82.82,0,0,1-.41-.1,1,1,0,0,1-.31-.28,1.29,1.29,0,0,1-.2-.41A1.62,1.62,0,0,1,34,7.27c0-.14,0-.28,0-.44s0-.33,0-.52.06-.39.11-.6a5.56,5.56,0,0,1,.18-.63,3.52,3.52,0,0,1,.27-.59A2.24,2.24,0,0,1,35,4a1.74,1.74,0,0,1,.51-.34,1.57,1.57,0,0,1,.65-.13.64.64,0,0,1,.41.13.83.83,0,0,1,.25.34,1.41,1.41,0,0,1,.1.48,2.43,2.43,0,0,1,0,.55,2.52,2.52,0,0,1-.17.55,2,2,0,0,1-.3.48,1.43,1.43,0,0,1-.42.34,1.1,1.1,0,0,1-.53.13h-.16a.4.4,0,0,1-.23-.11A.5.5,0,0,1,35,6.25ZM35,6A.25.25,0,0,0,35,6a.09.09,0,0,0,0,.08l.09,0,.09,0a.41.41,0,0,0,.3-.17,2,2,0,0,0,.28-.42A4.07,4.07,0,0,0,36,5a4.29,4.29,0,0,0,.15-.54,1.45,1.45,0,0,0,0-.42q0-.17-.12-.17a.46.46,0,0,0-.35.19,2.17,2.17,0,0,0-.3.48,4.74,4.74,0,0,0-.25.67Q35.09,5.6,35,6Z"/><path class="cls-1" d="M37.79,6.25s0,0,0,0a.12.12,0,0,0,0,.05c0,.2-.06.38-.08.55a3.67,3.67,0,0,0,0,.38q0,.13,0,.28a2.33,2.33,0,0,0,0,.31,1.27,1.27,0,0,0,.07.26c0,.07.07.11.13.11s.09,0,.14-.1a1.19,1.19,0,0,0,.11-.18,2.13,2.13,0,0,0,.08-.2c0-.08.05-.16.07-.25a.26.26,0,0,1,.08-.16.14.14,0,0,1,.11,0l.12,0,.13,0,.13.06.11.07a.16.16,0,0,1,.06.11.36.36,0,0,1-.08.21,1.93,1.93,0,0,1-.25.31,1.55,1.55,0,0,1-.28.25,1.2,1.2,0,0,1-.27.13,1.07,1.07,0,0,1-.33,0,.82.82,0,0,1-.41-.1,1,1,0,0,1-.31-.28,1.29,1.29,0,0,1-.2-.41,1.62,1.62,0,0,1-.07-.44c0-.14,0-.28,0-.44s0-.33,0-.52.06-.39.11-.6a5.56,5.56,0,0,1,.18-.63,3.52,3.52,0,0,1,.27-.59,2.24,2.24,0,0,1,.38-.5,1.74,1.74,0,0,1,.51-.34A1.57,1.57,0,0,1,39,3.53a.64.64,0,0,1,.41.13.83.83,0,0,1,.25.34,1.41,1.41,0,0,1,.1.48,2.43,2.43,0,0,1,0,.55,2.52,2.52,0,0,1-.17.55,2,2,0,0,1-.3.48,1.43,1.43,0,0,1-.42.34,1.1,1.1,0,0,1-.53.13h-.16a.4.4,0,0,1-.23-.11A.5.5,0,0,1,37.79,6.25Zm0-.3a.25.25,0,0,0,0,.07.09.09,0,0,0,0,.08l.09,0,.09,0a.41.41,0,0,0,.3-.17,2,2,0,0,0,.28-.42A4.07,4.07,0,0,0,38.84,5,4.29,4.29,0,0,0,39,4.48a1.45,1.45,0,0,0,0-.42q0-.17-.12-.17a.46.46,0,0,0-.35.19,2.17,2.17,0,0,0-.3.48,4.74,4.74,0,0,0-.25.67Q37.88,5.6,37.8,6Z"/><path class="cls-1" d="M44.63.09a1.51,1.51,0,0,1,.79.19,1.28,1.28,0,0,1,.48.51,1.78,1.78,0,0,1,.19.73,3,3,0,0,1-.08.86,3.84,3.84,0,0,1-.33.88,3.68,3.68,0,0,1-.57.81,3.58,3.58,0,0,1-.79.64,3.06,3.06,0,0,1-1,.38q-.17.57-.34,1.19t-.28,1a4.63,4.63,0,0,0-.12.53,1.3,1.3,0,0,0,0,.19q0,.09,0,.18a1.41,1.41,0,0,1,0,.25.24.24,0,0,1-.08.15.35.35,0,0,1-.14.06h-.16l-.17,0-.21-.1a.22.22,0,0,1-.13-.17.75.75,0,0,1,0-.24l.11-.43L42,7l.24-.86.28-1-.12-.05-.07,0,0-.06a.12.12,0,0,1,0-.08.24.24,0,0,1,0-.09.22.22,0,0,1,.11-.07l.11,0h.08l.45-1.53q.24-.8.38-1.24t.17-.51a.35.35,0,0,1,.08-.12.27.27,0,0,1,.13-.07.26.26,0,0,1,.17,0,.2.2,0,0,1,.12.13,1.29,1.29,0,0,1-.12.45l.11.08.05.07a.3.3,0,0,1,0,.12.54.54,0,0,1,0,.18L44,3q-.18.56-.29,1l-.12.42a.09.09,0,0,0,0,0l0,0h0a3,3,0,0,0,.85-.66A3.63,3.63,0,0,0,45,2.88,3.31,3.31,0,0,0,45.3,2a2.45,2.45,0,0,0,0-.79A1.19,1.19,0,0,0,45.1.65a.56.56,0,0,0-.46-.22,1.54,1.54,0,0,0-.51.08,2,2,0,0,0-.45.22A2.39,2.39,0,0,0,43.3,1a3.55,3.55,0,0,0-.31.35q-.13.18-.24.34L42.6,2a.29.29,0,0,1-.09.11l-.09,0h-.1l-.1,0A.69.69,0,0,1,42.08,2l-.16-.16a.2.2,0,0,1-.06-.13.4.4,0,0,1,0-.12A1.21,1.21,0,0,1,42,1.31a2.74,2.74,0,0,1,.4-.4A3.47,3.47,0,0,1,43.78.2,3.23,3.23,0,0,1,44.63.09Z"/><path class="cls-1" d="M46,8A.22.22,0,0,0,46,8l0,.06,0,.07a.65.65,0,0,1,0,.14.21.21,0,0,1-.08.16.25.25,0,0,1-.18.05l-.24,0-.2,0a.19.19,0,0,1-.1-.06.22.22,0,0,1,0-.09.47.47,0,0,1,0-.08s0-.1,0-.23,0-.33.1-.58.1-.51.15-.76.11-.5.16-.75l.16-.69.14-.59L46,4.23l0-.14a.33.33,0,0,1,0-.09l.08-.07a.15.15,0,0,1,.11,0l.18.06.2.1a.21.21,0,0,1,.1.12.36.36,0,0,1,0,.18q-.33,1.36-.51,2.25T46,8Zm1.25-6a.63.63,0,0,1,.07.19,1,1,0,0,1,0,.25,1.26,1.26,0,0,1,0,.27.77.77,0,0,1-.11.25.57.57,0,0,1-.19.18.53.53,0,0,1-.27.07.69.69,0,0,1-.26,0A.5.5,0,0,1,46.27,3a.51.51,0,0,1-.1-.15l0-.13a.36.36,0,0,1,0-.09.39.39,0,0,1,0-.08.3.3,0,0,1,0-.08.14.14,0,0,1,.06-.06l.11,0,.07,0a.08.08,0,0,0,0,0A.5.5,0,0,1,46.48,2a.45.45,0,0,1,.24-.16.48.48,0,0,1,.28,0A.38.38,0,0,1,47.21,2Z"/><path class="cls-1" d="M49.08,7.72l.11,0,.08.07a.2.2,0,0,1,0,.13,1.06,1.06,0,0,1,0,.14v.07a.06.06,0,0,1,0,0l-.06,0h-.12l-.25,0h-.48a4.27,4.27,0,0,0-.59.06,3.14,3.14,0,0,0-.48.11.32.32,0,0,1-.29,0,.57.57,0,0,1-.16-.21.85.85,0,0,1-.08-.32.91.91,0,0,1,.07-.39,5.52,5.52,0,0,1,.28-.57q.2-.37.49-.8a10.82,10.82,0,0,1,.67-.9A8.85,8.85,0,0,1,49,4.35s0,0,0,0h0l-.22,0-.53.09-.43.09-.12,0,0,0,0,0,0,.08a.12.12,0,0,1,0,.06l-.1,0a.15.15,0,0,1-.15-.09.7.7,0,0,1-.07-.2,1.25,1.25,0,0,1,0-.2,1.59,1.59,0,0,1,0-.17q0-.08,0-.15a.15.15,0,0,1,.08-.11,2.17,2.17,0,0,1,.44-.11,6,6,0,0,1,.89-.09h.67l.22,0,.12,0a.26.26,0,0,1,.1.09.25.25,0,0,1,0,.11,1.16,1.16,0,0,1,0,.13.38.38,0,0,1,0,.14l-.06.12-.12.15-.23.27-.33.4-.38.51q-.2.28-.4.58c-.13.21-.26.42-.37.64a5,5,0,0,0-.25.51.85.85,0,0,0-.07.21s0,0,.13,0l.53,0Q48.7,7.65,49.08,7.72Z"/><path class="cls-1" d="M51.88,7.72l.11,0,.08.07a.2.2,0,0,1,0,.13,1.06,1.06,0,0,1,0,.14v.07a.06.06,0,0,1,0,0l-.06,0h-.12l-.25,0h-.48a4.27,4.27,0,0,0-.59.06,3.14,3.14,0,0,0-.48.11.32.32,0,0,1-.29,0,.57.57,0,0,1-.16-.21.85.85,0,0,1-.08-.32.91.91,0,0,1,.07-.39,5.52,5.52,0,0,1,.28-.57q.2-.37.49-.8A10.82,10.82,0,0,1,51,5.2a8.85,8.85,0,0,1,.79-.84s0,0,0,0h0l-.22,0-.53.09-.43.09-.12,0,0,0,0,0,0,.08a.12.12,0,0,1,0,.06l-.1,0a.15.15,0,0,1-.15-.09.7.7,0,0,1-.07-.2,1.25,1.25,0,0,1,0-.2,1.59,1.59,0,0,1,0-.17q0-.08,0-.15a.15.15,0,0,1,.08-.11,2.17,2.17,0,0,1,.44-.11,6,6,0,0,1,.89-.09h.67l.22,0,.12,0a.26.26,0,0,1,.1.09.25.25,0,0,1,0,.11,1.16,1.16,0,0,1,0,.13.38.38,0,0,1,0,.14l-.06.12-.12.15-.23.27-.33.4-.38.51q-.2.28-.4.58c-.13.21-.26.42-.37.64a5,5,0,0,0-.25.51.85.85,0,0,0-.07.21s0,0,.13,0l.53,0Q51.51,7.65,51.88,7.72Z"/><path class="cls-1" d="M55.95,3.93,56,4a.14.14,0,0,1,0,.15q-.3.63-.5,1.16t-.31,1a6.82,6.82,0,0,0-.16.78c0,.23-.05.43-.06.6a.36.36,0,0,0,0,.15.15.15,0,0,0,.06.07l.07,0,.07,0a.09.09,0,0,1,0,.07.45.45,0,0,1,0,.14.21.21,0,0,1-.1.14L55,8.39l-.23.06-.26,0c-.08,0-.13,0-.15-.07a.47.47,0,0,1,0-.11V8.21s0-.06,0-.1,0,0,0,0l-.12.11a1.55,1.55,0,0,1-.29.18,1,1,0,0,1-.47.11A.76.76,0,0,1,53,8.41a.85.85,0,0,1-.26-.21,1.11,1.11,0,0,1-.17-.29,1.88,1.88,0,0,1-.1-.32,2.48,2.48,0,0,1,0-.29q0-.13,0-.26c0-.09,0-.24,0-.46a5.68,5.68,0,0,1,.12-.72,6,6,0,0,1,.25-.8,3,3,0,0,1,.41-.74,2.12,2.12,0,0,1,.61-.54,1.64,1.64,0,0,1,.85-.21.56.56,0,0,1,.35.1.65.65,0,0,1,.19.24.8.8,0,0,1,.13-.19s.11,0,.23,0A.88.88,0,0,1,55.95,3.93ZM53.5,8.13c.11,0,.22-.08.32-.25a3.6,3.6,0,0,0,.29-.63q.14-.38.27-.84l.23-.76.15-.47.11-.32h-.16a.13.13,0,0,1-.08,0,.11.11,0,0,1,0-.06.22.22,0,0,1,0-.06.43.43,0,0,1,0-.09l.06-.18a2,2,0,0,0,.05-.24.55.55,0,0,0,0-.2.09.09,0,0,0-.09-.08.38.38,0,0,0-.2.12,2.14,2.14,0,0,0-.29.33,4.55,4.55,0,0,0-.32.52,4.82,4.82,0,0,0-.3.69,5.73,5.73,0,0,0-.22.83,5.09,5.09,0,0,0-.08.95,1.53,1.53,0,0,0,.09.59C53.37,8.06,53.43,8.13,53.5,8.13Z"/><path class="cls-1" d="M60.89,1.09a9.92,9.92,0,0,0-.82.87,5.51,5.51,0,0,0-.62.92,4.67,4.67,0,0,0-.55,2.17A7.45,7.45,0,0,0,59,6.43a13.19,13.19,0,0,0,.4,1.63q0,.14,0,.16a.4.4,0,0,1-.2,0l-.24-.09L58.75,8l-.11-.11a.37.37,0,0,1-.08-.14L58.37,7a7.63,7.63,0,0,1-.18-1,6.34,6.34,0,0,1,0-1.08,4.57,4.57,0,0,1,.22-1.17A5.34,5.34,0,0,1,59,2.55,6.2,6.2,0,0,1,60,1.31l.07,0,.08,0,.09,0a.69.69,0,0,1,.23-.16l.16,0,.12,0h.11s0,0,0,0S60.93,1.05,60.89,1.09Z"/><path class="cls-1" d="M62.81,3.7a2.26,2.26,0,0,1,0,.36,1.26,1.26,0,0,1-.07.33.89.89,0,0,1-.08.17l-.08.07a.26.26,0,0,1-.14,0,.16.16,0,0,1-.12,0,.29.29,0,0,1,0-.08.28.28,0,0,0,0-.08s-.06,0-.14,0l-.27,0a1.63,1.63,0,0,0-.3.12,1.69,1.69,0,0,0-.3.2A1,1,0,0,0,61,5q-.07.11-.06.14l.05,0,.17,0a1.52,1.52,0,0,1,.33.08.83.83,0,0,1,.35.25,1.18,1.18,0,0,1,.23.5,1.77,1.77,0,0,1,0,.69,2.85,2.85,0,0,1-.17.65,2,2,0,0,1-.31.51,1.67,1.67,0,0,1-.48.39,1.37,1.37,0,0,1-.67.16.65.65,0,0,1-.5-.17.8.8,0,0,1-.21-.42,1.74,1.74,0,0,1,0-.53q0-.28.06-.39a.28.28,0,0,1,.07-.15.23.23,0,0,1,.1-.05h.11a1.18,1.18,0,0,1,0-.14l0-.1s.05,0,.11,0l.16,0,.13,0a.12.12,0,0,1,.07.05.17.17,0,0,1,0,.06.33.33,0,0,1,0,.06l0,.11-.09.32a3.89,3.89,0,0,0-.1.46,1.34,1.34,0,0,0,0,.38q0,.16.15.16a.3.3,0,0,0,.2-.08.76.76,0,0,0,.16-.2A1.78,1.78,0,0,0,61,7.61q.06-.16.1-.32T61.23,7q0-.16,0-.29a1.59,1.59,0,0,0,0-.32A1,1,0,0,0,61.17,6a.94.94,0,0,0-.29-.33,1.27,1.27,0,0,0-.54-.2.23.23,0,0,1-.13-.08.26.26,0,0,1,0-.12.37.37,0,0,1,0-.12A1.18,1.18,0,0,1,60.22,5a2.44,2.44,0,0,1,.19-.35,1.91,1.91,0,0,1,.41-.47,2.6,2.6,0,0,1,.66-.39,3,3,0,0,1,.9-.22h.17l.11,0,.1.05A.14.14,0,0,1,62.81,3.7Z"/><path class="cls-1" d="M63.47,6.25s0,0,0,0a.12.12,0,0,0,0,.05c0,.2-.06.38-.08.55a3.67,3.67,0,0,0,0,.38q0,.13,0,.28a2.33,2.33,0,0,0,0,.31,1.27,1.27,0,0,0,.07.26c0,.07.07.11.13.11s.09,0,.14-.1a1.19,1.19,0,0,0,.11-.18,2.13,2.13,0,0,0,.08-.2c0-.08.05-.16.07-.25A.26.26,0,0,1,64,7.27a.14.14,0,0,1,.11,0l.12,0,.13,0,.13.06.11.07a.16.16,0,0,1,.06.11.36.36,0,0,1-.08.21,1.93,1.93,0,0,1-.25.31,1.55,1.55,0,0,1-.28.25,1.2,1.2,0,0,1-.27.13,1.07,1.07,0,0,1-.33,0,.82.82,0,0,1-.41-.1,1,1,0,0,1-.31-.28,1.29,1.29,0,0,1-.2-.41,1.62,1.62,0,0,1-.07-.44c0-.14,0-.28,0-.44s0-.33,0-.52.06-.39.11-.6a5.56,5.56,0,0,1,.18-.63,3.52,3.52,0,0,1,.27-.59,2.24,2.24,0,0,1,.38-.5A1.74,1.74,0,0,1,64,3.66a1.57,1.57,0,0,1,.65-.13.64.64,0,0,1,.41.13.83.83,0,0,1,.25.34,1.41,1.41,0,0,1,.1.48,2.43,2.43,0,0,1,0,.55,2.52,2.52,0,0,1-.17.55,2,2,0,0,1-.3.48,1.43,1.43,0,0,1-.42.34,1.1,1.1,0,0,1-.53.13h-.16a.4.4,0,0,1-.23-.11A.5.5,0,0,1,63.47,6.25Zm0-.3a.25.25,0,0,0,0,.07.09.09,0,0,0,0,.08l.09,0,.09,0A.41.41,0,0,0,64,6a2,2,0,0,0,.28-.42A4.07,4.07,0,0,0,64.52,5a4.29,4.29,0,0,0,.15-.54,1.45,1.45,0,0,0,0-.42q0-.17-.12-.17a.46.46,0,0,0-.35.19,2.17,2.17,0,0,0-.3.48,4.74,4.74,0,0,0-.25.67Q63.57,5.6,63.49,6Z"/><path class="cls-1" d="M68,4q0,.09,0,.15s0,.08,0,.13a.68.68,0,0,1,0,.16q0,.08-.15.1a.5.5,0,0,1-.22,0l-.15-.05-.09,0s-.08,0-.15.09a1.41,1.41,0,0,0-.23.28,3.43,3.43,0,0,0-.22.39,4.34,4.34,0,0,0-.18.41c-.05.14-.1.28-.14.43s-.09.34-.14.59-.09.49-.13.72-.08.46-.1.65L66,8.39a.23.23,0,0,1-.06.13l-.09.06-.11,0h-.11l-.18,0-.17-.05a.15.15,0,0,1-.07-.05l0-.06a.21.21,0,0,1,0-.07l0-.17c0-.09,0-.26.1-.52l.17-.81.19-.89.19-.86L66,4.32l.11-.48a.38.38,0,0,1,.08-.19.13.13,0,0,1,.1,0l.11,0,.13.05.13.07.11.07a.21.21,0,0,1,.07.07.24.24,0,0,1,0,.08.26.26,0,0,1,0,.06l0,.1,0,.13a.23.23,0,0,0,0,.07h0l0-.06a2,2,0,0,1,.35-.44l.25-.2.12-.06.11,0,.11,0a.18.18,0,0,1,.08.13,1.57,1.57,0,0,1,0,.16Z"/><path class="cls-1" d="M70.91,3.84a.53.53,0,0,1,0,.19.56.56,0,0,1-.12.23l-.35.51q-.25.37-.53.89t-.58,1.19a13.53,13.53,0,0,0-.54,1.45.2.2,0,0,1-.22.15,1.14,1.14,0,0,1-.32-.08A.93.93,0,0,1,68,8.27a.33.33,0,0,1-.1-.12.66.66,0,0,1,0-.2q0-.14,0-.41t0-.61c0-.23,0-.47,0-.74s0-.53.06-.81.07-.55.11-.83a5.32,5.32,0,0,1,.15-.65,1.35,1.35,0,0,1,.11-.29.14.14,0,0,1,.11-.06h.16l.18,0,.21,0a.87.87,0,0,1,.21.08.28.28,0,0,1,.12.13q0,.08-.05.18l-.14.15L69,4.24a.41.41,0,0,0-.06.1,1.8,1.8,0,0,0-.07.25q0,.19-.11.52t-.12.71q0,.38-.08.82c0,.29,0,.6,0,.93a.23.23,0,0,0,0,.07s0,0,0,0a.25.25,0,0,0,0-.09c0-.18.08-.42.15-.72a9.07,9.07,0,0,1,.31-1,9.36,9.36,0,0,1,.52-1.15,6.18,6.18,0,0,1,.56-.91l.28-.34.07,0h.08a.17.17,0,0,1,.1.06,1.23,1.23,0,0,1,.14.18A.71.71,0,0,1,70.91,3.84Z"/><path class="cls-1" d="M71.4,6.25s0,0,0,0a.12.12,0,0,0,0,.05c0,.2-.06.38-.08.55a3.67,3.67,0,0,0,0,.38q0,.13,0,.28a2.33,2.33,0,0,0,0,.31,1.27,1.27,0,0,0,.07.26c0,.07.07.11.13.11s.09,0,.14-.1a1.19,1.19,0,0,0,.11-.18,2.13,2.13,0,0,0,.08-.2c0-.08.05-.16.07-.25A.26.26,0,0,1,72,7.27a.14.14,0,0,1,.11,0l.12,0,.13,0,.13.06.11.07a.16.16,0,0,1,.06.11.36.36,0,0,1-.08.21,1.93,1.93,0,0,1-.25.31,1.55,1.55,0,0,1-.28.25,1.2,1.2,0,0,1-.27.13,1.07,1.07,0,0,1-.33,0A.82.82,0,0,1,71,8.4a1,1,0,0,1-.31-.28,1.29,1.29,0,0,1-.2-.41,1.62,1.62,0,0,1-.07-.44c0-.14,0-.28,0-.44s0-.33,0-.52.06-.39.11-.6a5.56,5.56,0,0,1,.18-.63,3.52,3.52,0,0,1,.27-.59,2.24,2.24,0,0,1,.38-.5,1.74,1.74,0,0,1,.51-.34,1.57,1.57,0,0,1,.65-.13.64.64,0,0,1,.41.13.83.83,0,0,1,.25.34,1.41,1.41,0,0,1,.1.48,2.43,2.43,0,0,1,0,.55,2.52,2.52,0,0,1-.17.55,2,2,0,0,1-.3.48,1.43,1.43,0,0,1-.42.34,1.1,1.1,0,0,1-.53.13h-.16a.4.4,0,0,1-.23-.11A.5.5,0,0,1,71.4,6.25Zm0-.3a.25.25,0,0,0,0,.07.09.09,0,0,0,0,.08l.09,0,.09,0a.41.41,0,0,0,.3-.17,2,2,0,0,0,.28-.42A4.07,4.07,0,0,0,72.45,5a4.29,4.29,0,0,0,.15-.54,1.45,1.45,0,0,0,0-.42q0-.17-.12-.17a.46.46,0,0,0-.35.19,2.17,2.17,0,0,0-.3.48,4.74,4.74,0,0,0-.25.67Q71.5,5.6,71.42,6Z"/><path class="cls-1" d="M76.13,3.7a2.26,2.26,0,0,1,0,.36,1.26,1.26,0,0,1-.07.33.89.89,0,0,1-.08.17l-.08.07a.26.26,0,0,1-.14,0,.16.16,0,0,1-.12,0,.29.29,0,0,1,0-.08.28.28,0,0,0,0-.08s-.06,0-.14,0l-.27,0a1.63,1.63,0,0,0-.3.12,1.69,1.69,0,0,0-.3.2,1,1,0,0,0-.22.23q-.07.11-.06.14l.05,0,.17,0a1.52,1.52,0,0,1,.33.08.83.83,0,0,1,.35.25,1.18,1.18,0,0,1,.23.5,1.77,1.77,0,0,1,0,.69,2.85,2.85,0,0,1-.17.65,2,2,0,0,1-.31.51,1.67,1.67,0,0,1-.48.39,1.37,1.37,0,0,1-.67.16.65.65,0,0,1-.5-.17.8.8,0,0,1-.21-.42,1.74,1.74,0,0,1,0-.53q0-.28.06-.39a.28.28,0,0,1,.07-.15.23.23,0,0,1,.1-.05h.11a1.18,1.18,0,0,1,0-.14l0-.1s.05,0,.11,0l.16,0,.13,0a.12.12,0,0,1,.07.05.17.17,0,0,1,0,.06.33.33,0,0,1,0,.06l0,.11-.09.32a3.89,3.89,0,0,0-.1.46,1.34,1.34,0,0,0,0,.38q0,.16.15.16a.3.3,0,0,0,.2-.08.76.76,0,0,0,.16-.2,1.78,1.78,0,0,0,.13-.29q.06-.16.1-.32T74.55,7q0-.16,0-.29a1.59,1.59,0,0,0,0-.32A1,1,0,0,0,74.5,6a.94.94,0,0,0-.29-.33,1.27,1.27,0,0,0-.54-.2.23.23,0,0,1-.13-.08.26.26,0,0,1,0-.12.37.37,0,0,1,0-.12A1.18,1.18,0,0,1,73.54,5a2.44,2.44,0,0,1,.19-.35,1.91,1.91,0,0,1,.41-.47,2.6,2.6,0,0,1,.66-.39,3,3,0,0,1,.9-.22h.17l.11,0,.1.05A.14.14,0,0,1,76.13,3.7Z"/><path class="cls-1" d="M81.46.71q-.23.73-.45,1.45t-.4,1.41q-.19.69-.35,1.32L80,6.07l-.23,1q-.1.45-.17.75h.72l.18,0a.1.1,0,0,1,.07.09.52.52,0,0,1,0,.16.66.66,0,0,1-.05.17.23.23,0,0,1-.08.11l-.08,0H79l-.61,0-.49,0c-.14,0-.21,0-.22-.05a.59.59,0,0,1,0-.12.78.78,0,0,1,0-.14.16.16,0,0,1,.06-.11L77.85,8l.31-.07.44-.06Q78.78,7,79,6.25t.4-1.49q.2-.7.38-1.29l.31-1,.2-.63.09-.28L80,1.72l-.28.18a.73.73,0,0,0-.17.14l-.09.11-.09.09a.4.4,0,0,1-.14.06.34.34,0,0,1-.2,0l-.16-.07-.12-.1a.53.53,0,0,1-.11-.18.32.32,0,0,1,0-.16.26.26,0,0,1,0-.08l.06-.06.17-.12.45-.27L80,.9l.61-.3L81,.4l.2-.08a.32.32,0,0,1,.16,0,.17.17,0,0,1,.13.1A.45.45,0,0,1,81.46.71Z"/><path class="cls-1" d="M82.48,6.26a14.13,14.13,0,0,1-1.68,0s0-.09,0-.19a1,1,0,0,1,.12-.25.29.29,0,0,1,.19-.12l.37,0,.52,0,.5,0h.33q.1,0,.1.12a.79.79,0,0,1,0,.25,1,1,0,0,1-.11.25A.33.33,0,0,1,82.48,6.26Z"/><path class="cls-1" d="M86.53.23a1.14,1.14,0,0,1,.72.2.94.94,0,0,1,.33.51,1.88,1.88,0,0,1,0,.72,5,5,0,0,1-.18.81,7.42,7.42,0,0,1-.3.8q-.17.39-.32.68t-.28.52q-.14.24-.3.48t-.37.51l-.49.61-.67.79-.89,1a.15.15,0,0,0,0,.06s0,0,0,0h.42l.43,0,.39-.06.3-.06.23-.07a.29.29,0,0,0,.14-.1l.06-.11a1.2,1.2,0,0,0,0-.14c0-.06,0-.1.06-.11l.08,0,.11,0h.16a.41.41,0,0,1,.16,0,.15.15,0,0,1,.08.14,1.74,1.74,0,0,1,0,.29,1.55,1.55,0,0,1-.09.37,1.17,1.17,0,0,1-.13.26.39.39,0,0,1-.22.12l-.5.09c-.22,0-.46.05-.71.07l-.77,0-.63,0a.52.52,0,0,1-.29-.08.58.58,0,0,1-.1-.14,1.39,1.39,0,0,1-.08-.19L82.88,8a.35.35,0,0,1,0-.19.41.41,0,0,1,.1-.15l.28-.32.45-.55.54-.68.56-.73.53-.73q.25-.36.44-.65a7.31,7.31,0,0,0,.38-.69q.18-.37.32-.75a6.34,6.34,0,0,0,.23-.72,3.08,3.08,0,0,0,.09-.62.92.92,0,0,0-.07-.43.27.27,0,0,0-.27-.16A.74.74,0,0,0,86,.72a1.68,1.68,0,0,0-.39.39,3.31,3.31,0,0,0-.33.57,5.85,5.85,0,0,0-.26.69.19.19,0,0,0,0,.11l0,.08a.48.48,0,0,1,0,.13.8.8,0,0,1,0,.21q0,.13-.06.16l-.13,0h-.31l-.2,0-.17,0a.17.17,0,0,1-.1-.07.35.35,0,0,1,0-.11.59.59,0,0,1,0-.13,2.07,2.07,0,0,1,0-.28,5.22,5.22,0,0,1,.2-.62A2.82,2.82,0,0,1,84.81,1a2.05,2.05,0,0,1,1.72-.8Z"/><path class="cls-1" d="M88.78,1.14a4.59,4.59,0,0,1,.52,1.41,4.63,4.63,0,0,1,0,1.58,7,7,0,0,1-.55,1.79,12.54,12.54,0,0,1-1.17,2,.48.48,0,0,1-.18.18.24.24,0,0,1-.13,0l-.07,0-.05,0-.07,0L87,8a.2.2,0,0,1-.09-.09.18.18,0,0,1,0-.1.3.3,0,0,1,0-.1l0-.09a.07.07,0,0,0,0-.06l0,0,0,0s0,0,0-.08A11.73,11.73,0,0,0,87.87,6a8.43,8.43,0,0,0,.56-1.26,5.62,5.62,0,0,0,.26-1.09,4.73,4.73,0,0,0,0-.94,4.32,4.32,0,0,0-.13-.81,6.8,6.8,0,0,0-.23-.71.18.18,0,0,1,0-.1s0-.05,0-.06h.19l.11,0A.16.16,0,0,1,88.78,1.14Z"/></svg>