<svg id="Layer_1" data-name="Layer 1" xmlns="http://www.w3.org/2000/svg" viewBox="0 0 82.1 11.57"><defs><style>.cls-1{fill:#231f20;}</style></defs><title>header2</title><path class="cls-1" d="M3.84.64q-.23.73-.45,1.45T3,3.49q-.19.69-.35,1.32L2.34,6,2.11,7q-.1.45-.17.75h.72l.18,0a.1.1,0,0,1,.07.09A.52.52,0,0,1,2.9,8a.66.66,0,0,1-.05.17.23.23,0,0,1-.08.11l-.08,0H1.34l-.61,0-.49,0c-.14,0-.21,0-.22-.05a.59.59,0,0,1,0-.12A.78.78,0,0,1,0,8.1.16.16,0,0,1,.08,8l.15-.07.31-.07L1,7.79q.19-.82.39-1.61t.4-1.49Q2,4,2.14,3.4l.31-1,.2-.63.09-.28-.33.18-.28.18A.73.73,0,0,0,2,2l-.09.11-.09.09a.4.4,0,0,1-.14.06.34.34,0,0,1-.2,0l-.16-.07L1.16,2A.53.53,0,0,1,1,1.86.32.32,0,0,1,1,1.7a.26.26,0,0,1,0-.08l.06-.06.17-.12.45-.27L2.35.83,3,.52l.42-.2.2-.08a.32.32,0,0,1,.16,0,.17.17,0,0,1,.13.1A.45.45,0,0,1,3.84.64Z"/><path class="cls-1" d="M6.66,4.47h.11l0,0,0,0a.24.24,0,0,1,0,.11,1.24,1.24,0,0,1-.08.25.87.87,0,0,1-.19.29.63.63,0,0,1-.2.15.49.49,0,0,1-.21,0H5.89q-.15.6-.29,1.26t-.23,1.3h.24l.14,0,.09,0a.08.08,0,0,1,0,.08.55.55,0,0,1,0,.09l0,.09,0,.09,0,.08a.19.19,0,0,1-.07.07.34.34,0,0,1-.2,0l-.37,0H4.27L4,8.5c-.09,0-.14,0-.13-.08a.89.89,0,0,1,0-.16.9.9,0,0,1,0-.15A.16.16,0,0,1,4,8l.15,0,.31,0,.08-.46c0-.18.07-.39.12-.61s.1-.46.16-.72S5,5.64,5,5.36l-.45,0-.27,0L4,5.47l-.34.07a.48.48,0,0,1-.3,0,.2.2,0,0,1-.11-.14.43.43,0,0,1,0-.19,2.72,2.72,0,0,1,.1-.3q.07-.2.28-.7t.51-1.12q.3-.62.7-1.36T5.54.59L5.82.15,5.88.09,6,.05h.15l.16,0,.14.09.15.13a.38.38,0,0,1,.09.14.35.35,0,0,1,0,.14.37.37,0,0,1-.09.18.55.55,0,0,1-.13.13l-.1.06L6.24,1A1.71,1.71,0,0,0,6,1.3L5.6,2q-.28.47-.55,1T4.54,4q-.24.5-.33.72A1,1,0,0,0,4.14,5s0,0,.07,0l.12,0,.14,0,.22-.06.51-.09q.12-.46.26-.9t.21-.63l.09-.24,0-.1a.2.2,0,0,1,.06-.07l.08,0h.32l0,0a.14.14,0,0,1,0,.06.29.29,0,0,1,0,.11l0,.16,0,.18.1.06a.23.23,0,0,1,.07.08.28.28,0,0,1,0,.18L6.26,4l-.15.54.27,0Z"/><path class="cls-1" d="M7.92.16a.47.47,0,0,1,.22.09A.28.28,0,0,1,8.23.4a.53.53,0,0,1,0,.21,2.42,2.42,0,0,1-.06.26q0,.14-.11.31a1.79,1.79,0,0,1-.16.32.89.89,0,0,1-.2.23.28.28,0,0,1-.25.06.08.08,0,0,1-.07-.08.65.65,0,0,1,0-.18l.09-.25A1.74,1.74,0,0,0,7.59,1a.56.56,0,0,0,0-.24q0-.11-.07-.22T7.46.35a.21.21,0,0,1,0-.15A.16.16,0,0,1,7.6.13,1.1,1.1,0,0,1,7.92.16Zm.8.08A1.08,1.08,0,0,1,9,.33a.32.32,0,0,1,.14.13.37.37,0,0,1,0,.18,1.49,1.49,0,0,1,0,.24,2.23,2.23,0,0,1-.09.3,1.59,1.59,0,0,1-.16.32.94.94,0,0,1-.23.24.39.39,0,0,1-.28.08q-.13,0-.15-.07a.2.2,0,0,1,0-.15l.13-.22a1.15,1.15,0,0,0,.12-.26.57.57,0,0,0,0-.23,2,2,0,0,0,0-.21l0-.2a.4.4,0,0,1,0-.16A.12.12,0,0,1,8.51.23.4.4,0,0,1,8.72.24Z"/><path class="cls-1" d="M15.36.43a1.7,1.7,0,0,1,.06.19.82.82,0,0,1,0,.18.38.38,0,0,1-.06.19.55.55,0,0,1-.11.14l-.1.06-.08,0a.29.29,0,0,0-.09.1,11.05,11.05,0,0,0-.7,1.3Q14,3.33,13.73,4T13.3,5.37Q13.11,6,13,6.58t-.21,1q-.08.43-.11.63a.36.36,0,0,1-.13.26.55.55,0,0,1-.24.08l-.21,0-.11,0-.06,0a.31.31,0,0,1-.06-.09,6.25,6.25,0,0,1-.39-1.3,7.78,7.78,0,0,1-.13-1.24,7.64,7.64,0,0,1,.06-1.12q.07-.53.13-.83a1.74,1.74,0,0,0,.05-.32s0,0,0,0a5.43,5.43,0,0,0-.2.52q-.16.46-.38,1.24t-.39,1.46q-.17.68-.29,1.22l-.16.74a.8.8,0,0,1-.09.27.11.11,0,0,1-.13,0A.51.51,0,0,1,9.74,9l-.13-.1a.27.27,0,0,1-.07-.11.35.35,0,0,1,0-.11,1.06,1.06,0,0,1,0-.11v-.1l0-.13,0-.2,0-.23a.16.16,0,0,1-.08-.07.27.27,0,0,1,0-.11.57.57,0,0,1,0-.12s0-.18.09-.42.14-.6.27-1,.25-.89.37-1.3.25-.79.37-1.15.24-.68.35-1,.2-.54.29-.75l.19-.45a.54.54,0,0,1,.08-.12l.08-.06a.21.21,0,0,1,.13,0,.64.64,0,0,1,.24.1.91.91,0,0,1,.25.23.51.51,0,0,1,.11.23,1.93,1.93,0,0,1-.11.51,8.94,8.94,0,0,0-.21,1,10.89,10.89,0,0,0-.13,1.1,7.53,7.53,0,0,0,0,.91,7.18,7.18,0,0,0,.08.72,4.26,4.26,0,0,0,.12.53,2.66,2.66,0,0,0,.1.29l0,.08h0a.12.12,0,0,0,0-.05,15,15,0,0,1,.31-1.71q.2-.81.44-1.52t.5-1.31q.26-.6.5-1.07t.44-.8l.26-.42.08-.12.06,0,.08,0A.23.23,0,0,1,15,0a.72.72,0,0,1,.17.14A.74.74,0,0,1,15.36.43Z"/><path class="cls-1" d="M18.45.58a.77.77,0,0,1,0,.17.25.25,0,0,1-.06.16,8.05,8.05,0,0,0-.68,1,11.84,11.84,0,0,0-.58,1.15q-.26.6-.49,1.24t-.41,1.28q-.19.65-.35,1.28l-.24.95a1.47,1.47,0,0,1-.12.38.15.15,0,0,1-.16,0v.09l0,.08a.28.28,0,0,1,0,.08.1.1,0,0,1-.11,0l-.13,0-.12,0-.09-.06a.13.13,0,0,1,0-.1.77.77,0,0,1,0-.11l.13-.65q.13-.61.41-1.56t.56-1.76a6.28,6.28,0,0,1-.53-1q-.21-.52-.35-1t-.21-.8Q14.74,1,14.73,1s0-.08,0-.11a.32.32,0,0,1,0-.13.49.49,0,0,1,.15-.18l.25-.17a.89.89,0,0,1,.24-.1.24.24,0,0,1,.16,0,.29.29,0,0,1,.1.09.43.43,0,0,1,.06.2.54.54,0,0,1,0,.21l-.06.14-.06.14a1.88,1.88,0,0,0,0,.52,8.5,8.5,0,0,0,.21,1q.15.55.25.85l0,.07s0,0,0,0q.27-.7.53-1.25t.5-1q.23-.41.42-.69l.24-.35.08-.1,0,0,.06,0a.16.16,0,0,1,.09,0,.67.67,0,0,1,.16.17A.78.78,0,0,1,18.45.58Z"/><path class="cls-1" d="M23,.67A1.43,1.43,0,0,1,23,.9a1.21,1.21,0,0,1,0,.3,1.83,1.83,0,0,1-.09.28,1.29,1.29,0,0,1-.11.21.21.21,0,0,1-.17.1.42.42,0,0,1-.17,0,.24.24,0,0,1-.1-.07.33.33,0,0,1-.05-.09l0-.09a.17.17,0,0,0-.06-.06.42.42,0,0,0-.2,0,2.83,2.83,0,0,0-.41.09,2.43,2.43,0,0,0-.49.21,2,2,0,0,0-.45.33,1.29,1.29,0,0,0-.28.36q-.07.16-.06.19s.12,0,.33.06A1.22,1.22,0,0,1,21.3,3a1.47,1.47,0,0,1,.5.64,2.76,2.76,0,0,1,.19.93A6.34,6.34,0,0,1,22,5.6a4,4,0,0,1-.29,1.08,4,4,0,0,1-.56.94,2.89,2.89,0,0,1-.75.67,1.66,1.66,0,0,1-.88.26.7.7,0,0,1-.39-.1.78.78,0,0,1-.26-.28,1.46,1.46,0,0,1-.15-.42,3.22,3.22,0,0,1-.06-.51,5.44,5.44,0,0,1,0-.56c0-.19,0-.35,0-.46A.5.5,0,0,1,18.72,6a.22.22,0,0,1,.1-.07l.16,0A1.27,1.27,0,0,1,19,5.61a.15.15,0,0,1,.14-.09h.41a.18.18,0,0,1,.14.1.29.29,0,0,1,0,.25q-.06.16-.13.42t-.12.53c0,.18-.06.35-.08.51a2.53,2.53,0,0,0,0,.44.78.78,0,0,0,.07.31.19.19,0,0,0,.18.12.6.6,0,0,0,.42-.25,2.71,2.71,0,0,0,.42-.68,6.29,6.29,0,0,0,.35-1A7.32,7.32,0,0,0,21,5.16a3.54,3.54,0,0,0,0-.85,2,2,0,0,0-.2-.63,1.47,1.47,0,0,0-.4-.49,1.14,1.14,0,0,0-.5-.25.9.9,0,0,1-.3-.09.24.24,0,0,1-.08-.09.17.17,0,0,1,0-.09,1.54,1.54,0,0,1,.08-.23,3.32,3.32,0,0,1,.33-.56,3,3,0,0,1,.63-.67,3.34,3.34,0,0,1,.92-.5,3.07,3.07,0,0,1,.93-.21,1.46,1.46,0,0,1,.48,0A.22.22,0,0,1,23,.67Z"/><path class="cls-1" d="M25.2,2.12l.13,0,.06,0s0,.07,0,.15a.65.65,0,0,1,0,.23.54.54,0,0,1-.12.19.39.39,0,0,1-.28.07h-.42l-.42,0L23.79,4q-.15.55-.26,1t-.18.78q-.08.36-.14.71t-.12.67L23,7.64a1.16,1.16,0,0,0,0,.23A.3.3,0,0,0,23,8l0,.07,0,.08a.12.12,0,0,1,0,.1A.17.17,0,0,1,23,8.3a.38.38,0,0,1-.14,0h-.19l-.23,0-.18,0-.11-.05a.24.24,0,0,1-.08-.13.6.6,0,0,1,0-.21,1.87,1.87,0,0,1,0-.26l.06-.26Q22.48,6,22.76,5t.53-1.91,0-.08h-.1l-.13,0-.16,0a.23.23,0,0,1-.17,0,.15.15,0,0,1-.07-.15.22.22,0,0,1,0-.15.51.51,0,0,1,.15-.09l.29-.11.36-.11q.21-.66.35-1.09L24,.77l.05-.13,0-.06.07,0a.19.19,0,0,1,.13,0,1,1,0,0,1,.18.13.51.51,0,0,1,.13.16.37.37,0,0,1,0,.12.93.93,0,0,1-.05.23l-.14.45-.17.54.5-.06Z"/><path class="cls-1" d="M27.49,3.65a.33.33,0,0,1,.1.16.38.38,0,0,1-.08.27l-.34.6q-.24.43-.56,1t-.69,1.35q-.37.75-.66,1.4T24.8,9.54l-.31.82-.24.66-.15.41q0,.13-.14.13a.45.45,0,0,1-.2,0,.78.78,0,0,1-.18-.09.18.18,0,0,1-.06-.2.21.21,0,0,0-.07-.22.24.24,0,0,1-.1-.18.46.46,0,0,1,0-.21l.15-.32.31-.66.47-1,.56-1.18s0-.05,0-.05h0a.78.78,0,0,1-.26,0,.5.5,0,0,1-.36-.19A1.12,1.12,0,0,1,24,6.67a4.44,4.44,0,0,1,0-1.15,7.22,7.22,0,0,1,.28-1.26l.2-.59a.36.36,0,0,1,.06-.09l.09-.07a.16.16,0,0,1,.11,0l.13,0,.17,0,.18.07a.44.44,0,0,1,.13.09.49.49,0,0,1,.09.12.27.27,0,0,1,0,.18.41.41,0,0,1-.08.18l-.11.1-.1.1a.7.7,0,0,0-.1.25L25,5.14l-.13.57q-.06.28-.11.54t-.07.46a1.45,1.45,0,0,0,0,.31q0,.12.08.12c.06,0,.14-.05.23-.16a3.09,3.09,0,0,0,.29-.38q.15-.23.3-.49l.34-.64.46-.89.42-.81a1.61,1.61,0,0,1,.2-.32l.09,0a.24.24,0,0,1,.13,0l.18.1Z"/><path class="cls-1" d="M29.63.75a.21.21,0,0,1,0,.14,1.64,1.64,0,0,1-.07.21l-.21.6q-.15.45-.34,1T28.67,4q-.2.67-.36,1.35T28,6.68a7.37,7.37,0,0,0-.16,1q0,.32,0,.42a.9.9,0,0,1,0,.17.44.44,0,0,1-.07.14.23.23,0,0,1-.13.08.67.67,0,0,1-.22,0l-.21,0-.13,0a.19.19,0,0,1-.1-.05.28.28,0,0,1-.06-.09.29.29,0,0,1,0-.09,1,1,0,0,1,0-.13c0-.06,0-.17,0-.35s.07-.4.13-.67.13-.6.23-1,.22-.83.37-1.34.33-1.1.54-1.75.45-1.39.72-2.19q0-.1.07-.09l.06,0,0,0,.05,0L29.2.56A.11.11,0,0,1,29.27.5a.15.15,0,0,1,.12,0l.13.1A.65.65,0,0,1,29.63.75Z"/><path class="cls-1" d="M29.53,6.18s0,0,0,0a.12.12,0,0,0,0,.05c0,.2-.06.38-.08.55a3.67,3.67,0,0,0,0,.38q0,.13,0,.28a2.33,2.33,0,0,0,0,.31,1.27,1.27,0,0,0,.07.26c0,.07.07.11.13.11s.09,0,.14-.1a1.19,1.19,0,0,0,.11-.18,2.13,2.13,0,0,0,.08-.2c0-.08.05-.16.07-.25a.26.26,0,0,1,.08-.16.14.14,0,0,1,.11,0l.12,0,.13,0,.13.06.11.07a.16.16,0,0,1,.06.11.36.36,0,0,1-.08.21,1.93,1.93,0,0,1-.25.31,1.55,1.55,0,0,1-.28.25,1.2,1.2,0,0,1-.27.13,1.07,1.07,0,0,1-.33,0,.82.82,0,0,1-.41-.1,1,1,0,0,1-.31-.28,1.29,1.29,0,0,1-.2-.41,1.62,1.62,0,0,1-.07-.44c0-.14,0-.28,0-.44s0-.33,0-.52.06-.39.11-.6A5.56,5.56,0,0,1,28.91,5a3.52,3.52,0,0,1,.27-.59,2.24,2.24,0,0,1,.38-.5,1.74,1.74,0,0,1,.51-.34,1.57,1.57,0,0,1,.65-.13.64.64,0,0,1,.41.13.83.83,0,0,1,.25.34,1.41,1.41,0,0,1,.1.48,2.43,2.43,0,0,1,0,.55,2.52,2.52,0,0,1-.17.55A2,2,0,0,1,31,6a1.43,1.43,0,0,1-.42.34,1.1,1.1,0,0,1-.53.13h-.16a.4.4,0,0,1-.23-.11A.5.5,0,0,1,29.53,6.18Zm0-.3a.25.25,0,0,0,0,.07.09.09,0,0,0,0,.08l.09,0,.09,0a.41.41,0,0,0,.3-.17,2,2,0,0,0,.28-.42A4.07,4.07,0,0,0,30.58,5a4.29,4.29,0,0,0,.15-.54,1.45,1.45,0,0,0,0-.42q0-.17-.12-.17a.46.46,0,0,0-.35.19,2.17,2.17,0,0,0-.3.48,4.74,4.74,0,0,0-.25.67Q29.63,5.53,29.55,5.88Z"/><path class="cls-1" d="M36.38,0a1.51,1.51,0,0,1,.79.19,1.28,1.28,0,0,1,.48.51,1.78,1.78,0,0,1,.19.73,3,3,0,0,1-.08.86,3.84,3.84,0,0,1-.33.88,3.68,3.68,0,0,1-.57.81,3.58,3.58,0,0,1-.79.64,3.06,3.06,0,0,1-1,.38q-.17.57-.34,1.19t-.28,1a4.63,4.63,0,0,0-.12.53,1.3,1.3,0,0,0,0,.19q0,.09,0,.18a1.41,1.41,0,0,1,0,.25.24.24,0,0,1-.08.15.35.35,0,0,1-.14.06h-.16l-.17,0-.21-.1a.22.22,0,0,1-.13-.17.75.75,0,0,1,0-.24l.11-.43.18-.69L34,6.07l.28-1L34.13,5l-.07,0,0-.06a.12.12,0,0,1,0-.08.24.24,0,0,1,0-.09.22.22,0,0,1,.11-.07l.11,0h.08l.45-1.53q.24-.8.38-1.24t.17-.51a.35.35,0,0,1,.08-.12.27.27,0,0,1,.13-.07.26.26,0,0,1,.17,0,.2.2,0,0,1,.12.13,1.29,1.29,0,0,1-.12.45l.11.08.05.07a.3.3,0,0,1,0,.12.54.54,0,0,1,0,.18l-.21.66q-.18.56-.29,1l-.12.42a.09.09,0,0,0,0,0l0,0h0a3,3,0,0,0,.85-.66,3.63,3.63,0,0,0,.56-.83A3.31,3.31,0,0,0,37,1.93a2.45,2.45,0,0,0,0-.79,1.19,1.19,0,0,0-.23-.57.56.56,0,0,0-.46-.22,1.54,1.54,0,0,0-.51.08,2,2,0,0,0-.45.22A2.39,2.39,0,0,0,35,1a3.55,3.55,0,0,0-.31.35q-.13.18-.24.34l-.15.25a.29.29,0,0,1-.09.11l-.09,0h-.1L34,2a.69.69,0,0,1-.15-.12l-.16-.16a.2.2,0,0,1-.06-.13.4.4,0,0,1,0-.12,1.21,1.21,0,0,1,.14-.22,2.74,2.74,0,0,1,.4-.4A3.47,3.47,0,0,1,35.53.12,3.23,3.23,0,0,1,36.38,0Z"/><path class="cls-1" d="M37.71,7.88a.22.22,0,0,0,0,.07l0,.06,0,.07a.65.65,0,0,1,0,.14.21.21,0,0,1-.08.16.25.25,0,0,1-.18.05l-.24,0-.2,0a.19.19,0,0,1-.1-.06.22.22,0,0,1,0-.09.47.47,0,0,1,0-.08s0-.1,0-.23,0-.33.1-.58.1-.51.15-.76.11-.5.16-.75l.16-.69.14-.59.09-.36,0-.14a.33.33,0,0,1,0-.09l.08-.07a.15.15,0,0,1,.11,0l.18.06.2.1a.21.21,0,0,1,.1.12.36.36,0,0,1,0,.18Q38.16,5.65,38,6.53T37.71,7.88Zm1.25-6a.63.63,0,0,1,.07.19,1,1,0,0,1,0,.25,1.26,1.26,0,0,1,0,.27.77.77,0,0,1-.11.25.57.57,0,0,1-.19.18.53.53,0,0,1-.27.07.69.69,0,0,1-.26,0A.5.5,0,0,1,38,3a.51.51,0,0,1-.1-.15l0-.13a.36.36,0,0,1,0-.09.39.39,0,0,1,0-.08.3.3,0,0,1,0-.08A.14.14,0,0,1,38,2.37l.11,0,.07,0a.08.08,0,0,0,0,0,.5.5,0,0,1,.09-.35.45.45,0,0,1,.24-.16.48.48,0,0,1,.28,0A.38.38,0,0,1,39,1.91Z"/><path class="cls-1" d="M40.82,7.65l.11,0,.08.07a.2.2,0,0,1,0,.13A1.06,1.06,0,0,1,41,8v.07a.06.06,0,0,1,0,0l-.06,0h-.12l-.25,0h-.48a4.27,4.27,0,0,0-.59.06,3.14,3.14,0,0,0-.48.11.32.32,0,0,1-.29,0,.57.57,0,0,1-.16-.21.85.85,0,0,1-.08-.32.91.91,0,0,1,.07-.39,5.52,5.52,0,0,1,.28-.57q.2-.37.49-.8a10.82,10.82,0,0,1,.67-.9,8.85,8.85,0,0,1,.79-.84s0,0,0,0h0l-.22,0L40,4.33l-.43.09-.12,0,0,0,0,0,0,.08a.12.12,0,0,1,0,.06l-.1,0a.15.15,0,0,1-.15-.09A.7.7,0,0,1,39,4.4a1.25,1.25,0,0,1,0-.2A1.59,1.59,0,0,1,39,4q0-.08,0-.15a.15.15,0,0,1,.08-.11,2.17,2.17,0,0,1,.44-.11,6,6,0,0,1,.89-.09h.67l.22,0,.12,0a.26.26,0,0,1,.1.09.25.25,0,0,1,0,.11,1.16,1.16,0,0,1,0,.13.38.38,0,0,1,0,.14l-.06.12-.12.15-.23.27-.33.4-.38.51q-.2.28-.4.58c-.13.21-.26.42-.37.64a5,5,0,0,0-.25.51.85.85,0,0,0-.07.21s0,0,.13,0l.53,0Q40.45,7.58,40.82,7.65Z"/><path class="cls-1" d="M43.63,7.65l.11,0,.08.07a.2.2,0,0,1,0,.13,1.06,1.06,0,0,1,0,.14v.07a.06.06,0,0,1,0,0l-.06,0h-.12l-.25,0h-.48a4.27,4.27,0,0,0-.59.06,3.14,3.14,0,0,0-.48.11.32.32,0,0,1-.29,0,.57.57,0,0,1-.16-.21.85.85,0,0,1-.08-.32.91.91,0,0,1,.07-.39,5.52,5.52,0,0,1,.28-.57q.2-.37.49-.8a10.82,10.82,0,0,1,.67-.9,8.85,8.85,0,0,1,.79-.84s0,0,0,0h0l-.22,0-.53.09-.43.09-.12,0,0,0,0,0,0,.08a.12.12,0,0,1,0,.06l-.1,0a.15.15,0,0,1-.15-.09.7.7,0,0,1-.07-.2,1.25,1.25,0,0,1,0-.2,1.59,1.59,0,0,1,0-.17q0-.08,0-.15a.15.15,0,0,1,.08-.11,2.17,2.17,0,0,1,.44-.11,6,6,0,0,1,.89-.09h.67l.22,0,.12,0a.26.26,0,0,1,.1.09.25.25,0,0,1,0,.11,1.16,1.16,0,0,1,0,.13.38.38,0,0,1,0,.14l-.06.12-.12.15L44,4.61l-.33.4-.38.51q-.2.28-.4.58c-.13.21-.26.42-.37.64a5,5,0,0,0-.25.51.85.85,0,0,0-.07.21s0,0,.13,0l.53,0Q43.25,7.58,43.63,7.65Z"/><path class="cls-1" d="M47.69,3.85l.09.11a.14.14,0,0,1,0,.15q-.3.63-.5,1.16t-.31,1a6.82,6.82,0,0,0-.16.78c0,.23-.05.43-.06.6a.36.36,0,0,0,0,.15.15.15,0,0,0,.06.07l.07,0,.07,0A.09.09,0,0,1,47,8a.45.45,0,0,1,0,.14.21.21,0,0,1-.1.14l-.17.08-.23.06-.26,0c-.08,0-.13,0-.15-.07a.47.47,0,0,1,0-.11V8.14s0-.06,0-.1,0,0,0,0l-.12.11a1.55,1.55,0,0,1-.29.18,1,1,0,0,1-.47.11.76.76,0,0,1-.36-.08.85.85,0,0,1-.26-.21,1.11,1.11,0,0,1-.17-.29,1.88,1.88,0,0,1-.1-.32,2.48,2.48,0,0,1,0-.29q0-.13,0-.26c0-.09,0-.24,0-.46a5.68,5.68,0,0,1,.12-.72,6,6,0,0,1,.25-.8A3,3,0,0,1,45,4.24a2.12,2.12,0,0,1,.61-.54,1.64,1.64,0,0,1,.85-.21.56.56,0,0,1,.35.1.65.65,0,0,1,.19.24.8.8,0,0,1,.13-.19s.11,0,.23,0A.88.88,0,0,1,47.69,3.85ZM45.24,8.06c.11,0,.22-.08.32-.25a3.6,3.6,0,0,0,.29-.63q.14-.38.27-.84l.23-.76.15-.47.11-.32h-.16a.13.13,0,0,1-.08,0,.11.11,0,0,1,0-.06.22.22,0,0,1,0-.06.43.43,0,0,1,0-.09l.06-.18a2,2,0,0,0,.05-.24.55.55,0,0,0,0-.2.09.09,0,0,0-.09-.08.38.38,0,0,0-.2.12,2.14,2.14,0,0,0-.29.33,4.55,4.55,0,0,0-.32.52,4.82,4.82,0,0,0-.3.69,5.73,5.73,0,0,0-.22.83,5.09,5.09,0,0,0-.08.95,1.53,1.53,0,0,0,.09.59C45.11,8,45.17,8.06,45.24,8.06Z"/><path class="cls-1" d="M52.63,1a9.92,9.92,0,0,0-.82.87,5.51,5.51,0,0,0-.62.92A4.67,4.67,0,0,0,50.64,5a7.45,7.45,0,0,0,.11,1.37A13.19,13.19,0,0,0,51.15,8q0,.14,0,.16a.4.4,0,0,1-.2,0l-.24-.09L50.5,8l-.11-.11a.37.37,0,0,1-.08-.14l-.2-.79a7.63,7.63,0,0,1-.18-1,6.34,6.34,0,0,1,0-1.08,4.57,4.57,0,0,1,.22-1.17,5.34,5.34,0,0,1,.59-1.23,6.2,6.2,0,0,1,1.08-1.25l.07,0,.08,0,.09,0A.69.69,0,0,1,52.25,1l.16,0,.12,0h.11s0,0,0,0S52.67,1,52.63,1Z"/><path class="cls-1" d="M54.55,3.62a2.26,2.26,0,0,1,0,.36,1.26,1.26,0,0,1-.07.33.89.89,0,0,1-.08.17l-.08.07a.26.26,0,0,1-.14,0,.16.16,0,0,1-.12,0,.29.29,0,0,1,0-.08.28.28,0,0,0,0-.08s-.06,0-.14,0l-.27,0a1.63,1.63,0,0,0-.3.12,1.69,1.69,0,0,0-.3.2,1,1,0,0,0-.22.23q-.07.11-.06.14l.05,0,.17,0a1.52,1.52,0,0,1,.33.08.83.83,0,0,1,.35.25,1.18,1.18,0,0,1,.23.5,1.77,1.77,0,0,1,0,.69,2.85,2.85,0,0,1-.17.65,2,2,0,0,1-.31.51,1.67,1.67,0,0,1-.48.39,1.37,1.37,0,0,1-.67.16.65.65,0,0,1-.5-.17.8.8,0,0,1-.21-.42,1.74,1.74,0,0,1,0-.53q0-.28.06-.39a.28.28,0,0,1,.07-.15.23.23,0,0,1,.1-.05h.11a1.18,1.18,0,0,1,0-.14l0-.1s.05,0,.11,0l.16,0,.13,0a.12.12,0,0,1,.07.05.17.17,0,0,1,0,.06.33.33,0,0,1,0,.06l0,.11-.09.32a3.89,3.89,0,0,0-.1.46,1.34,1.34,0,0,0,0,.38q0,.16.15.16A.3.3,0,0,0,52.5,8a.76.76,0,0,0,.16-.2,1.78,1.78,0,0,0,.13-.29q.06-.16.1-.32T53,6.9q0-.16,0-.29a1.59,1.59,0,0,0,0-.32,1,1,0,0,0-.11-.38.94.94,0,0,0-.29-.33,1.27,1.27,0,0,0-.54-.2A.23.23,0,0,1,52,5.3a.26.26,0,0,1,0-.12.37.37,0,0,1,0-.12A1.18,1.18,0,0,1,52,4.88a2.44,2.44,0,0,1,.19-.35,1.91,1.91,0,0,1,.41-.47,2.6,2.6,0,0,1,.66-.39,3,3,0,0,1,.9-.22h.17l.11,0,.1.05A.14.14,0,0,1,54.55,3.62Z"/><path class="cls-1" d="M55.22,6.18s0,0,0,0a.12.12,0,0,0,0,.05c0,.2-.06.38-.08.55a3.67,3.67,0,0,0,0,.38q0,.13,0,.28a2.33,2.33,0,0,0,0,.31,1.27,1.27,0,0,0,.07.26c0,.07.07.11.13.11s.09,0,.14-.1a1.19,1.19,0,0,0,.11-.18,2.13,2.13,0,0,0,.08-.2c0-.08.05-.16.07-.25a.26.26,0,0,1,.08-.16.14.14,0,0,1,.11,0l.12,0,.13,0,.13.06.11.07a.16.16,0,0,1,.06.11.36.36,0,0,1-.08.21,1.93,1.93,0,0,1-.25.31,1.55,1.55,0,0,1-.28.25,1.2,1.2,0,0,1-.27.13,1.07,1.07,0,0,1-.33,0,.82.82,0,0,1-.41-.1,1,1,0,0,1-.31-.28,1.29,1.29,0,0,1-.2-.41,1.62,1.62,0,0,1-.07-.44c0-.14,0-.28,0-.44s0-.33,0-.52.06-.39.11-.6A5.56,5.56,0,0,1,54.6,5a3.52,3.52,0,0,1,.27-.59,2.24,2.24,0,0,1,.38-.5,1.74,1.74,0,0,1,.51-.34,1.57,1.57,0,0,1,.65-.13.64.64,0,0,1,.41.13.83.83,0,0,1,.25.34,1.41,1.41,0,0,1,.1.48,2.43,2.43,0,0,1,0,.55,2.52,2.52,0,0,1-.17.55,2,2,0,0,1-.3.48,1.43,1.43,0,0,1-.42.34,1.1,1.1,0,0,1-.53.13h-.16a.4.4,0,0,1-.23-.11A.5.5,0,0,1,55.22,6.18Zm0-.3a.25.25,0,0,0,0,.07.09.09,0,0,0,0,.08l.09,0,.09,0a.41.41,0,0,0,.3-.17A2,2,0,0,0,56,5.5,4.07,4.07,0,0,0,56.27,5a4.29,4.29,0,0,0,.15-.54,1.45,1.45,0,0,0,0-.42q0-.17-.12-.17A.46.46,0,0,0,56,4a2.17,2.17,0,0,0-.3.48,4.74,4.74,0,0,0-.25.67Q55.31,5.53,55.24,5.88Z"/><path class="cls-1" d="M59.75,3.92q0,.09,0,.15s0,.08,0,.13a.68.68,0,0,1,0,.16q0,.08-.15.1a.5.5,0,0,1-.22,0l-.15-.05-.09,0s-.08,0-.15.09a1.41,1.41,0,0,0-.23.28,3.43,3.43,0,0,0-.22.39,4.34,4.34,0,0,0-.18.41c-.05.14-.1.28-.14.43s-.09.34-.14.59-.09.49-.13.72-.08.46-.1.65l-.06.39a.23.23,0,0,1-.06.13l-.09.06-.11,0H57.4l-.18,0-.17-.05A.15.15,0,0,1,57,8.37l0-.06a.21.21,0,0,1,0-.07l0-.17c0-.09,0-.26.1-.52l.17-.81.19-.89L57.63,5l.17-.74.11-.48A.38.38,0,0,1,58,3.57a.13.13,0,0,1,.1,0l.11,0,.13.05.13.07.11.07a.21.21,0,0,1,.07.07.24.24,0,0,1,0,.08.26.26,0,0,1,0,.06l0,.1,0,.13a.23.23,0,0,0,0,.07h0l0-.06A2,2,0,0,1,59,3.77l.25-.2.12-.06.11,0,.11,0a.18.18,0,0,1,.08.13,1.57,1.57,0,0,1,0,.16Z"/><path class="cls-1" d="M62.65,3.77a.53.53,0,0,1,0,.19.56.56,0,0,1-.12.23l-.35.51q-.25.37-.53.89t-.58,1.19a13.53,13.53,0,0,0-.54,1.45.2.2,0,0,1-.22.15A1.14,1.14,0,0,1,60,8.31a.93.93,0,0,1-.23-.12.33.33,0,0,1-.1-.12.66.66,0,0,1,0-.2q0-.14,0-.41t0-.61c0-.23,0-.47,0-.74s0-.53.06-.81.07-.55.11-.83a5.32,5.32,0,0,1,.15-.65,1.35,1.35,0,0,1,.11-.29.14.14,0,0,1,.11-.06h.16l.18,0,.21,0a.87.87,0,0,1,.21.08.28.28,0,0,1,.12.13q0,.08-.05.18l-.14.15-.09.08a.41.41,0,0,0-.06.1,1.8,1.8,0,0,0-.07.25q0,.19-.11.52t-.12.71q0,.38-.08.82c0,.29,0,.6,0,.93a.23.23,0,0,0,0,.07s0,0,0,0a.25.25,0,0,0,0-.09c0-.18.08-.42.15-.72a9.07,9.07,0,0,1,.31-1,9.36,9.36,0,0,1,.52-1.15,6.18,6.18,0,0,1,.56-.91l.28-.34.07,0h.08a.17.17,0,0,1,.1.06,1.23,1.23,0,0,1,.14.18A.71.71,0,0,1,62.65,3.77Z"/><path class="cls-1" d="M63.15,6.18s0,0,0,0a.12.12,0,0,0,0,.05c0,.2-.06.38-.08.55a3.67,3.67,0,0,0,0,.38q0,.13,0,.28a2.33,2.33,0,0,0,0,.31A1.27,1.27,0,0,0,63.1,8c0,.07.07.11.13.11s.09,0,.14-.1a1.19,1.19,0,0,0,.11-.18,2.13,2.13,0,0,0,.08-.2c0-.08.05-.16.07-.25a.26.26,0,0,1,.08-.16.14.14,0,0,1,.11,0l.12,0,.13,0,.13.06.11.07a.16.16,0,0,1,.06.11.36.36,0,0,1-.08.21A1.93,1.93,0,0,1,64,8a1.55,1.55,0,0,1-.28.25,1.2,1.2,0,0,1-.27.13,1.07,1.07,0,0,1-.33,0,.82.82,0,0,1-.41-.1,1,1,0,0,1-.31-.28,1.29,1.29,0,0,1-.2-.41,1.62,1.62,0,0,1-.07-.44c0-.14,0-.28,0-.44s0-.33,0-.52.06-.39.11-.6A5.56,5.56,0,0,1,62.53,5a3.52,3.52,0,0,1,.27-.59,2.24,2.24,0,0,1,.38-.5,1.74,1.74,0,0,1,.51-.34,1.57,1.57,0,0,1,.65-.13.64.64,0,0,1,.41.13.83.83,0,0,1,.25.34,1.41,1.41,0,0,1,.1.48,2.43,2.43,0,0,1,0,.55,2.52,2.52,0,0,1-.17.55,2,2,0,0,1-.3.48,1.43,1.43,0,0,1-.42.34,1.1,1.1,0,0,1-.53.13h-.16a.4.4,0,0,1-.23-.11A.5.5,0,0,1,63.15,6.18Zm0-.3a.25.25,0,0,0,0,.07.09.09,0,0,0,0,.08l.09,0,.09,0a.41.41,0,0,0,.3-.17A2,2,0,0,0,64,5.5,4.07,4.07,0,0,0,64.2,5a4.29,4.29,0,0,0,.15-.54,1.45,1.45,0,0,0,0-.42q0-.17-.12-.17a.46.46,0,0,0-.35.19,2.17,2.17,0,0,0-.3.48,4.74,4.74,0,0,0-.25.67Q63.24,5.53,63.16,5.88Z"/><path class="cls-1" d="M67.88,3.62a2.26,2.26,0,0,1,0,.36,1.26,1.26,0,0,1-.07.33.89.89,0,0,1-.08.17l-.08.07a.26.26,0,0,1-.14,0,.16.16,0,0,1-.12,0,.29.29,0,0,1,0-.08.28.28,0,0,0,0-.08s-.06,0-.14,0l-.27,0a1.63,1.63,0,0,0-.3.12,1.69,1.69,0,0,0-.3.2,1,1,0,0,0-.22.23q-.07.11-.06.14l.05,0,.17,0a1.52,1.52,0,0,1,.33.08.83.83,0,0,1,.35.25,1.18,1.18,0,0,1,.23.5,1.77,1.77,0,0,1,0,.69,2.85,2.85,0,0,1-.17.65,2,2,0,0,1-.31.51,1.67,1.67,0,0,1-.48.39,1.37,1.37,0,0,1-.67.16.65.65,0,0,1-.5-.17.8.8,0,0,1-.21-.42,1.74,1.74,0,0,1,0-.53q0-.28.06-.39a.28.28,0,0,1,.07-.15A.23.23,0,0,1,65,6.7h.11a1.18,1.18,0,0,1,0-.14l0-.1s.05,0,.11,0l.16,0,.13,0a.12.12,0,0,1,.07.05.17.17,0,0,1,0,.06.33.33,0,0,1,0,.06l0,.11-.09.32a3.89,3.89,0,0,0-.1.46,1.34,1.34,0,0,0,0,.38q0,.16.15.16a.3.3,0,0,0,.2-.08.76.76,0,0,0,.16-.2,1.78,1.78,0,0,0,.13-.29q.06-.16.1-.32t.08-.32q0-.16,0-.29a1.59,1.59,0,0,0,0-.32,1,1,0,0,0-.11-.38A.94.94,0,0,0,66,5.58a1.27,1.27,0,0,0-.54-.2.23.23,0,0,1-.13-.08.26.26,0,0,1,0-.12.37.37,0,0,1,0-.12,1.18,1.18,0,0,1,.05-.17,2.44,2.44,0,0,1,.19-.35,1.91,1.91,0,0,1,.41-.47,2.6,2.6,0,0,1,.66-.39,3,3,0,0,1,.9-.22h.17l.11,0,.1.05A.14.14,0,0,1,67.88,3.62Z"/><path class="cls-1" d="M73.05.16a1.14,1.14,0,0,1,.72.2.94.94,0,0,1,.33.51,1.88,1.88,0,0,1,0,.72A5,5,0,0,1,74,2.4a7.42,7.42,0,0,1-.3.8q-.17.39-.32.68t-.28.52q-.14.24-.3.48t-.37.51L71.89,6l-.67.79-.89,1a.15.15,0,0,0,0,.06s0,0,0,0h.42l.43,0,.39-.06.3-.06.23-.07a.29.29,0,0,0,.14-.1l.06-.11a1.2,1.2,0,0,0,0-.14c0-.06,0-.1.06-.11l.08,0,.11,0h.16a.41.41,0,0,1,.16,0,.15.15,0,0,1,.08.14,1.74,1.74,0,0,1,0,.29,1.55,1.55,0,0,1-.09.37,1.17,1.17,0,0,1-.13.26.39.39,0,0,1-.22.12l-.5.09c-.22,0-.46.05-.71.07l-.77,0-.63,0a.52.52,0,0,1-.29-.08.58.58,0,0,1-.1-.14,1.39,1.39,0,0,1-.08-.19l-.07-.22a.35.35,0,0,1,0-.19.41.41,0,0,1,.1-.15l.28-.32.45-.55L70.77,6l.56-.73.53-.73q.25-.36.44-.65a7.31,7.31,0,0,0,.38-.69q.18-.37.32-.75a6.34,6.34,0,0,0,.23-.72,3.08,3.08,0,0,0,.09-.62.92.92,0,0,0-.07-.43A.27.27,0,0,0,73,.5a.74.74,0,0,0-.43.15,1.68,1.68,0,0,0-.39.39,3.31,3.31,0,0,0-.33.57,5.85,5.85,0,0,0-.26.69.19.19,0,0,0,0,.11l0,.08a.48.48,0,0,1,0,.13.8.8,0,0,1,0,.21q0,.13-.06.16l-.13,0h-.31L71,3l-.17,0a.17.17,0,0,1-.1-.07.35.35,0,0,1,0-.11.59.59,0,0,1,0-.13,2.07,2.07,0,0,1,0-.28,5.22,5.22,0,0,1,.2-.62A2.82,2.82,0,0,1,71.34,1a2.05,2.05,0,0,1,1.72-.8Z"/><path class="cls-1" d="M75.15,6.19a14.13,14.13,0,0,1-1.68,0s0-.09,0-.19a1,1,0,0,1,.12-.25.29.29,0,0,1,.19-.12l.37,0,.52,0,.5,0h.33q.1,0,.1.12a.79.79,0,0,1,0,.25,1,1,0,0,1-.11.25A.33.33,0,0,1,75.15,6.19Z"/><path class="cls-1" d="M80.43.36q.25,0,.3.11a.17.17,0,0,1,0,.16.47.47,0,0,1-.12.18l-.42.36-.72.62q-.4.35-.68.63t-.45.47l-.23.26a.42.42,0,0,0-.08.12s0,0,.06,0l.2-.06.3,0a.69.69,0,0,1,.54.22,1.2,1.2,0,0,1,.27.59,2.79,2.79,0,0,1,0,.83,5,5,0,0,1-.21,1,5.48,5.48,0,0,1-.41,1,4.22,4.22,0,0,1-.59.83,2.86,2.86,0,0,1-.74.59,1.79,1.79,0,0,1-.87.22.77.77,0,0,1-.45-.12.75.75,0,0,1-.25-.3,1.15,1.15,0,0,1-.1-.41,2.57,2.57,0,0,1,0-.46,4.31,4.31,0,0,1,.07-.44A3,3,0,0,1,76,6.35a.32.32,0,0,1,.08-.14l.13-.07.17-.05.17,0,.16,0h.12a.09.09,0,0,1,.06,0,.14.14,0,0,1,0,.06.18.18,0,0,1,0,.07l0,.12-.1.26q-.07.18-.13.37t-.09.38a1.28,1.28,0,0,0,0,.33.43.43,0,0,0,.08.24.24.24,0,0,0,.21.09.55.55,0,0,0,.38-.19,2.63,2.63,0,0,0,.38-.5,5.88,5.88,0,0,0,.36-.7,8,8,0,0,0,.3-.81A7.66,7.66,0,0,0,78.38,5a4,4,0,0,0,.08-.7,1.19,1.19,0,0,0-.08-.5.28.28,0,0,0-.27-.19,1.39,1.39,0,0,0-.5.11,3.68,3.68,0,0,0-.49.23,1.49,1.49,0,0,1-.33.15q-.11,0-.14,0s0-.06,0-.11a1.31,1.31,0,0,1,.17-.28q.15-.2.39-.49l.48-.56.47-.52.42-.44.34-.35.2-.2s0-.06,0-.07L79,1a2.76,2.76,0,0,0-.69,0,4.51,4.51,0,0,0-.58.13.63.63,0,0,0-.24.11l-.06.09-.05.08a.28.28,0,0,1-.14.06.19.19,0,0,1-.17,0A.32.32,0,0,1,77,1.39a1,1,0,0,1,0-.18q0-.09,0-.17a1.14,1.14,0,0,1,0-.16.43.43,0,0,1,0-.14.26.26,0,0,1,.06-.09l.07,0,.28-.08a6.86,6.86,0,0,1,.72-.13A8.51,8.51,0,0,1,79,.31q.43,0,.8,0Z"/><path class="cls-1" d="M81.5,1.06A4.59,4.59,0,0,1,82,2.48a4.63,4.63,0,0,1,0,1.58,7,7,0,0,1-.55,1.79,12.54,12.54,0,0,1-1.17,2,.48.48,0,0,1-.18.18.24.24,0,0,1-.13,0l-.07,0-.05,0-.07,0-.11-.06a.2.2,0,0,1-.09-.09.18.18,0,0,1,0-.1.3.3,0,0,1,0-.1l0-.09a.07.07,0,0,0,0-.06l0,0,0,0s0,0,0-.08a11.73,11.73,0,0,0,.92-1.43,8.43,8.43,0,0,0,.56-1.26,5.62,5.62,0,0,0,.26-1.09,4.73,4.73,0,0,0,0-.94,4.32,4.32,0,0,0-.13-.81,6.8,6.8,0,0,0-.23-.71.18.18,0,0,1,0-.1s0-.05,0-.06h.19l.11,0A.16.16,0,0,1,81.5,1.06Z"/></svg>