<svg id="Layer_1" data-name="Layer 1" xmlns="http://www.w3.org/2000/svg" viewBox="0 0 233.38 317.96"><defs><style>.cls-1{fill:#fff;}</style></defs><title>lilnonnas_standalone2</title><path class="cls-1" d="M216.15,128.57c.27,0,.61,0,.8.13,1,.81,2,1.68,3,2.49a4.43,4.43,0,0,1,1.36,3.13c.18,1.16.31,2.33.52,3.49a4.07,4.07,0,0,0,2.14,2.78c1.54,1,2,2.91,2,4.71s-.19,3.72-.32,5.58a21.5,21.5,0,0,0,.83,8.85c.46,1.3.11,2.9.1,4.37,0,.39-.19.78-.17,1.17.1,2.31.29,4.61.32,6.92a5.9,5.9,0,0,1-.52,2.4c-1.72,3.9-3.53,7.76-5.28,11.65a23.6,23.6,0,0,0-.92,2.53c-.69,2.18-2.54,3.11-4.38,4a54.55,54.55,0,0,1-9.36,3.46c-2.12.57-3.81-.06-5.7-.49-3-.68-5.88-1.95-9.05-1.87a5.59,5.59,0,0,1-1.68-.46l-5-1.59c.38,1,.68,1.82,1,2.63.88,2.13,2.1,4.13,2.12,6.56a38.37,38.37,0,0,0,.48,4.49c.25,1.95,1.95,2.57,3.33,3.39,1.88,1.12,3.85,2.07,5.79,3.07a2.15,2.15,0,0,0,.89.29,9.66,9.66,0,0,1,5.17,2c1.42.94,3.07,1.54,4.54,2.42,2.7,1.6,5.4,3.21,8,5a17.58,17.58,0,0,1,2.54,2.83,13.71,13.71,0,0,0,5.17,3.43,7.49,7.49,0,0,1,4.44,4.92c1.24,3.54,2.82,7,4.16,10.46a10.76,10.76,0,0,1,.7,3.36,58,58,0,0,1,0,7.67c-.32,3.4-.65,6.86-2.67,9.82-.11.16-.22.33-.35.48-2.11,2.59-4.3,5.11-6.3,7.78-.87,1.17-1.26,2.68-2,3.94a28.79,28.79,0,0,1-2.7,3.63,4.6,4.6,0,0,1-1.6.91,10.6,10.6,0,0,0-3.16,2.48c-1.63,1.69-3.21,3.6-5.56,4.48-.35.13-.8.42-.88.72-.42,1.55-1.69,2.25-2.86,3.08s-2.61,1.88-3.89,2.85a41.27,41.27,0,0,1-8.3,5.25c-3.13,1.35-6.2,2.85-9.36,4.14a42.56,42.56,0,0,1-4.77,1.33c-.49.14-1,.36-1.46.47-2.39.53-4.78,1-7.17,1.56-3.18.71-6.44,1.09-9.42,2.6-2.63,1.33-5.6,1.39-8.47,1.71a12.7,12.7,0,0,0-5.64,1.56,7.48,7.48,0,0,1-2.2.52c-2.15.51-4.3,1-6.45,1.54a6.15,6.15,0,0,1-1.3.15c-2.56,0-5.12.12-7.68.06a76.72,76.72,0,0,0-11,1,27,27,0,0,1-3.22-.07c-2,0-4,0-6,0-.28,0-.55.09-.83.11-3.38.21-6.76.37-10.14.64-2.65.21-5.29.63-7.95.83a25.1,25.1,0,0,1-3.67-.21c-.36,0-.71-.12-1.06-.15-2.77-.2-5.56-.22-8.3-.65a52.07,52.07,0,0,1-6.13-1.78c-2.31-.66-4.6-1.45-7-1.89-3.74-.7-7.53-1.14-11.29-1.72a57.06,57.06,0,0,1-5.85-1.05c-1.74-.46-3.4-1.23-5.09-1.86a2.3,2.3,0,0,0-.68-.18,28.07,28.07,0,0,1-10.89-3,53.52,53.52,0,0,1-12.09-7.33,50.23,50.23,0,0,0-5-3.23,4.14,4.14,0,0,1-1.08-1.15c-1.66-2.46-3.31-4.92-4.9-7.42a15.07,15.07,0,0,1-1.46-2.92,34.26,34.26,0,0,0-4.12-8.63,1.89,1.89,0,0,1-.24-1,17.37,17.37,0,0,0-.8-5.7c-.55-1.49-.06-3.38,0-5.09a22.51,22.51,0,0,0,.18-3.31,8.24,8.24,0,0,1,2.9-7.33A7.71,7.71,0,0,0,6,247.54a11.8,11.8,0,0,1,4.54-7.72c2.08-1.52,4.36-2.76,6.49-4.22,1.07-.74,2-1.7,3-2.52.44-.36,1-.64,1.58-1A56,56,0,0,1,18,226.33a27.91,27.91,0,0,1-1.86-5.81c-.76-3.32-.35-6.83-1.57-10.1a14.12,14.12,0,0,1-.56-3c-.22-1.65-.31-3.32-.6-5A49.88,49.88,0,0,1,13,190.52c.15-2.41.62-4.8.9-7.21.53-4.47,2.2-8.6,3.78-12.75.94-2.46,1.88-4.92,2.68-7.43.71-2.2,1.22-4.46,1.84-6.69a28.15,28.15,0,0,1,7.34-12.9,104.24,104.24,0,0,1,8.89-8.13c2.25-1.74,5-2.84,7.55-4.2a22.52,22.52,0,0,1,3.17-1.56c1.29-.45,2.67-.64,4-1a2.69,2.69,0,0,0,1.3-.69,6.21,6.21,0,0,1,4.82-2,5.83,5.83,0,0,0,3.52-1.06c.76-.54,1.73-.77,2.52-1.27a14.44,14.44,0,0,0,1.8-1.55c.18-.16.3-.44.5-.5a7,7,0,0,0,3-2.18c1.14-1.19,2.9-.87,4.54.76a5.15,5.15,0,0,0-.2-1.27c-.86-1.7-1.74-3.4-2.67-5.07-.12-.21-.71-.41-.82-.32a5.37,5.37,0,0,1-4,1,73.38,73.38,0,0,1-8-.6,25.73,25.73,0,0,1-5.24-1.8,29.88,29.88,0,0,1-4-1.91,11.55,11.55,0,0,1-4.38-5,16.19,16.19,0,0,1-2.09-6.31,12.84,12.84,0,0,1,2.69-9.41,12.81,12.81,0,0,1,1.16-1.09l-2.24-3.07c-1.61-2.22-1.1-4.5-.21-6.8,1-2.61,3.36-3.71,5.59-4.88,1.73-.91,3.55-1.64,5.34-2.43a2.62,2.62,0,0,1,1.11-.3c2.37.12,4.74.29,7.11.44l.95.06c0-2.58-1.47-5.95-4.31-6.38-1.06-.16-2.24.39-3.37.62-.62.13-1.24.3-1.87.37a44.76,44.76,0,0,1-5.19.47,11.58,11.58,0,0,1-4.53-.66,10.36,10.36,0,0,1-3.2-2.84c-1.23-1.4-2.31-2.94-3.4-4.46a21.23,21.23,0,0,1-2.4-3.78c-.23-.54.26-1.59.71-2.18a31,31,0,0,1,3-3.26,4.92,4.92,0,0,0,1.5-2.95,64.52,64.52,0,0,1,1.68-8.38c.52-1.76,1.74-3.31,2.56-5,1.13-2.32,2.17-4.69,3.28-7a59.16,59.16,0,0,1,5.79-10c1.62-2.18,3.43-4.26,6-5.33a21.14,21.14,0,0,1,6.45-1.83A44.14,44.14,0,0,0,78.44,7c1.51-.49,2.78-1.73,4.13-2.68s2.68-2.15,4.13-3C88.91-.11,92.1.58,94.28,3c1.57,1.76,3.42,1.69,5.32,1.24a17.54,17.54,0,0,0,4-1.65A18.93,18.93,0,0,1,110.32.48c.3,0,.58-.31.87-.48h1.68c.13.17.22.41.39.48a10.11,10.11,0,0,1,4.11,3.14c1.55,1.92,3.56,3.46,5.22,5.3,2,2.25,4.82,2.3,7.42,3a14.93,14.93,0,0,1,3.79,1.7c1.69,1.05,1.92,1.24,3.4.43,2.89-1.6,5.72-1.21,8.53.22a7.4,7.4,0,0,1,3.54,3.59,3,3,0,0,1,.32,1.1,18.1,18.1,0,0,0,1.88,7c1.08,2.43-.28,5.49-2.87,5.88-1.22.18-2.48,1-3.79.13-.1-.07-.82.4-.83.64a28.16,28.16,0,0,0-.07,5.57,10.7,10.7,0,0,1-.58,5.09,5.71,5.71,0,0,0,0,2.9c.32,1.42.93,2.76,1.37,4.16.23.74.3,1.53.53,2.27a24.86,24.86,0,0,0,1.24,3.4,4.8,4.8,0,0,1,.19,3.48c-.27,1-.62,2.06-.8,3.12a2,2,0,0,0,.28,1.43c1.27,1.66,1.46,3.66,1.73,5.57a14.62,14.62,0,0,1,0,5,62,62,0,0,1-2.22,6.95c-.07.21-.39.33-.61.5-.46-1.77-.87-3.49-1.36-5.19a9.46,9.46,0,0,0-3.07-5.13,3.83,3.83,0,0,0-2.68-1,19,19,0,0,1-9.61-2.19C123.35,66,120,61.87,117.41,57c-.33-.61-.61-1.24-1.09-2.24a22,22,0,0,0-2.37,3.31,17.09,17.09,0,0,1-6,7.08,15,15,0,0,1-7.87,3,67.16,67.16,0,0,0-9.65.63,26.82,26.82,0,0,0-7,2.71,25.91,25.91,0,0,0-9.06,7.46c-.69.9-1.23,1.92-1.83,2.89l.3.33a6.12,6.12,0,0,0,1.16-.27c1.17-.52,1.71-.3,2.12.9.73,2.14.73,2.12-1.57,2.62a7.92,7.92,0,0,0-2,.65c-.35.18-.54.68-.77,1.05s-.33.65-.49,1L71,88q-.37-1.66-.74-3.33a5.1,5.1,0,0,0-3.45-4c-2.15-.76-5.16,1.18-5.33,3.44a11.69,11.69,0,0,0,1.87,7.77,6.74,6.74,0,0,1,1.2,6c-.37,1.24.36,1.92,1.62,1.58a5.06,5.06,0,0,1,4,.55,10.47,10.47,0,0,0,.37-1.58c.1-1.39.09-2.8.23-4.19a8.9,8.9,0,0,1,.59-1.83l.47.08a10.55,10.55,0,0,1-.22,2.7c-.78,2.22-.26,4.32.35,6.41.53,1.81,1.26,3.56,2,5.32.41,1.05,1,2,1.33,3.12a19.32,19.32,0,0,1,.43,3l-.45.13-2.65-4.72-.29,0a15.64,15.64,0,0,0,.65,3.34c1.08,2.51,2.25,5,3.56,7.39a27.92,27.92,0,0,0,9.09,9.77c4.31,2.91,8.52,6,13.28,8.11a14.38,14.38,0,0,0,5.83,1.38c2.8,0,5.61.14,8.39-.05a19.49,19.49,0,0,0,6.25-1.17,36.1,36.1,0,0,0,7.32-4.33,32,32,0,0,0,5.7-5.46,20,20,0,0,0,2.94-5.54,45.2,45.2,0,0,1,4.28-7.77A39.39,39.39,0,0,0,142,109a12,12,0,0,0,1.08-3.09c.32-2.43.51-4.88.62-7.34.07-1.63-.18-3.28-.11-4.91a8.1,8.1,0,0,1,.73-2.73,12.76,12.76,0,0,1,1.76-2.8A42.94,42.94,0,0,0,146,98.35c2.41-3.53,2.54-7.35,1.36-11.34l.33-.13c.29.25.73.45.85.76a12.88,12.88,0,0,1,1.05,3.44c.18,2.45.28,4.95-1,7.21a8.31,8.31,0,0,1-.7,1.21c-.8,1-1.24,1.69-.06,2.9s0,3.63-1.51,4.08a3.27,3.27,0,0,0-2.13,2c-1.16,2.34-2.46,4.62-3.74,6.9-.51.9-1.15,1.72-1.66,2.62a2,2,0,0,0-.14,1.06c.58.17,1.49.53,1.76.28,1.86-1.78,3.87-.79,5.83-.48a1.67,1.67,0,0,1,.88.67c1.29,1.7,1.81,1.72,4,1.16a6.75,6.75,0,0,1,5,.66,34.57,34.57,0,0,0,3.61,1.39,8.56,8.56,0,0,1,1.58.76,28.78,28.78,0,0,1,8.94,8.68,2.9,2.9,0,0,0,2.11,1.21c2.77-.07,4.43,1.25,5.5,3.67.6,1.34,2,1.85,3.11,2.61,1.83,1.22,3.55,2.6,5.33,3.93.61-1.53,2-3,1.34-5.16a1.36,1.36,0,0,1,.23-1c1-1.43.51-2.77,0-4.21a34.24,34.24,0,0,1-1.4-4.76,5.09,5.09,0,0,1,.4-1.88c-.78-.11-1.74-.2-2.69-.38-4.17-.77-7.37-3.36-10.65-5.76-2-1.48-4-3.06-5.92-4.62-3.32-2.64-3.21-4.16-2.13-7.49.67-2.05,1.31-4.11,2-6.15a16.86,16.86,0,0,1,1-2c-1.34-1.22-.7-2.81-.3-4.33s1-3,1.41-4.48a2.71,2.71,0,0,1,2.52-2.1c2-.25,3.92-.66,5.9-.85a4.73,4.73,0,0,1,2,.55,16.06,16.06,0,0,1,1.64.86c.07,1,.73,1.09,1.55,1s1.13.63,1.21,1.3-.37.88-1,1a2.93,2.93,0,0,0-1.52.68,18,18,0,0,0-1.38,1.75,3.23,3.23,0,0,0-.5,2.83,11.18,11.18,0,0,0,.6,2.5c.21.5.77,1.22,1.15,1.2a7.3,7.3,0,0,0,2.45-.78c1.47-.65,2.88-1.41,4.36-2a1.48,1.48,0,0,1,2.23.73c-2.47-.25-4.14,1.19-5.82,2.45a5.74,5.74,0,0,1-4.22,1.42c-1-.12-1.29.35-1.69,1.07a40.63,40.63,0,0,1-2.65,4.28,3.66,3.66,0,0,0-.61,3.13,15.84,15.84,0,0,1,.34,2.32c0,.25-.31.51-.48.77a2.46,2.46,0,0,1-.41-.74,12.83,12.83,0,0,0-.18-1.9c-.19-.6-.64-1.61-1-1.61-1.64,0-3.14-1.7-4.86-.39-.09.07-.33-.06-.64-.12a7.47,7.47,0,0,1,.65-.83,5.94,5.94,0,0,0,1.17-7.53,1.63,1.63,0,0,0-1.21-.56c-.19,0-.5.59-.58.95-.21,1-.27,2-.49,3s-.56,1.89-.85,2.84c-.49,1.58-.56,3.06.74,4.38,1,1,1.88,2.23,2.9,3.26a15.16,15.16,0,0,0,2.14,1.66c.69.49,1.46.87,2.13,1.38,3.77,2.86,7.79,5.1,12.69,5.13a4,4,0,0,1,3.36,1.82c.3.41.57.85.85,1.26a18.12,18.12,0,0,1,2.38-.81c3.19-.62,6.4-1.17,9.59-1.76,1.21-.22,1.74-1.05,1.22-2a13.74,13.74,0,0,1-1.61-6.85,9.22,9.22,0,0,0-.79-3.52c-1.09-2.57-2-5.17-1.72-8a48.64,48.64,0,0,1,1.05-5.94c.37-1.56,1.13-3,1.42-4.62a24.61,24.61,0,0,0,.47-5.65c-.12-2.35-.73-4.68-.91-7-.16-2.1,0-4.23,0-6.34a7.6,7.6,0,0,0-.61-1.93c-1.55,1-2.79,3.54-2.56,5a1.54,1.54,0,0,0,.37.71,1.29,1.29,0,0,1,0,1.83,4.38,4.38,0,0,0-1,3.42,12,12,0,0,1,.42,3,32,32,0,0,1-1.34,4.49,8.57,8.57,0,0,1-1.61-1.78,12.5,12.5,0,0,1-.67-2.65c-.43-1.89-.76-3.81-1.33-5.65-.47-1.52-1.37-2.91-1.84-4.44-.84-2.77-2.92-4.5-5-6.25-.42-.35-1.35-.21-2-.08a1.9,1.9,0,0,0-.1,1.49c1.21,1.68,2,3.92,4.75,3.8a2,2,0,0,1,.06.46.75.75,0,0,1-.15.44c-1.53,1.52-1,3.26-.54,5,.29,1.11.73,2,2.51,1.61-2.14,2.25-1.09,4.66-1.3,6.94l1.35.2.13.34-1.81,1.11a12.64,12.64,0,0,0-2.48,1.6c-.83.85-1.3,2.06-2.14,2.89a12.35,12.35,0,0,1-2.75,1.76c-.13.07-.47-.24-.69-.35,1.18-1.3,2.24-2.5,3.35-3.65a16.54,16.54,0,0,1,2-1.74,3.37,3.37,0,0,0,1.57-2.59A7.51,7.51,0,0,0,187,83.32a38,38,0,0,0-7.11-4.45,8.41,8.41,0,0,0-7.17,0c-1.07.41-1.13,1-.28,1.72s2.89,1.45,4.18.71a10.77,10.77,0,0,1,2.4-.74c0,.48-.08.71-.23.78-1.23.64-.68,1.35,0,1.82,1.5,1,2.84,2.51,5,1.85.2-.06.5.21.76.33-.13.2-.23.52-.4.57a2.06,2.06,0,0,0-1.63,2.59c.13.78-.1,1.34-1,1.29-.18-1-.33-2-.54-3a1.48,1.48,0,0,0-.43-.77c-.65-.57-1.41-1-2-1.63a5,5,0,0,0-3.91-1.73A3.92,3.92,0,0,1,171.09,80a2.2,2.2,0,0,1,1.72-2.65,28,28,0,0,1,4.74-.47,7.64,7.64,0,0,1,3.33.9c2.15,1.17,4.19,2.55,6.27,3.87A4.1,4.1,0,0,1,189,84.2a4.61,4.61,0,0,0,.71,1.18l.38-.11a3.85,3.85,0,0,0-.26-1.32,10.08,10.08,0,0,1-1.52-5.63c0-.66-.72-1.37-1.22-2a40.11,40.11,0,0,1-2.93-3.3c-1-1.43-.76-2.65.23-3.53a3,3,0,0,1,3.73,0,16.84,16.84,0,0,1,6.78,8c.91,2.37,1.81,4.75,2.65,7.14a6,6,0,0,1,.08,1.67c0,.74.36.88,1,.51-1.16-2.27-.6-4.4.32-6.53a1.66,1.66,0,0,0,.14-1.24c-1-1.55,0-2.93.3-4.34a6.33,6.33,0,0,1,.95-1.87,2.16,2.16,0,0,1,2.44-1.07c1,.19,1.08,1.11,1.17,1.84.23,2,.28,4.06.51,6.08.31,2.68.91,5.34,1,8a27.4,27.4,0,0,1-.6,5.88c-.38,2.25-1,4.48-1.45,6.71-.19.88-.3,1.79-.54,2.66-.95,3.32.42,6.31,1.27,9.38a18.24,18.24,0,0,1,.88,4.42c0,2.25,1.24,4,2,6,.07.2.51.26.77.39l.85.43c-.16.3-.24.74-.48.87a38.83,38.83,0,0,1-3.8,1.88c-3,1.25-6.29,1.17-9.48,1.4a14.26,14.26,0,0,0-1.67.15,2.59,2.59,0,0,0-2,2.8c.1.79.34,1.57.43,2.36,0,.28-.23.58-.35.87-.26-.16-.74-.31-.75-.49a23.7,23.7,0,0,1-.12-4c.07-.77.42-1.52-.39-2-.42-.26-1.3-.54-1.42-.39a2.4,2.4,0,0,0-.58,1.71c.28,1.2.92,2.32,1.27,3.51a8,8,0,0,1-.08,4.94,2.14,2.14,0,0,0-.2,1.25c.66,1.67,0,3.07-.73,4.51-.17.34,24.35,30,24.38,30.34.24,2.67-24.9-24-25.89-21.56a12.69,12.69,0,0,1-.77,1.56,4.14,4.14,0,0,0-.51,3.75,5.5,5.5,0,0,1,.17,1.09c-1.06-.64-1.58-2.51-1.17-4s.84-2.64,1.3-4.06c-1.67.22-2.29,2.47-4.27,2.17.56-2,2.18-2.84,3.69-3.76a9.05,9.05,0,0,0,1-.85c-.27-.31-.51-.64-.8-.91-1-1-2-1.91-3.08-2.83-1.29-1.12-2.61-2.2-3.91-3.3l-.4.12.36,2.73c-.3-.24-.65-.38-.77-.63-.75-1.67-1.37-3.4-2.21-5a7.94,7.94,0,0,0-1.86-2.08c-.25-.23-.77-.15-1.27-.23l1.52,3.62-.27.16c-.22-.15-.53-.25-.63-.46-1.11-2.14-3-3.52-4.66-5.2A12.59,12.59,0,0,1,166.9,131c-.56-1-1.13-2-1.78-2.92-.83-1.2-2.26-1.44-3.48-2-2.55-1.19-5-2.48-7.63-3.57a13.73,13.73,0,0,0-3.21-.51c.09.42.07.53.12.56,1.76,1.5,1.81,1.52.64,3.58a2.08,2.08,0,0,0,.18,2.67c1.54,2,3,4.1,4.38,6.2,1.63,2.43,4,3.94,6.46,5.36,2.71,1.6,5.69,2.73,8.39,4.33a36.66,36.66,0,0,1,9.09,7.54,31.71,31.71,0,0,1,5.47,8.48,28.18,28.18,0,0,1,.8,2.84,5.28,5.28,0,0,0,.6,1.53,48.26,48.26,0,0,0,8.31,9.51,5.3,5.3,0,0,1,1,1.33,3.93,3.93,0,0,1,.29.91c-.36,0-.85.22-1.07.05a29.06,29.06,0,0,1-4.29-3.56,53.24,53.24,0,0,1-3.7-5.32,2.55,2.55,0,0,0,.16,2.25c.88,1.53,1.81,3,2.69,4.56a6.69,6.69,0,0,1,.42,1.23l-.38.26-3.25-2.92-.92,3.73,1.85-.83-.46,2.48,3.12.82-2,3.24.45.45a14.45,14.45,0,0,0,1.48-1c.59-.5,1.07-1.15,1.69-1.59.31-.21.85-.09,1.29-.12,0,.46.08,1.09-.17,1.36a5,5,0,0,0-1.75,4c.85-.33,1.59-.57,2.28-.9s1.06-.67,1.6-1,1-.77,1.54,0,.69,1.14.09,1.77a2.26,2.26,0,0,0-.27.59l-1.1-.62a12.17,12.17,0,0,0-1.41,1.07,3.06,3.06,0,0,0-.44,1c.36,0,.73.07,1.09.08a.76.76,0,0,0,.33-.12c1.47-.76,1.95-.63,2.51.91.19.53,1,.95.38,1.74s-1.27.95-1.83,0c-.45-.79-.76-1.11-1.71-.49a1.63,1.63,0,0,1-2.22-.38,21.58,21.58,0,0,0-2.18-2,5.3,5.3,0,0,1-1.55,1.14c-.27.08-.76-.64-1.29-1.13L186.15,189l2.86,1c2.34.81,4.66,1.68,7,2.4a34.8,34.8,0,0,0,4.42.9,31.28,31.28,0,0,0,4.13.49,9.36,9.36,0,0,0,3-.41c2.25-.7,4.46-1.52,6.67-2.34,1.86-.69,2.83-2.36,3.77-3.9q3.42-5.59,6.51-11.37C226,173,225.81,170,225.63,167l-.31-.17-2,3.35-.41-.13c.28-1,.58-2.08.83-3.13.36-1.54.68-3.09,1-4.63a7.15,7.15,0,0,0,.27-1.51,13.7,13.7,0,0,0-.25-1.84l-.43,0-2.24,4.54-.3,0a6.29,6.29,0,0,1,.34-2.42c1.42-2.29,1.43-4.89,1.87-7.39a41.73,41.73,0,0,0,.65-5.7,8,8,0,0,0-2.52-6,7.55,7.55,0,0,1-1.24-2.48c-.4-1-.73-2-1.06-3s-.63-2.2-1-3.26a2,2,0,0,0-.9-.92,3,3,0,0,1-1.73-3.7Zm-64.38,7,0,0-.53-2.35a63.1,63.1,0,0,1,4.77,6.42,2.46,2.46,0,0,0,3.56,1c-.75-.63-1.53-1.22-2.24-1.89a17.55,17.55,0,0,1-2.34-2.47c-1.56-2.2-2.86-4.59-4.53-6.7a19.85,19.85,0,0,1-2.59-4.85c-.79-1.88-.9-4.42-3.89-4.42-.36,0-.72-.31-1.12-.49,1,2.46,2,4.69,3,7,.69,1.7,1.27,3.45,2,5.15q1.71,4.17,3.52,8.3a1.4,1.4,0,0,0,.94.74c1.06.1,2.13,0,3.31,0-.1-.5-.08-.77-.2-.94-.7-1-1.41-1.94-2.15-2.87C152.79,136.66,152.26,136.15,151.77,135.62Zm-39-79.76.06-.12a4,4,0,0,0,2-4c-.51.15-1,.28-1.5.45-.68.23-1.33.54-2,.72-2.28.59-4.56,1.19-6.86,1.69-1.85.4-3.73.7-5.6,1-1.64.24-3.33.23-4.93.6a29.72,29.72,0,0,0-4.28,1.63,27.46,27.46,0,0,0-6.92,3.61,31.22,31.22,0,0,0-6.65,6.36c-2.09,3-4,6.18-6,9.2-.88,1.29-1.22,2.33-.07,3.65.86,1,1.13,1,1.83-.07,2-3.19,4.11-6.28,7.46-8.25A15,15,0,0,0,80.94,71l-.12-.25-4.2.92a9.69,9.69,0,0,1,4.24-3A26.3,26.3,0,0,1,90.3,67a63.86,63.86,0,0,0,10.28-.92,15.31,15.31,0,0,0,7.62-3.73C110.25,60.52,111.31,58,112.79,55.86ZM7.71,277.63c.58,1.47,1.07,2.88,1.7,4.23.3.66.61,1.17-.07,1.77a.91.91,0,0,0-.14.87,13.75,13.75,0,0,0,1.69,2.45c1.36,1.44,3,2.67,4.22,4.2a14.32,14.32,0,0,0,3.54,3.52,14,14,0,0,1,1.69,1.44c.56.48,1.1,1,1.69,1.4.75.55,1.53,1.06,2.31,1.57A38.26,38.26,0,0,0,28,301.37c2.84,1.4,6,1.48,9.07,2.14,1.33.29,2.7.42,4.06.62l.24,0c1.9.35,3.83.63,5.7,1.09a16.88,16.88,0,0,1,3.68,1.39c2.42,1.25,5,2.37,7.65,2.12a22.81,22.81,0,0,1,4.86.34,4.39,4.39,0,0,1,1.68.56,13.41,13.41,0,0,0,7.43,2.07,13.08,13.08,0,0,1,2.38.14,36.14,36.14,0,0,0,4.78.77c8.64.07,17.27,0,25.91,0a13.59,13.59,0,0,0,1.51-.25c2.72-.32,5.38-1.11,8.2-.69a29.46,29.46,0,0,0,6.4.37c4.68-.34,9.35-.92,14-1.46,2.06-.24,4.18-.27,6-1.46a1.27,1.27,0,0,1,.57-.17c2.25-.19,4.49-.4,6.74-.53,1.36-.08,2.72,0,4.08,0a3.87,3.87,0,0,0,1.24-.46,13.63,13.63,0,0,1,1.66-.73c1.7-.47,3.44-.77,5.11-1.32,2.8-.92,5.51-2.1,8.33-3,1.88-.57,3.89-.73,5.83-1.14,2.09-.45,4.17-.92,6.24-1.48a49.84,49.84,0,0,0,6.51-2c1.63-.69,3-2,4.57-2.83,3.23-1.74,6.59-3.24,9.35-5.75.39-.36,1-.5,1.4-.83a9.08,9.08,0,0,0,1.51-1.4,16.08,16.08,0,0,1,1.68-2.31c1.22-1,2.63-1.83,4-2.73a22.15,22.15,0,0,0,3.89-2.76c2.93-3.15,5.44-6.66,8.7-9.53,2.6-2.3,4.09-5.43,5.51-8.53.72-1.58,2-3.08,1.13-5.05-.06-.14.15-.4.25-.6.43-.91,1.19-1.8,1.24-2.74.11-1.83.42-3.73-.44-5.53s-.79-3.94-2.54-5.28c-.21-.16-.15-.66-.24-1a21.9,21.9,0,0,0-.91-3.5,37.44,37.44,0,0,0-3-5.83,8,8,0,0,0-3.24-2.92,10.5,10.5,0,0,1-3.85-2.59,20.11,20.11,0,0,0-2.48-2.37q-2.71-2.1-5.55-4a37,37,0,0,0-4.19-2.54c-2-1-4-1.71-6-2.72-1.52-.79-2.83-2-4.36-2.72-2.07-1-4.28-1.73-6.4-2.67-1-.43-1.83-1.2-2.82-1.59-1.78-.7-3.61-1.28-5.45-1.8-2.51-.7-5-1.29-7.57-1.94-2.1-.53-4.14-1.39-6.38-1.16a1.37,1.37,0,0,1-.35-.08c-.72-.13-1.43-.3-2.16-.38-.55-.06-1.11,0-1.67,0-3.25-.15-6.51-.29-9.76-.48-1.83-.11-3.65-.26-5.47-.46-3.27-.35-6.5-1.14-9.83-.4a11.62,11.62,0,0,1-3,.13q-4.84-.2-9.67-.5c-1-.06-2-.26-3-.37a4.63,4.63,0,0,0-1,0l-3.66.38a14.11,14.11,0,0,0-1.9.2c-3,.75-6.06,1.59-9.24,1.5a25.57,25.57,0,0,0-3.59.11c-4,.46-8,.93-11.94,1.5-1.83.26-3.63.74-5.43,1.14a78.08,78.08,0,0,1-9,1.93c-2,.2-3.53,1.31-5.4,1.64a26.83,26.83,0,0,0-3.16,1.23c-2.44.77-4.91,1.43-7.35,2.19-2.1.65-4.23,1.23-6.24,2.08-1.27.53-2.27,1.69-3.54,2.25a33.75,33.75,0,0,0-8.92,6.17,16.76,16.76,0,0,1-4.09,2.89A47.57,47.57,0,0,0,27,231.25c-1.43,1.1-2.58,2.68-4.15,3.44a36.82,36.82,0,0,0-5.15,3,24.5,24.5,0,0,1-2.48,1.58A13,13,0,0,0,8,249.89a6.79,6.79,0,0,1-1.45,2.83c-.47.66-1.27,1.08-1.81,1.71-1,1.18-2,2.38-1.16,4.16a2.61,2.61,0,0,1-.18,1.7c-1.09,3.17-1.6,6.24.7,9.17a3.91,3.91,0,0,1,.47,2c0,.58-.34,1.23-.2,1.77.45,1.75,1,3.46,1.61,5.17a5.57,5.57,0,0,0,.63,1C7.27,278.88,6.55,277.61,7.71,277.63Zm160.94-84.28-.33-.36c.31-.38.57-1,1-1.09a15.21,15.21,0,0,0,4.9-2.69c2.07-1.43,4.11-2.84,5.47-5a19.3,19.3,0,0,0,2.3-3.64c.94-2.78,1.46-5.71,2.35-8.51.81-2.55.08-5-.41-7.38a19.66,19.66,0,0,0-1.9-4.92,33.44,33.44,0,0,0-6.12-8.54,37,37,0,0,0-5.12-4.25c-3.14-2.16-6.2-4.78-10.51-3.41a2.12,2.12,0,0,1-.6,0c-2.72,0-5.43.13-8.15.09a5.77,5.77,0,0,0-4,1.45,18.76,18.76,0,0,1-3,2.36,35.81,35.81,0,0,1-4.65,1.93c-2,.73-4,1.35-6,2.09a2,2,0,0,0-1.06,1c-1.05,2.65-2.64,3.78-5,2.93-1.44-.51-2.07,0-2.87.93a3.51,3.51,0,0,1-5.31.32,1.45,1.45,0,0,0-2.35.07,2.14,2.14,0,0,1-.54.42,3.62,3.62,0,0,1-4.85-.88,1.25,1.25,0,0,0-1.72-.43,6,6,0,0,1-2.7.14c-1.21-.09-2.4-.38-3.61-.44-1.6-.08-3.2,0-4.8,0-2.81-.12-5.63-.52-8.43-.42-3.49.13-7,.63-10.44,1a1.27,1.27,0,0,0-.75.94c-.21,3.26-.3,6.53-.5,9.79a28.81,28.81,0,0,1-.65,6.14,17.5,17.5,0,0,1-7.82,10.16,2.26,2.26,0,0,0-1.24,2.11c0,1-.22,2-.21,3a2.48,2.48,0,0,0,.44,1.66c1.61,1.45,3.3,2.82,5,4.13,1,.8,2.29,1.36,3.3,2.2,3.95,3.26,8.68,4.23,13.55,4.5,3.94.22,7.9.39,11.84-.73,3.05-.87,6-1.61,8.59-3.65a34,34,0,0,1,12.2-6.17,6.47,6.47,0,0,1,1.67,0,35.26,35.26,0,0,1-4.77,2.61c-1.75.84-3.58,1.52-4.86,3.15a19.79,19.79,0,0,1-2.43,2.21,6.84,6.84,0,0,0-.54.61c.25.12.51.36.76.35,1.43-.06,2.86-.23,4.29-.28,1.19,0,2.39.1,3.58,0,2-.12,3.92-.31,5.88-.52,1.36-.15,2.71-.48,4.07-.53,1,0,2,.33,3,.4,1.67.11,3.37,0,5,.2,3.26.45,6.38,1.76,9.75,1.57.15,0,.31.08.47.08a49.35,49.35,0,0,0,5,0c2.46-.21,4.91-.53,7.34.19a41.15,41.15,0,0,0,4.43,1.24c3.23.57,6.52.86,9.74,1.52s6.64,1.66,10.24,2.58c-.13-1.75-.12-3.48-.41-5.17a29.53,29.53,0,0,0-1.34-4.64,12.16,12.16,0,0,0-1.37-2.79c-.45-.66-1.1-.5-1.29.29-.52,2.07-2,3.24-3.83,4.27.87-3.23,2.74-6.19,2.71-9.89A22.39,22.39,0,0,1,168.65,193.35ZM52.23,57.51l.15.33c2.59.38,5.2.65,7.76,1.19,1,.22,2.56.78,2.85,1.57A35,35,0,0,0,65.35,65c.76,1.41,2.16,2.52,2.24,4.3a.36.36,0,0,0,.2.26c1,.25.77,1.09.82,1.76s-.07,1.45,0,2.15a1.22,1.22,0,0,0,.76.76c.2.06.61-.26.79-.51a5.81,5.81,0,0,0,.6-1.29,12.64,12.64,0,0,1,2.85-5.06,81,81,0,0,0,6.22-6c2.16-2.53,5.06-3.57,7.94-4.76,1.3-.54,2.7-.81,4-1.33,3.34-1.35,6.62-2.83,10.39-2.33a7.16,7.16,0,0,0,2.35-.47c.8-.19,1.59-.46,2.4-.58,1.57-.25,3.31-.06,4.69-.69,2.54-1.16,5.05-.87,7.55-.45a32.89,32.89,0,0,1,5.72,1.76,69.51,69.51,0,0,1,7.33,2.91c3.39,1.69,6.64,3.67,10,5.47.35.19,1.29.06,1.33-.09a9.67,9.67,0,0,0,.61-3.56,12.93,12.93,0,0,0-1.42-3.88,24.08,24.08,0,0,1-2.26-9.19c-.06-.92,0-1.84-.15-2.75a4.57,4.57,0,0,0-2.38-3.69,38.22,38.22,0,0,1-4.75-3.86,2.36,2.36,0,0,1-.39-.74l.24-.22,8.14,6a63.35,63.35,0,0,1,.89-6.86c.69-2.86,2.29-4.84,3.66-5l-.54,2c1.15-.13,2-.19,2.89-.33a1.33,1.33,0,0,0,1.16-1.77,43.69,43.69,0,0,1-1.15-6.17c-.1-1.79-.17-3.25-2.33-3.57a3.19,3.19,0,0,1-1-.46,4,4,0,0,0-3.47-.52,12,12,0,0,1-3.26.57,9.39,9.39,0,0,1-5.72-.91c-1.83-1-4.12-1.23-6.15-2-3.85-1.4-6.57-4.31-9-7.42-2.2-2.8-5.53-3.89-8.34-2.32a43.18,43.18,0,0,1-8.75,3.69c-3.35,1-6-.12-8.19-2.48-1.9-2-3.27-1.7-5.06-.37-2.67,2-4.71,4.87-8.21,5.68-1.35.31-2.62,1-4,1.2-2.89.48-5.8.82-8.71,1.12a8.58,8.58,0,0,0-5.37,2.94c-1.58,1.69-2.7,3.8-4.12,5.64-2.24,2.93-3.54,6.35-5.19,9.59-1.28,2.5-2.53,5-3.66,7.59s-2.69,5-3,7.91a5.21,5.21,0,0,1-.64,2c-.77,1.3-1.65,2.53-2.51,3.77-1,1.43-1,1.9.11,3.2,1.41,1.72,2.8,3.47,4.12,5.26a3.91,3.91,0,0,0,3.24,1.82c2.8,0,5.59,0,8.39-.06A2.78,2.78,0,0,0,58.67,62c.82-.57,1.59-1.18,2.65-.48.19.13.54,0,.82,0l.08-.42a5.55,5.55,0,0,0-4.22-1,15.53,15.53,0,0,1-5.66,0c-1.67-.33-2.08-1.53-2.34-2.7a3.13,3.13,0,0,1,.81-2.4c1.66-1.75,4-1.74,6.19-1.82a47.34,47.34,0,0,1,5.7.31c.35,0,.67.42,1,.64a11.64,11.64,0,0,0,1.54,1,3,3,0,0,0,1.12,0c-.28,2.11-.23,2.16,2.3,2.77,0,.72-.17,1.57.16,2s1.25.55,1.94.82a1.87,1.87,0,0,1-.24.36c-.56.48-1.19.81-.54,1.8s1.17.37,1.81.17c.24-.08.71-.06.76.06a1.51,1.51,0,0,1,.12,1c-.52,1.26-1.12,2.49-1.8,4-2.29.06-.15-1.85-.78-2.51a2.84,2.84,0,0,1-1.27-.76c-1.1-1.56-2-3.28-3.19-4.75-1.64-2-3.69-3.66-6.41-3.76a43.63,43.63,0,0,0-6.29.54C52.68,56.92,52.46,57.3,52.23,57.51ZM34.74,210.76l-.18-.3a4,4,0,0,1,.46-.6,19.82,19.82,0,0,1,8.86-4.64c1.23-.28,2.44-.67,4-1.1a13.28,13.28,0,0,0-7.25-1.72,9.46,9.46,0,0,1,6.93-.62c3.4.79,6.54,2.66,10.18,2.51a.91.91,0,0,1,.35.07c2.18.84,4.32.15,6.44-.25.45-.08.79-.77,1.19-1.18l-.21-.41H62a11.5,11.5,0,0,0,1.16-2c.62-2,1.09-4,1.71-6a34.66,34.66,0,0,0,1.58-10.17,33.68,33.68,0,0,1,.32-5.5c.44-2.56-.41-5-.53-7.47a6.27,6.27,0,0,0-.63-2.52c-2-3.84-3.86-7.77-6.76-11.06-.63-.71-1.28-1.4-1.84-2.15a1.19,1.19,0,0,1-.18-1,1.69,1.69,0,0,1,1-.62,1.81,1.81,0,0,1,1.16.19c3.53,2.06,5.92,4.92,6.33,9.17a10.73,10.73,0,0,0,.54,2.17c.05.16.4.39.51.34a.79.79,0,0,0,.45-.54,33.39,33.39,0,0,0-.12-3.35c-.25-2.46-.71-4.91-.8-7.38a20.56,20.56,0,0,0-1.38-7.65c-.13-.29.14-.75.25-1.31,2.2,2.33,2.88,5,3.54,7.59s1,5.4,1.41,8.11a38.49,38.49,0,0,0,.2-13.69l.57-.24a3.62,3.62,0,0,0,.27.63,14.09,14.09,0,0,1,1.94,6.85,25.79,25.79,0,0,1-.86,9.45,14.49,14.49,0,0,1-1.76,4.56A5.75,5.75,0,0,0,69.3,173a6.77,6.77,0,0,0,.92-.77c1.31-1.66,1.61-3.71,2.16-5.67s1.3-4,3.16-5.21a2.29,2.29,0,0,1,.77-.17c0,.27.1.6,0,.79-1.41,2.18-1.82,4.68-2.3,7.16s-1.45,4.4-3.88,5.38c-1,.42-1.22,1-.66,2.15,1.41-1.35,2.44-3.31,5-3.22-.8,1.32-2.68,1.29-2.66,2.95a11.61,11.61,0,0,0,1.34.53c.22.06.61,0,.72-.11,1.15-1.53,2.42-3.05,2.73-5a72.09,72.09,0,0,0,1.06-9.13,72.79,72.79,0,0,0-.55-9.42,22.59,22.59,0,0,0-1.17-5.2C74.86,145,73.56,142,72.33,139c-.57-1.39-.88-3-2.32-3.81-3.15-1.82-6.33-3.6-9.5-5.37-.6-.34-1.27-.55-2.11-.91l1.46-1.66-.31-.41c-.7.31-1.76.44-2,1A4.62,4.62,0,0,1,54.65,130c-2,.8-3.77,2-5.7,2.83A57.5,57.5,0,0,0,37,140a36,36,0,0,0-8.2,8.58,49.12,49.12,0,0,0-2.89,5.74,37,37,0,0,0-2.09,4.85c-.91,3-1.55,6-2.42,9-.6,2.06-1.38,4.06-2.09,6.08-.16.44-.4.85-.56,1.29-.48,1.37-.93,2.75-1.41,4.11A16,16,0,0,0,16.09,186c.16,2.47,0,5,.17,7.44s.5,5.22.75,7.84c.29,3.05.59,6.11.81,9.17.11,1.55,0,3.12.14,4.65a27.67,27.67,0,0,0,.87,4c.66,2.5,1.21,5,3,7.07a32.06,32.06,0,0,1,2.35,3.37c-.11,0,.06,0,.19,0s.37-.28.56-.39c2.8-1.69,5.6-3.39,8.42-5.06,1.78-1.06,3.8-1.64,5.35-3.15a25.84,25.84,0,0,1,4.12-3.27c2.13-1.36,4.38-2.53,6.58-3.77a9.58,9.58,0,0,1,1.16-.53c2.07-.83,4.14-1.67,6.23-2.45,1.82-.69,3.37-2.09,5.51-2a6.72,6.72,0,0,0,2.3-.49,4,4,0,0,0,1-.66c-1.31-.38-2.4-1.41-3.76-.45a2.33,2.33,0,0,1-1.8.39,7.09,7.09,0,0,0-4.42.19,48.34,48.34,0,0,0-10.46,4.14c-1.78,1-3.74,1.65-5.63,2.47l-.21-.33c3.38-4.15,7.85-6.65,13-8.21a3.73,3.73,0,0,0-1.31-.32c-3.37-.21-6.47,1-9.57,2a43.46,43.46,0,0,0-4.58,2.17C36.21,210.2,35.47,210.46,34.74,210.76ZM70.5,103.9a9.1,9.1,0,0,0-1.46.56,2.75,2.75,0,0,1-3.61-.82c-.45-.54-.53-1.37-.91-2a10.72,10.72,0,0,1-1.38-6.27,5,5,0,0,0-1.56-3.71c-.52-.52-1.22-1.07-1.37-1.71a13.06,13.06,0,0,1,.64-8.54c1-2.07,3-2.87,5.19-3.27a1.57,1.57,0,0,0,1-.46,2.39,2.39,0,0,0-.79-2.61,25,25,0,0,0-5-1.58,14.51,14.51,0,0,0-8.29,1.15c-2.3,1-4.43,2.37-5.63,4.68-1.48,2.84-1.39,4.8,1.62,7a5.44,5.44,0,0,1,1.1.9.91.91,0,0,1,0,.87,16.91,16.91,0,0,0-3.19,6.51c-.67,2.54-1.3,5-.33,7.54.8,2.11,1.38,4.4,3.43,5.74A37.43,37.43,0,0,0,53.64,110a19.51,19.51,0,0,0,8.73,2.37h8.51a2.14,2.14,0,0,0,.57-.14Zm10.07,25.69-.32.09c-.09-.06-.22-.11-.25-.2-.73-1.85-1.4-3.72-2.19-5.54a8.31,8.31,0,0,0-1.47-2.34c-.22-.24-1-.08-1.49.09-.17.06-.25.77-.12,1.09.61,1.57,1.24,3.14,2,4.65,1,2,1.75,4.19,3.34,5.88a1.54,1.54,0,0,1,.4,1c-.06,1.19.57,1.31,1.51,1.17a2.83,2.83,0,0,1,3.36,1.66,15.38,15.38,0,0,1,.73,2.77,8.89,8.89,0,0,0,1-.16c1.78-.46,4.15,1.06,4.21,2.84,0,1.29.75,1.29,1.57,1,1.65-.58,2.86.05,4,1.15a3.9,3.9,0,0,0,2,1.05,68.93,68.93,0,0,0,8.09.55c5.52-.06,11.07.59,16.52-1,2.92-.87,5.76-1.71,8.11-3.81,1.84-1.64,3.69-3.23,4.81-5.48a1.78,1.78,0,0,0,.09-1.23c-.68-2-.6-2.45,1-3.87-1.61-1.45-2.17-3.06-.35-4.88l-2.27-.78c-1.2,1.76-2.27,3.32-3.32,4.89a46.56,46.56,0,0,0-3.11,4.82c-1.27,2.53-2.36,5.14-4.82,6.81a6.68,6.68,0,0,1-.82.36l5.17-8-.19-.26a9.07,9.07,0,0,0-1,.46c-2.09,1.23-4.14,2.53-6.25,3.71a18.4,18.4,0,0,1-10.73,2.39c-1.82-.15-3.66-.23-5.45-.55a19.29,19.29,0,0,1-5-1.4c-3.37-1.64-6.65-3.46-9.89-5.35a53.1,53.1,0,0,1-5.6-3.85c-1.35-1-2.53-2.3-4-3.64Zm64.6-53.37a2.79,2.79,0,0,0,.53-.8,26.78,26.78,0,0,0,.62-2.79,10.61,10.61,0,0,0-.9-6,4.16,4.16,0,0,0-1.72-2.37c-2.8-1.56-5.54-3.23-8.35-4.77-2.12-1.17-4.28-2.3-6.49-3.29C126,54.87,123,54,120.37,52.21c-.67-.44-1.73-.3-2.61-.43l-.1.42a28,28,0,0,0,2.5,2.21,31.9,31.9,0,0,0,9.09,4,15.59,15.59,0,0,1,2.4,1.22c-1.85.6-3.39-.07-4.94-.62s-3.06-1.1-4.8-1.73c.65,2.05,2.3,2.72,3.79,3.52s3.08,1.54,4.63,2.3c-3.07.25-5.61-1.29-8.36-2.74a2.52,2.52,0,0,0,.16.65,19.08,19.08,0,0,0,15.45,8.17c1.75.07,3.49.25,5.23.46.79.1,1.41.5,1.33,1.41l-2.45-.88Zm-56,76.64a2.86,2.86,0,0,0-.22-.92c-1.19-1.6-2.42-3.16-3.6-4.76-.77-1-1.53-2.1-2.19-3.2a2.53,2.53,0,0,0-2-1.47,2.65,2.65,0,0,1-2.45-2.19c-.17-.83-.38-1.66-.57-2.49-2.4,0-3.45-.87-3.19-4.19l-3.74-.91a5.78,5.78,0,0,0,.23,1.54c.61,1.39,1.36,2.72,2,4.12,1,2.29,1.86,4.64,2.85,6.92,1.07,2.44,2.35,4.8,2.59,7.53.06.64.32,1.26,1.26,1,.75-.23,1.54-.31,2.31-.49s1.18-.26.79-1.23a34.08,34.08,0,0,1-1-3.81l.51-.28C84,149.31,84,151.37,85,152.86Zm49-5.21.25.54a38.8,38.8,0,0,0,4.14-1.5c2.45-1.2,4.81-2.61,7.25-3.84.78-.39.86-.83.53-1.51-1.19-2.47-2.35-4.95-3.6-7.39a1.13,1.13,0,0,0-1.07-.2c-1,.53-2,1.29-3,1.76-.75.33-.76.6-.43,1.23a2.94,2.94,0,0,1-.59,3.76,2,2,0,0,0-.78,2.06,6,6,0,0,1,0,1.55,2.94,2.94,0,0,1-1.86,2.86A4.05,4.05,0,0,0,138.26,147.65ZM112.11,151a13.33,13.33,0,0,1,2.11-.7,3.65,3.65,0,0,1,3.44,1.65c.58.7,1,.64,1.44,0a2.4,2.4,0,0,1,2.27-1.22c1.27.14,2.53.4,3.9.62a3.79,3.79,0,0,1,4.24-2.73c.81.08,1.06-.28,1.05-1a3.23,3.23,0,0,1,2.54-3.27c.24-.08.6-.29.61-.45a5.19,5.19,0,0,1,1.7-3.38c.06-.07,0-.28,0-.6a30.45,30.45,0,0,0-2.94,2.55c-3.48,3.88-8.11,5.28-13,5.58s-9.82-.05-14.73-.09a3.73,3.73,0,0,0-1.13.38c.26.41.44,1,.81,1.2a1.48,1.48,0,0,0,1.19-.17,4.3,4.3,0,0,1,4.61-.07A14.1,14.1,0,0,1,112.11,151ZM68.23,193.3c-.11.59-.16.9-.22,1.2-.33,1.57-.58,3.17-1,4.72-.49,1.78-.56,1.77,1,2.83,1,.69,1,1.65.26,2.75A1.47,1.47,0,0,0,68,206c.11.25.69.38,1.07.39a2.57,2.57,0,0,0,1-.33,9.57,9.57,0,0,1,1.84-.8c2.2-.41,4.44-.65,6.63-1.11a43.75,43.75,0,0,0,4.2-1.31C77,200.87,72.68,197.24,68.23,193.3ZM177.43,93.6l.27,0a16.81,16.81,0,0,0,0,1.69,3.73,3.73,0,0,0,.34.91c.34-.13.78-.18,1-.42A31,31,0,0,0,181.28,93c.19-.26.23-1,.11-1-1.21-.57-2-2-3.56-1.82-1.94.21-3.88.37-5.82.55-.88.08-1.11.76-1.33,1.44-.31.94-.64,1.87-.91,2.82a18.28,18.28,0,0,0-.75,3.16c-.1,1,.65,1.35,1.66,1a4.84,4.84,0,0,0,2.64-2.8,19.81,19.81,0,0,0,.89-3.18l2.19,2.73Zm-4.31,11.54-.24.14a5.22,5.22,0,0,1-.29,1.62c-.41.75-.39,1.46.4,1.63a3.16,3.16,0,0,0,2.4-.29,7,7,0,0,0,1.32-2.55A17,17,0,0,1,178,102.5c1.13-1.59.4-3.12.05-4.59-.24-1-1.49-.56-2.31-.71a1.47,1.47,0,0,0-.47-.08c-.4.06-.9,0-1.16.28a31.5,31.5,0,0,0-2.57,2.72,1.23,1.23,0,0,0-.1,1C172,102.5,172.57,103.81,173.12,105.14ZM98.57,153.93a4.39,4.39,0,0,1-2-3.93c-4.09,1.31-5.47.53-6.47-3.65H86c1.51,2,2.93,3.68,4.11,5.52a5.05,5.05,0,0,0,5.9,2.39C96.88,154.08,97.73,154,98.57,153.93ZM143,134a12.4,12.4,0,0,0,2.21-1.76,2.71,2.71,0,0,0,.41-1.92,10.84,10.84,0,0,0-.88-2.53c-.85-2-1.7-4-2.64-6a2.84,2.84,0,0,0-3.22-1.06c1.56,1.28,1.17,2.83.43,4.39,3.06.2,4,2.61,2.65,4.81a1.24,1.24,0,0,0-.08.92C142.18,131.83,142.55,132.77,143,134Zm-82.11-5.61,8.74,4.85a5.7,5.7,0,0,0,0-1.55c-.67-2.21-1.4-4.4-2.16-6.58a1,1,0,0,0-.77-.54,3.19,3.19,0,0,0-1.36.56C63.9,126.16,62.51,127.23,60.89,128.43ZM83,135.89a4.62,4.62,0,0,0-3.45,2.71,1.32,1.32,0,0,0,1.34,1.68,9.23,9.23,0,0,0,2.85-1c.5-.3,1.06-1.27.91-1.68C84.42,136.92,83.61,136.45,83,135.89Zm11.73,12.19c1.42.22,2.51-1.43,1.79-2.26A4.39,4.39,0,0,0,94,144.39c-.73-.09-1.59.57-2.32,1-.16.1-.15.75,0,1C92.3,147.75,93.59,147.82,94.76,148.08Zm-4.41-5.76a3.58,3.58,0,0,0-.48-.8c-1.28-1.37-2.61-1.39-4.14,0a2.06,2.06,0,0,0-.39,1.56c0,.25.66.52,1.06.63.6.17,1.25.2,1.87.32A1.73,1.73,0,0,0,90.35,142.32ZM137,144.95c1.37,0,2.68-1.1,2.68-2.19a2.07,2.07,0,0,0-2.21-1.68c-1.32,0-2.49,1-2.49,2A1.89,1.89,0,0,0,137,144.95Zm1.29-5a2.41,2.41,0,0,0,2.62-1.88c.28-.82-.27-1.28-.82-1.68-.86-.63-1.67-.2-2.45.22s-1.5,1-1.29,1.86A1.67,1.67,0,0,0,138.28,140Zm-30,13.05,0-.14c.32,0,.64,0,1,0,1.3-.09,1.6-.71,1-1.89a2.44,2.44,0,0,0-2.53-1.17,2.49,2.49,0,0,0-2.35,1.55,1.16,1.16,0,0,0,.49,1A16.46,16.46,0,0,0,108.28,153Zm-6.83-1.72c.48-.27,1.39-.48,1.67-1,.47-.91-.35-1.58-1.07-2.09a4,4,0,0,0-3.68.48,1.27,1.27,0,0,0,.39,1.94A27.46,27.46,0,0,0,101.45,151.31Zm13.34.3-.17-.22a12.48,12.48,0,0,0-2.06,1.41c-.66.67-.26,1.55.68,1.75.54.12,1.07.26,1.6.39.87.21,2.47-.36,2.62-.93.22-.8-.77-2-1.86-2.25C115.35,151.68,115.07,151.65,114.79,151.6Zm18.53-2.8c1.24-.19,2.36-.32,2.82-1.59a1.42,1.42,0,0,0-.87-1.85,2.32,2.32,0,0,0-3,.53,3.57,3.57,0,0,0-.38,2.19C132,148.38,132.82,148.57,133.32,148.8Zm-5,4.38a23.54,23.54,0,0,0,2.55-1.23,1.19,1.19,0,0,0,.27-1.11,2.9,2.9,0,0,0-2.88-1.17,2.59,2.59,0,0,0-1.87,2.44C126.57,153.29,127.5,152.82,128.3,153.18Zm-6.6,1.39v0a4.59,4.59,0,0,0,1.31,0c.48-.15,1.11-.39,1.3-.77s-.15-1-.45-1.33a2.85,2.85,0,0,0-4.42.72.93.93,0,0,0,.83,1.42C120.74,154.61,121.22,154.57,121.7,154.57Zm18.14-25.37a1.24,1.24,0,0,0,1.53-1.27,2.31,2.31,0,0,0-2.05-1.94,1.64,1.64,0,0,0-1.62,1.45C137.59,128.46,138.43,129.15,139.84,129.21Zm-.88,5.46c1.13-.23,2.4-1.14,2.41-1.83s-1-1.51-1.8-1.54-2.49,1.22-2.2,1.88S138.41,134.19,139,134.67ZM79.81,154.75V155a11.26,11.26,0,0,0,1.25.05c2.76-.18,5.53-.36,8.29-.6.33,0,.64-.41,1-.63-.33-.13-.67-.39-1-.36q-2.67.24-5.33.6C82.58,154.25,81.2,154.52,79.81,154.75ZM67.6,103.36a1.68,1.68,0,0,0,2-.45,1.72,1.72,0,0,0-.42-2.41,2.45,2.45,0,0,0-3.14-.08c-.63.67-.59,1.17.2,2.1a2.77,2.77,0,0,1,.09-1.09,1,1,0,0,1,.81-.42,16.93,16.93,0,0,1,2,.87C69.22,102.89,68.29,103,67.6,103.36Zm9.57,32.24a17.27,17.27,0,0,0,1.72-1.26,1.11,1.11,0,0,0,.27-1,1.28,1.28,0,0,0-1-.55,2.14,2.14,0,0,0-2.27,1.62C75.62,135.31,75.77,135.63,77.17,135.6Zm-4.66-4.32c1.22,0,2.69-1.19,2.54-1.94a1.78,1.78,0,0,0-1-1.23c-.81-.21-2.29,1.25-2.18,2.08A3.05,3.05,0,0,0,72.51,131.27ZM69.3,178.4c0,.73-.05,1.33,0,1.92a.71.71,0,0,0,1.21.55c.72-.62,1.67-1.27,1.2-2.58Zm3.07-54.16c-.68-.24-1.35-.69-1.91-.59-.41.08-.76.86-1,1.4-.08.2.31.81.56.86C71.11,126.13,71.82,125.61,72.37,124.24ZM136,122.81c1,.92,2.38,1,2.68.21a1.85,1.85,0,0,0-.46-1.7C136.53,120.31,136.91,122.4,136,122.81Zm-62.57-2,0-.52c-.39-.25-.81-.73-1.17-.69-.71.08-1.63.27-1.52,1.27,0,.35.7,1,.94.9A7.78,7.78,0,0,0,73.43,120.79Zm87.7,21.66v-.26h-8.85v.26ZM70.36,130.55l.37,0,.8-2.37-2-.48Zm48.81-74.93-.36.15c.12,1.79,1.61,2.79,2.43,4.18l.32-.18Zm-17.24,98.29,2.36.11-.19-1.79ZM69.59,122.43l-.22-.36c-.42.2-1,.3-1.22.63s0,.9,0,1.36l.41.08Zm76.13-18.9-.07.52c1.61-1.05,1,.47,1.71.65a4.54,4.54,0,0,0-.39-1.77c-.09-.19-.63-.38-.73-.29A2.89,2.89,0,0,0,145.72,103.54Zm42.1,78.09c-1.08,0-1.76,1.35-1.25,2.63Zm-38.56-58.11-.31.28.72,1.58H150c.14-.44.46-.94.35-1.31S149.66,123.7,149.26,123.52Z"/><path class="cls-1" d="M108.34,89.49c-1,1.08-2.07,2.09-3,3.25a13.1,13.1,0,0,1-11.9,5.55,14.7,14.7,0,0,1-8.68-3.87,46.15,46.15,0,0,1-3.7-4,4,4,0,0,0-1.75,3A6.72,6.72,0,0,1,78.77,95a7.06,7.06,0,0,1-.51-1.53,3.27,3.27,0,0,1,1.37-2.87c1.19-1,1.19-1.09,0-2.39l-3.22,2.29c-.21-2.32,1.83-2.14,3.07-3.24-1.34-2.35-2.67-4.77-4.1-7.13-.62-1-.52-1.48.69-1.66C79.06,78,82,77.75,85,77.17c1.25-.25,2.32-1.29,3.55-1.75,2.68-1,5.16-2.86,8.21-2.4,2.62.4,5.33.35,7.84,1.4a2.64,2.64,0,0,1,1.91,2.28c1.56-.09,2.16.45,1.93,1.86l-1.92-.22-.29-1A6.88,6.88,0,0,1,100.83,76a1.36,1.36,0,0,0-.53-.27,28.67,28.67,0,0,0-5.23-.61,26.17,26.17,0,0,0-4.87,1.15v.34a2.47,2.47,0,0,0,.65.26c1.38.13,2.76.29,4.15.34a20.7,20.7,0,0,1,11.75,4.13c.88.65,1.69,1.4,2.6,2a1.57,1.57,0,0,0,1.24.27c1.63-.69,3.13-.88,4.59.41a1.49,1.49,0,0,0,1.31,0c1.91-1,3.76-2.09,5.67-3.09a13.41,13.41,0,0,1,5.79-1.54,30,30,0,0,1,10.15,1.07,5.63,5.63,0,0,0,1.36,0c-1.82-1.47-3.53-2.93-5.55-2.85s-3.71-1.33-5.72,0c-1,.63-2.48.41-3.73.64-.95.17-1.87.48-2.81.65a22.8,22.8,0,0,1-2.28.16l-.5-.87c.63-.55,1.07-1.17,1.66-1.4a34.2,34.2,0,0,1,3.64-1l1.67-.42c.18,0,.34-.2.52-.2a23.62,23.62,0,0,1,5.19,0,27.56,27.56,0,0,1,7,2.36c1.08.56,1.58,2.21,2.39,3.33a2.28,2.28,0,0,0,.9.71c1.64.73,3.32,1.39,5,2.12.68.3.83.73.3,1.41q-2.82,3.59-5.55,7.25a25.08,25.08,0,0,0-1.42,2.42l.27.24-1,.11c-.34,1.36,1,2.79-.4,4.09-.06-.49-.11-1-.18-1.46-.17-1.05-.62-1.27-1.46-.67a14.5,14.5,0,0,1-7.69,2.74,15,15,0,0,1-8.4-2.46s-.15.07-.15.11c.15,1.81-.81,2.88-2.29,3.76-.94.56-1.61,1.56-2.55,2.1a7.45,7.45,0,0,1-8.52-1.34,4.3,4.3,0,0,0-3.57-1.62,3,3,0,0,1-2.88-1.55c-.41-.79-.29-1.33.58-1.69.53,1.75.52,1.68,2.4,1.56a3.9,3.9,0,0,1,3,1c2.81,2.56,6.24,3.38,9.64,1a7.44,7.44,0,0,1,1.71-.79,1.76,1.76,0,0,0,1.15-2.19c-.65-1.81-1.33-3.6-2.11-5.36s-1.7-3.53-2.58-5.27a2.13,2.13,0,0,0-.72-.83,3.62,3.62,0,0,0-5.52,2.2Zm-5.83-5.78,0,0c.17.52,1.28.88.22,1.5l1.3,1a5.28,5.28,0,0,1-4.41.41C97.78,86,96,85.08,94,85.36c-1,.14-2,.31-3,.51-2.25.45-4.61.58-6.47,2.22l-.33-.3L85.45,86H83A10.55,10.55,0,0,0,85.6,91.3,12.43,12.43,0,0,0,94,95.57a9.08,9.08,0,0,0,5.45-.79c3.11-1.57,4.85-4.34,6.5-7.19a3.42,3.42,0,0,0,.5-1.42,5.08,5.08,0,0,0-.32-1.42l-1.35.77a4.42,4.42,0,0,1-.44-1.58A2,2,0,0,0,103,81.75a7.52,7.52,0,0,0-1.85-.68q-3.17-.8-6.35-1.51c-.26-.06-.8.06-.82.18-.16.83-.78.65-1.31.68s-1.25.18-1.34,1.14c.42-.06.77-.09,1.11-.16,2.81-.57,5.47-.49,7.86,1.43A8.17,8.17,0,0,0,102.51,83.72Zm21.17,4.34,0,0-1.1-.95,2.2-.76L124,85.07A23.71,23.71,0,0,1,121.55,87a1.42,1.42,0,0,1-1.26-.28c-.23-.2-.16-.75-.23-1.15.36,0,.71.09,1.07.11a.7.7,0,0,0,.47-.12c.74-.7,1.45-1.41,2.17-2.12L123.5,83c-1.41.73-2.84,1.43-4.22,2.2-.42.23-1,.67-1,1.05a8.38,8.38,0,0,0,.14,3.32c1.43,4.19,4,7,8.71,7.84a10,10,0,0,0,8.46-2.23c.86-.69.67-1.11,0-1.66a2.4,2.4,0,0,1-.55-.45,6.51,6.51,0,0,1-.43-.93,5.88,5.88,0,0,1,1,.08c.84.2,1.68.45,2.52.67l.14-.43-2-1-2.15-1,.12-.44a18.18,18.18,0,0,1,2.45.57c.65.24,1.24,1,1.82,1s1.13-.79,1.43-1.37c.68-1.34,1.19-2.77,1.78-4.17l-.34-.18c-1.22.6-1.88,2.21-3.75,2.12l1.37-1.73,0,0,1.64-1.5c-.43-.37-.81-.91-1.31-1.09a25.49,25.49,0,0,0-4.84-1.48c-1.26-.19-2.7-.83-3.84.24l-2.34-.9-.25.41a3.49,3.49,0,0,0,.82.68,5.6,5.6,0,0,1,3.51,3.17c.27.75.66.58,1.19.4s1.28-.3,1.92-.44l.24.56c-.61.38-1.21.8-1.84,1.14s-1.16.53-1.74.79l0,.35c-1.17-.26-.9-1.47-1.37-2.2l-.9-1.42L129,86.25l-.12.21c-.6,1.08-.45,1.38.75,1.66a4.9,4.9,0,0,1,1.12.59l-.16.43a5.58,5.58,0,0,1-1.73-.15A11.8,11.8,0,0,0,123.68,88.06ZM91.15,79.64l-.06-.37c-2,.3-4,.54-5.93.91a18.21,18.21,0,0,0-3.08.91,1.07,1.07,0,0,0-.52.88,1.12,1.12,0,0,0,.71.73c1.7.45,3.42.82,5.12,1.22-.21-.85-1-1.23-1.89-1.44l-2.75-.65c.47-.28.87-.7,1.14-.63,1.55.4,3.07.92,4.59,1.4ZM88.8,85.45c.75-.28,1.5-.54,2.25-.84a9,9,0,0,1,8.89.75,6.88,6.88,0,0,0,1.47.56l.2-.33a3.51,3.51,0,0,0-.46-.58q-1.19-1-2.42-1.94a1.56,1.56,0,0,0-.7-.39,19.9,19.9,0,0,0-8.5.72C88.69,83.67,88.3,84.36,88.8,85.45Zm57-.25c-.26-.3-.37-.46-.51-.59-.65-.65-1.25-.25-1.79.15-.2.14-.26.47-.38.72a5.39,5.39,0,0,0,1.49.38C145,85.84,145.36,85.48,145.84,85.2ZM77,79.57c.06,1.47.95,1.93,2.32,1.2C78.77,80,78.25,79.14,77,79.57Zm50.78,5.24c-.57-.31-.87-.61-1.08-.56s-.56.41-.83.63c.23.19.47.54.7.54S127.2,85.13,127.81,84.81Z"/><path class="cls-1" d="M113.78,106.61a8.79,8.79,0,0,1,1.71.32,7.13,7.13,0,0,0,5.86.1,2.73,2.73,0,0,0,1.23-1.57c.23-.76.61-.78,1.13-.54,1.32.61,1.63,3.87.49,4.77a1.54,1.54,0,0,1-.39.14,6.56,6.56,0,0,0-.29-1.63c-.25-.55-.72-1-1.39-.46a5,5,0,0,1-3.34,1,5.16,5.16,0,0,0-2,.54,9.36,9.36,0,0,1-4.83.92,12.4,12.4,0,0,1-3-.59,13.68,13.68,0,0,0-6.61-.79,3.17,3.17,0,0,1-3.24-1.5c-.78-1.13-1.39-1.22-2.49-.32a12.24,12.24,0,0,0-1.17,1.27c-.89-.51-1-1-.51-1.82,1.27-2,2.89-2,4.6-.49.92.84,1.92,1.9,3.48,1.66a4.28,4.28,0,0,1,1.47.32,5.55,5.55,0,0,0,4.09-.69c1.6-.9,1.76-1,3.24.09a1.27,1.27,0,0,0,1,.06,4.25,4.25,0,0,0,1-.77Z"/><path class="cls-1" d="M95.79,126.9c9.14,7.32,18.41,7.51,27.89.24a4.4,4.4,0,0,1-2.19,4.06,14,14,0,0,1-8.86,2.77c-.93,0-1.88.31-2.82.31a11.9,11.9,0,0,1-2.54-.33,30.28,30.28,0,0,1-4.19-1,22,22,0,0,1-6.65-4.35,5.33,5.33,0,0,1-.84-1.38Z"/><path class="cls-1" d="M216.18,128.54a38.56,38.56,0,0,1-4,2.23A57.94,57.94,0,0,1,206,133a63,63,0,0,1-6.64,1.59,9.39,9.39,0,0,1-3.67-.24c2.13-.49,4.28-.89,6.38-1.49a53.16,53.16,0,0,0,6.34-2.19c2-.86,4.42-1,5.88-2.77-.5-1.53-1-2.94-1.42-4.38a1.85,1.85,0,0,0-2.21-1.45c-.58.05-1.16,0-1.74,0l0-.32c1.2-.39,2.39-.84,3.62-1.15.74-.19,2.07,1.13,2.36,2.33.46,1.87.86,3.76,1.29,5.63Z"/><path class="cls-1" d="M86.74,115.14c-.75-1.64-.4-3,1.88-7.09-1.27.06-1.84,1-2.56,1.68a32.14,32.14,0,0,0-2.21,2.43,3.4,3.4,0,0,1,0-1.05A8.39,8.39,0,0,1,88,106.48c2.07-.92,4.15-1.81,6.27-2.6A12.39,12.39,0,0,0,100.32,99a2.63,2.63,0,0,1,0,1,8.27,8.27,0,0,1-5.1,4.83c-3.76,1.13-5.7,4-7.18,7.31C87.58,113.11,87.17,114.11,86.74,115.14Z"/><path class="cls-1" d="M220.45,178.95c-.43,1-.87,1.94-1.29,2.91a17.64,17.64,0,0,1-3.73,6,1,1,0,0,0-.15.18c-.72,1.14-2,.25-2.8.77s-1.46,1.34-2.5.41c-.1-.09-.36,0-.54,0-1.16.11-2.32.25-3.49.33-.19,0-.4-.26-.6-.4.17-.19.3-.44.51-.55a15.45,15.45,0,0,1,3-1.46,11.15,11.15,0,0,1,3.43-.26c.8,0,1.48.08,2-.6.09-.12.16-.33.28-.36,2.51-.67,2.94-3.06,4.07-4.87.46-.74.88-1.51,1.31-2.27Z"/><path class="cls-1" d="M106.29,109.7c.3,2,.83,2.47,3,2.68,1.47.15,2.89.54,4.42,0a6.7,6.7,0,0,0,2.78-1.55,3.66,3.66,0,0,1,2.33-.54c-1.64,1.32-2.18,4-5.06,3.69l.87,1.47c-1.79,0-3.36,0-4.93,0-.17,0-.33-.27-.5-.42l.77-.81-5.5-3.69Z"/><path class="cls-1" d="M127,70.68c-1.77.22-3.27.37-4.74.62a7.53,7.53,0,0,0-2,.65c-2.19,1.06-4.55,1-6.88,1.08-.52,0-1-.08-1.55,0a8.94,8.94,0,0,1-4.68-1c-1.83-.79-3.45-2.22-5.69-1.85a5.57,5.57,0,0,1,4,0c3.66,1.58,7.39,2.43,11.4,1.37,2.45-.64,4.93-1.17,7.42-1.62C125.07,69.72,126.14,69.39,127,70.68Z"/><path class="cls-1" d="M66.39,85.37H63.33c-.56-1.28.66-1.4,1.27-1.47a4.68,4.68,0,0,1,4.28,1.56c.27.31.27.87.44,1.47a3,3,0,0,1-.61-.15c-.4-.26-.79-.54-1.19-.81-.33.56-1,1.14-.93,1.68a21.5,21.5,0,0,0,.67,4c.36,1.53.87,3,1.22,4.55.06.28-.35,1-.53,1-.49,0-1.31-.19-1.4-.48a2.57,2.57,0,0,1,.08-2,1.19,1.19,0,0,0-.09-1.76,6.38,6.38,0,0,1-1.7-4.27,3,3,0,0,1,1.64-2.91Z"/><path class="cls-1" d="M162.68,136.71c-.28-.17-.65-.27-.81-.52-1.21-1.86-2.49-3.69-3.54-5.65s-.87-1.88-2.46-.65c-.87-.68-.81-1.56.18-2.87a1.57,1.57,0,0,1,2.27-.25,9,9,0,0,1,3.1,5c.49,1.53,1,3.07,1.43,4.61Z"/><path class="cls-1" d="M206.72,147.27a2.27,2.27,0,0,1-2.47-1.24c-.38-.54-.52-1-1.34-.58-.6.29-.91-.21-.9-.84s0-1.35,0-2a13.68,13.68,0,0,0-1.27-5.33,5.46,5.46,0,0,1-.12-1.54,4.8,4.8,0,0,1,1.82.11,3.31,3.31,0,0,1,1.63,2.81,29.27,29.27,0,0,1,.33,3.68A5.51,5.51,0,0,0,206.72,147.27Zm-5.15-10.14,1.2,3.24a2.48,2.48,0,0,0-.24-2.78C202.37,137.4,202,137.35,201.57,137.13Z"/><path class="cls-1" d="M214.27,135.47c1.5-.79,1.91.18,2.18,1s.35,2,.6,3c.16.63.51,1.22.72,1.84a6.19,6.19,0,0,1,.18,1c-.44,0-1.15.15-1.28-.06a26.81,26.81,0,0,1-1.6-3.06,4,4,0,0,1-.2-.91c-2-.27-2.25-.5-2.13-2.47a18,18,0,0,1,.8-3.82c.1-.34.64-.56,1-.89Z"/><path class="cls-1" d="M131.49,121.54c-.68-2.26-.48-3.19,1-4.26a36.34,36.34,0,0,0,3.66-2.44,42.12,42.12,0,0,0,3.75-4.47,10.69,10.69,0,0,0,.64-1.38c.09-.17.37-.23.66-.22-1.21,3.34-2.47,6.55-5.77,8.47-.84.49-1.31,1.61-2,2.39C132.85,120.26,132.22,120.82,131.49,121.54Z"/><path class="cls-1" d="M128,114.71a21.53,21.53,0,0,0,0-3.64c-.59-3.27-1.73-6.23-4.93-7.95a2.87,2.87,0,0,1-1.52-2.33c1.37.83,2.75,1.55,4,2.46a6.06,6.06,0,0,1,1.7,2,45.08,45.08,0,0,1,2.16,4.81A4.1,4.1,0,0,1,128,114.71Z"/><path class="cls-1" d="M90.43,112.52c.36,3.24.44,6.46,3.81,8.2a1.66,1.66,0,0,1-2.66.13c-1.84-1.72-2.74-5.87-1.36-8Z"/><path class="cls-1" d="M193.75,146.66a2.91,2.91,0,0,1-3-2.22,13.12,13.12,0,0,1-.48-3.51,5.4,5.4,0,0,1,.88-2.2c.13-.25.58-.33,1-.41C191,141.46,192.09,144.11,193.75,146.66Z"/><path class="cls-1" d="M130.28,103.72c2.72,2,2,5,2,7.67a2.86,2.86,0,0,1-1.95,2.51C131.09,110.52,131.6,107.13,130.28,103.72Z"/><path class="cls-1" d="M189,153.92c1-.65,1.45-.46,1.57.57a7.64,7.64,0,0,1,.1,1.76c-.09.78-.52,1.31-1.21.49a5.55,5.55,0,0,1-1.38-2.31,18.72,18.72,0,0,1-.07-3.92c0-.2.32-.4.77-.49Z"/><path class="cls-1" d="M82.05,113.13c-1.44-3.66.58-8.62,4.44-10.7a9.37,9.37,0,0,1-.62.84c-2,2.21-3.43,4.66-3.33,7.8A8.1,8.1,0,0,1,82.05,113.13Z"/><path class="cls-1" d="M167.32,137.15c2.65,1.68,4.39,3.59,4.89,6.38l-.36.36a8.23,8.23,0,0,1-1.39-1.26c-1-1.44-1.93-2.93-2.86-4.41A4.65,4.65,0,0,1,167.32,137.15Z"/><path class="cls-1" d="M196.66,131.42c0,.8-.91,1.46-2,1.46-.86,0-1.89-.84-1.83-1.51s1.38-1.62,2.12-1.64A1.92,1.92,0,0,1,196.66,131.42Z"/><path class="cls-1" d="M85.78,125.34a12.94,12.94,0,0,1-2.08.36c-.31,0-.93-.42-.91-.58.18-1.35-1.07-1.56-1.8-2.28.48-.73.72-1.06,1.76-.43.88.53,1.06,1.22,1.5,1.92.24.38.92.49,1.4.73Z"/><path class="cls-1" d="M115,69.29c2.94-.08,5.55-1.53,8.41-1.09l.08.44c-1.74.3-3.48.58-5.21.89a5.45,5.45,0,0,0-1.46.47C116.08,70.38,115.54,70.29,115,69.29Z"/><path class="cls-1" d="M126.12,116.59c.83,2.45-1.39,6.21-3.26,6Z"/><path class="cls-1" d="M114.95,120.4c-2.66-1.18-5.3-.09-8.14.15C108.63,118.68,112,118.63,114.95,120.4Z"/><path class="cls-1" d="M80.29,112.29c-1.3-3-.66-7.42,1.3-8.14C79.91,106.79,80.76,109.62,80.29,112.29Z"/><path class="cls-1" d="M119.8,66c-2.28,1.51-4.57,1-6.87.31V66Z"/><path class="cls-1" d="M113.79,69.44c-1.24.79-4.5,0-6.29-1.53C108.37,67.54,112.37,68.51,113.79,69.44Z"/><path class="cls-1" d="M80.94,118.09c-1.29.82.51,2.67-1.4,3.46-.4-.67-1.31-1.64-1.12-2a8,8,0,0,1,2.19-1.83Z"/><path class="cls-1" d="M93.67,127.05A8.4,8.4,0,0,1,91,126c-.62-.54-.79-1.6-1.16-2.43l.37-.28,1.08,1c.54.51,1.06,1,1.62,1.51a9.64,9.64,0,0,0,1.06.69Z"/><path class="cls-1" d="M122.11,73.05c-1.4,1.83-3.42,1.51-5.21,1.88C118.51,74.08,119.92,72.7,122.11,73.05Z"/><path class="cls-1" d="M109,75.52c-2.52.35-3.18-2.4-5.26-2.73,1.12-.57,1.16-.59,2.84.66C107.34,74,108.06,74.74,109,75.52Z"/><path class="cls-1" d="M87.73,120.85c-.11,0-.35.24-.51.19-1-.33-2.12-2.6-1.75-3.55a.87.87,0,0,1,.45-.44c.08,0,.34.18.41.34C86.8,118.51,87.25,119.65,87.73,120.85Z"/><path class="cls-1" d="M126.79,127.65c1.34-1.51,2.2-3,3.74-4.17A4.79,4.79,0,0,1,126.79,127.65Z"/><path class="cls-1" d="M101.55,104.22a10,10,0,0,1,1.89-.9c.19,0,.76.58.79.93a1.27,1.27,0,0,1-.66,1A1.43,1.43,0,0,1,101.55,104.22Z"/><path class="cls-1" d="M134.26,109.13c.49,1.68-.58,4.15-2.57,5.48Z"/><path class="cls-1" d="M127.53,122.19a11.19,11.19,0,0,1,.68-5.52C129,118.6,128.71,121.11,127.53,122.19Z"/><path class="cls-1" d="M112.6,129.09c-1,.34-2,.72-3,1-.26.07-.6-.18-.8-.43,1.35-1,2.46-1.38,3.71-1Z"/><path class="cls-1" d="M93.63,114.51a22.57,22.57,0,0,1,.62,2.37c0,.23-.36.77-.47.75a1.24,1.24,0,0,1-.94-1.53C92.91,115.49,92.57,114.55,93.63,114.51Z"/><path class="cls-1" d="M125.44,108.49c1.14.35.91,1.25.69,1.84s0,1.56-1.06,1.4Z"/><path class="cls-1" d="M127.32,123.89a2.82,2.82,0,0,1-1.75,2.47C125.31,125.53,126.22,124.25,127.32,123.89Z"/><path class="cls-1" d="M108.34,89.49l.49-1,.86-.76a1.64,1.64,0,0,1,1-.52c-.59.91-1.16,1.83-1.77,2.72-.08.12-.33.12-.51.17Z"/><path class="cls-1" d="M114.46,89c-1,0-2,0-2.9,0-.11,0-.28-.28-.28-.43a.59.59,0,0,1,.28-.44A2.83,2.83,0,0,1,114.46,89Z"/><path class="cls-1" d="M113.81,106.58l-1-.23.89-1.56.76.64-.71,1.18Z"/><path class="cls-1" d="M115.86,94l1.67.57-.18.53-1.67-.56Z"/><path class="cls-1" d="M87.7,128.47l-1-1.85C87.87,126.48,88.25,127.1,87.7,128.47Z"/><path class="cls-1" d="M114,87.49H112l0-.36A1.69,1.69,0,0,1,114,87.49Z"/><path class="cls-1" d="M121.3,111.38l-1.75-.85C120.82,110,120.94,110,121.3,111.38Z"/><path class="cls-1" d="M92.51,109.65v-2.06h.37l.1,2Z"/><path class="cls-1" d="M112.79,55.86c-1.61,1.44-3.22,2.9-4.85,4.33a24.81,24.81,0,0,1-8.61,4.89,6.94,6.94,0,0,1-5.82-.65,2.9,2.9,0,0,1,.52-.06c3,.18,5.55-1.08,8.14-2.41,4.09-2.1,7.39-5.17,10.72-8.23.08-.07.19-.11.61-.06l-.66,2.09Z"/><path class="cls-1" d="M212.16,258.86c.74-.22,1.35-.45,2-.58,1-.19,1.54-.58,1.31-1.69a1.3,1.3,0,0,1,.11-.88c.87-1.37,1.92-2.64,2.66-4.07a11.85,11.85,0,0,0,.89-3.26,1.08,1.08,0,0,0-.52-.91c-1.26-.28-1.52-1.13-1.49-2.22,0-.48,0-1,0-1.43,1.61-.75,4.83-1,6.2-.38a27.27,27.27,0,0,1-2.64.68c-.7.11-1.2.43-.8,1.06.91,1.42.48,2.94.56,4.42,0,.36-.08.72-.06,1.08.06,1.1.05,2.12-1.06,2.81-.34.21-.45.79-.64,1.16,1.12,0,2.07,0,3,0,.1,0,.18.31.31.55-1.74.59-3.74.41-5.09,2.44h4.39l0,.5a19.31,19.31,0,0,1-3,.56c-3.16.09-3.93,1-5,4a6.74,6.74,0,0,1-2.08,3c-1.82,1.51-3.45,3.27-5.17,4.9-.87.83-1.78,1.62-2.69,2.41-1.18,1-2.33,2.1-3.57,3-1,.76-2.13,1.34-3.15,2.06a13.36,13.36,0,0,0-1.49,1.5l2.16.26-18.57,4.65.16.82c-1.85.31-3.64.59-5.43.91a20.81,20.81,0,0,1-2.3.51c-3.82.23-7.65.37-11.46.62A10.31,10.31,0,0,0,157,288c-.88.3-1.7.75-2.67,1.18l1.42.58a7.11,7.11,0,0,1-1.37.41c-2,.09-3.91.14-5.86.21a1.85,1.85,0,0,0-.93.16c-1.62,1.15-3.48,1-5.29.92-3.31-.18-6.5.55-9.73,1.05a14.14,14.14,0,0,0-3.28,1.16c-2.38,1-4.74,2.15-7.5,1.75a37.67,37.67,0,0,0-5.6-.37c-1.76,0-3.52.26-5.41.41l1.51,1.25-.1.31A6.83,6.83,0,0,1,111,297c-1.42-.33-2.84-.69-4.26-1.06a4.88,4.88,0,0,1-.85-.35,8.41,8.41,0,0,0-5.58-.38,45.38,45.38,0,0,1-7.42,1.14c-1.82.07-3.66-.59-5.51-.8-1.26-.15-2.55-.05-3.83-.13-2.52-.16-5-.39-7.57-.56a13.31,13.31,0,0,0-8.93,2.9c-.12.09-.21.23-.34.32s-.4.23-.61.34c-.21-.73.33-1.7,1.65-2.61.92-.63,2-1.1,3.26-1.81-1.2-.28-2.08-.57-3-.68a33.15,33.15,0,0,0-4.39-.36,5.86,5.86,0,0,0-2.21.66c-.84.37-1.63.87-2.45,1.31l-.3-.26.81-1.76c-1.26-.58-2.5-1.23-3.8-1.72-2-.75-4-1.4-6-2.08a2.53,2.53,0,0,0-.58-.12,55.66,55.66,0,0,1-5.79-.56,51.35,51.35,0,0,1-5.41-1.68c-1.61-.51-3.21-1-4.83-1.51-2.27-.66-4.55-1.27-6.82-1.9-.34-.1-.68-.22-1-.32A3.87,3.87,0,0,1,23,281.7c-.43-.53-1.66-.54-2.54-.56-1.13,0-2.27.18-3.44.1,1.1-1.73,2.89-1.47,4.74-1.65-1-1-2-1.76-2.83-2.66a7.63,7.63,0,0,1-1.63-2.24c-1-2.66-3.12-3.71-5.76-4-.42,0-.83-.12-1.25-.18v-.37l2.69-.23c-.39-2.37-2-3.92-3.41-5.65a3.72,3.72,0,0,1,3.75,2.37c1.4,3.38,3.95,5.78,6.33,8.35,1.13,1.22,2,2.72,3.38,3.63A18.58,18.58,0,0,0,30.74,282c1.82.27,3.65.57,5.44,1,.75.19,1.35.93,2.09,1.16a49.92,49.92,0,0,0,5.7,1.49c2.23.42,4.49.53,6.63,1.47,1.83.8,3.85,1.13,5.75,1.78a9.9,9.9,0,0,1,2,1.22c1.32.85,2.48,1.83,4.35,1.55a34.73,34.73,0,0,1,11.2.55c2.13.38,4.22.95,6.34,1.36.42.08.9-.26,1.36-.28,2.38-.06,4.77-.12,7.15-.06,1,0,1.9.46,2.86.52a18.92,18.92,0,0,0,1.93-.36,3,3,0,0,1,1.65.3,3,3,0,0,0,3.73,0c1.21-.9,2.6-.54,3.91-.34a18.63,18.63,0,0,0,7.57,0,2.43,2.43,0,0,1,.47-.09c3.53-.18,7.06-.46,10.6-.5a24.86,24.86,0,0,0,7.41-1.55,18.9,18.9,0,0,1,2.85-.7c2.28-.36,4.57-.7,6.86-.94,1.47-.15,3,0,4.43-.15a6.06,6.06,0,0,0,1.43-.57,4.37,4.37,0,0,1,1.52-.44,30.31,30.31,0,0,0,9.71-1.65,24.62,24.62,0,0,1,4.12-1c3-.33,6-.39,9-.75a90.23,90.23,0,0,0,9.36-1.52c3.14-.72,6.21-1.75,9.28-2.74a18,18,0,0,0,2.77-1.43c1-.51,2-1,2.86-1.56.75-.49,1.32-1.44,2.11-1.65,2.88-.75,5-2.74,7.36-4.27a5.21,5.21,0,0,0,1.77-1.94c.91-1.82,2.68-2.56,4.18-3.66a8.75,8.75,0,0,0,1.8-1.61,19.17,19.17,0,0,0,2.59-3.65C213.46,259.66,213.61,259.73,212.16,258.86Z"/><path class="cls-1" d="M41.56,250.82c-.37-.66,0-1.23.91-1.2A11.66,11.66,0,0,1,48.26,251a1.67,1.67,0,0,0,1.63.16,12.46,12.46,0,0,1,2.28-.52,55.61,55.61,0,0,1,6.47-.87c2.93-.1,5.87.08,8.8.24a26.15,26.15,0,0,1,3.87.58A5.29,5.29,0,0,1,75.45,257a6.49,6.49,0,0,1-4,4.82,12.85,12.85,0,0,1-6.28,1.73c-3.26-.13-6.53-.33-9.79-.29a20.08,20.08,0,0,1-7.78-1.92c-1.93-.78-2.4-2.12-1.84-4.16a1.11,1.11,0,0,0,0-.7c-.78-1.66.21-2.67,1.28-3.68a1.78,1.78,0,0,0,.44-.7c0-.06-.32-.32-.52-.35C45.27,251.45,43.52,251.16,41.56,250.82Zm5.93,3.49c-.13.65-.23,1.31-.39,1.95-.55,2.23-.29,2.86,1.92,3.61a38.06,38.06,0,0,0,5.67,1.5,36.23,36.23,0,0,0,6.25.58,36,36,0,0,0,5.65-.65,16.9,16.9,0,0,0,4-1,13.35,13.35,0,0,0,2.92-2.09,1,1,0,0,0,.1-.88,1.41,1.41,0,0,0-1.07-.17c-1.4.58-2.75,1.29-4.14,1.88a23.52,23.52,0,0,1-7.94,1.82,24.35,24.35,0,0,1-9.26-1.15,6,6,0,0,1-3.59-2.86,6.5,6.5,0,0,1-.13-2.56l1.1.24c-.12,2.61,0,2.67,2.46,3.75a2.47,2.47,0,0,0,2.45-.28c.56-.29,1.09-.63,1.66-.89,1.37-.63,1.57-1.9.28-2.67s-2.59-1.57-4.21-.73a3.75,3.75,0,0,1-1.42.1l-.11-.29,1.69-1.78c-.49.08-.89,0-1.12.21C49.31,252.7,48.41,253.51,47.5,254.3Zm5-2.45.1.5a64.24,64.24,0,0,0,6.87-.79,16.74,16.74,0,0,1,10.83,1.32c.46.21.7.9,1,1.37-.59,0-1.18.06-1.77.07-.09,0-.18-.13-.29-.19-.8-.42-1.59-.86-2.42-1.23s-1.5-.28-1.85.49-.64,1.59.24,2.26c.56.43,1.31.69,1.33,1.6,0,.1.55.31.8.26a19.06,19.06,0,0,0,3.88-1,5.67,5.67,0,0,0,2.26-2c.14-.21-.8-1.31-1.4-1.79-1.91-1.53-4.34-1.69-6.6-2a40.4,40.4,0,0,0-11.9.69A5.3,5.3,0,0,0,52.47,251.86ZM65,258.15v-.29a20.25,20.25,0,0,0-2.6-1.26,5.26,5.26,0,0,0-2.72-.41,10.42,10.42,0,0,0-2.91,1.66c-.27.18-.38.6-.56.91.37.14.75.43,1.12.41,1.57-.1,3.15-.26,4.71-.46C63,258.58,64,258.34,65,258.15Zm-1.12-5.86a12.22,12.22,0,0,0-6.55.75C58.23,254.41,61.8,254.08,63.87,252.3Z"/><path class="cls-1" d="M158.15,248.39c4.76.27,8.93.73,12.81,2.73,1.28.66,2.09,1.33,2.16,2.86.09,2-.79,4.52-2.8,5.51a1.46,1.46,0,0,1-.45.16c-3.27.4-6.53.85-9.81,1.15a19.53,19.53,0,0,1-7.7-1.26c-1-.32-2.06-.55-3.06-.9a8.22,8.22,0,0,1-4-3.52,3.21,3.21,0,0,1,1.41-4.43,19,19,0,0,1,3.69-1.12c1.31-.3,2.65-.5,4-.7S157.23,248.51,158.15,248.39Zm-5,2a7.92,7.92,0,0,0-5.91,1.45c-.95.69-.79,1.73-.1,2.67a7.82,7.82,0,0,0,4.68,2.86c2.48.65,4.9,1.61,7.53,1.4,2.09-.17,4.18-.32,6.27-.54,1.38-.15,2.74-.45,4.12-.62,2-.25,2.82-3.09,1.67-4.51a5.44,5.44,0,0,0-3.24-1.85,6.9,6.9,0,0,1,1.18,1.06,3.81,3.81,0,0,1,.71,1.62,2.53,2.53,0,0,1-2.71,2.63c-.87-.1-1.76.09-2.63,0-2.66-.25-5.33.66-8,0-2.28-.6-4.59-1.13-6.85-1.83-.74-.23-1.7-.83-1.36-1.77a3.61,3.61,0,0,1,1.73-1.65A16.48,16.48,0,0,1,153.18,250.37Zm16.05,3c-.76-.45-1.39-1.08-2.09-1.17a22.88,22.88,0,0,0-4.05,0c-.26,0-.5.37-.75.56.22.18.43.47.68.52,1.16.23,2.53.08,3.44.67C167.64,254.78,168.2,254.25,169.23,253.39Zm-12.68-1a18.71,18.71,0,0,0-3.28-.63,14.74,14.74,0,0,0-3.31.52c-.13,0-.24.78-.21.8a6.25,6.25,0,0,0,2,.61c.84,0,1.69-.26,2.54-.31S156,253.4,156.55,252.41Zm-.66,2.62h8.32l-1.58-.59a3.63,3.63,0,0,1-1.25-.5C160.12,252.72,157,253.28,155.89,255Zm11.85-4v-.37c-4.37-1.73-8.91-1.18-13.43-.92.06.15.12.2.19.2,4.17.21,8.42-.34,12.47,1.19C167.19,251.23,167.48,251.09,167.74,251Zm-11.57-.3c2.21,1.36,5.06,1.41,5.8,0Z"/><path class="cls-1" d="M33.88,298a5.65,5.65,0,0,1-6,.41,31.2,31.2,0,0,1-8.18-6.12c-1.36-1.37-2.7-2.76-4.24-4.33,1.61-.3,2,1.11,3,1.52a18.76,18.76,0,0,1,2.95,1.61,20.28,20.28,0,0,1,2.42,2.05c.8.75,1.53,1.57,2.11,2.16l1.59-1.44,1.27,1.44a12,12,0,0,1,2-1.17c.12,0,.57.76,1,1.32,1-.3,2.53,1.33,3.6-.5a1.81,1.81,0,0,1,.73,2.59c-.18.45.24,1.22.55,1.76a1,1,0,0,0,1,.19,1.14,1.14,0,0,0,.44-1.63,5.06,5.06,0,0,1-.6-2.13,1.51,1.51,0,0,1,.71-1.18c.25-.13.79.3,1.19.49a.3.3,0,0,1,.12.2c.42,2.52,2.61,2.77,4.44,3.56a5.87,5.87,0,0,1,2,1.63c1,1.17.91,1.21,1.77,0a4.45,4.45,0,0,1,.77-.67A9.25,9.25,0,0,1,49.62,301c1.12,1.57,3,1.79,4.54,2.53.21.1.6-.11.88-.24a3.77,3.77,0,0,1,4.11,1.22c-.62,0-1.14.07-1.67.09a3.09,3.09,0,0,0-2.21.73c-.6.51-1.93.23-2.92.17a2.39,2.39,0,0,1-1.14-.61,3.69,3.69,0,0,0-2.82-.84c-2,.2-3.22-1.32-4.62-2.44a11.43,11.43,0,0,0-3-1.71,2,2,0,0,0-1.64.49c-1.87,1.63-3.75,1.2-4.56-1.11A9.39,9.39,0,0,0,33.88,298Z"/><path class="cls-1" d="M103.57,232.78a12,12,0,0,0,2,0c.49-.1.91-.49,1.4-.62a6.62,6.62,0,0,1,2.23-.37c.83.08,1.35.17,1.68-.86a7,7,0,0,1,1.58-2.61,6.28,6.28,0,0,1,2.29-1.35,29.66,29.66,0,0,1,3.81-1.13c1.82-.42,3.64-.84,5.49-1.1s3.83-.41,5.76-.5c2.91-.14,5.23.86,6.54,3.64a3.24,3.24,0,0,0,.44.56,6,6,0,0,1,4.88.1v.35a24.75,24.75,0,0,1-2.54.3c-2,0-2.49.76-2.56,2.83-.05,1.64-.36,2.39-1.92,2.87-2.14.66-4.32,1.17-6.48,1.78-3.49,1-7,.49-10.55.29-1.7-.1-3.61-.18-5.08-1.42-.27-.23-.7-.41-.79-.69-.44-1.41-1.66-1.58-2.81-1.85a1,1,0,0,0-.72.21c-.75.61-3.43,1-4.21.54C103.89,233.6,103.83,233.26,103.57,232.78Zm29.2-6.49,0,0c-.11-.15-.2-.42-.32-.43-2.29-.18-4.62-.67-6.87-.42a56.66,56.66,0,0,0-9,2c-1.44.4-3,.84-3.52,2.75-.46,1.69-.12,3.28,1.55,3.72a26.8,26.8,0,0,0,6.16,1,65,65,0,0,0,8.43-.45,9,9,0,0,0,5.37-3c.64-.65,1.19-1.48.73-2.34C134.74,228,134.58,226.37,132.77,226.29Z"/><path class="cls-1" d="M121,287a71.21,71.21,0,0,1-8.46-1.38c-2.56-.71-4.25-2.82-5.53-5.14a1.84,1.84,0,0,1,0-1.06,7.34,7.34,0,0,1,4.86-5.09c1.14-.27,2.23-.75,3.38-1,1.82-.4,3.66-.73,5.5-1a7.26,7.26,0,0,1,1.77.12c.83.08,1.67.15,2.49.29,1.74.3,3.46.73,5.21.93a6.22,6.22,0,0,1,3.49,1.77c2.48,2.2,3.3,4.58.67,7s-5.29,4.33-9.1,4A21,21,0,0,0,121,287Zm10.33-5.49a18.76,18.76,0,0,0,2.67-1.83,1.82,1.82,0,0,0,.37-1.69,8.56,8.56,0,0,0-2.25-2.49c-2.36-1.64-5.21-1.71-7.92-2a28.67,28.67,0,0,0-10.42,1c-1.12.28-2,1.34-3.06,2a22.3,22.3,0,0,0-1.85,2,1.45,1.45,0,0,0,.43,2.36,5,5,0,0,1,.65.51c1.7,1.5,3.84,1.86,6,2.24a21.56,21.56,0,0,0,2.5.12c2.37.15,4.74.42,7.11.4.82,0,1.63-.74,2.44-1.14C129.42,283.21,130.64,283,131.34,281.51Z"/><path class="cls-1" d="M168.94,211.59c1.11-1.08,2-1.34,3.27-.64,1.54.83,3.34,1.17,4.95,1.91a21.72,21.72,0,0,0,7,1.54,12.6,12.6,0,0,1,6.88,2.49,13.31,13.31,0,0,0,2.5,1.21,26.07,26.07,0,0,1,6.24,4.28,32.18,32.18,0,0,0,4.14,2.88c2.43,1.61,4.91,3.16,7.32,4.8,1.7,1.16,3.29,2.49,5,3.64.34.23,1,.06,1.5-.07,1-.28,1.94-.66,2.91-1l.09.28-5.68,4.51c.05,0-.06,0-.06-.05.29-1.5-.7-2.17-1.71-3-2.34-1.89-4.49-4-6.87-5.84a26.19,26.19,0,0,0-4.75-2.72,17.21,17.21,0,0,1-3.9-2.59,48.27,48.27,0,0,0-5.92-3.92,27.09,27.09,0,0,0-3.33-1.92,12.58,12.58,0,0,0-3.89-1.28,30.62,30.62,0,0,1-9.94-2.47,46.94,46.94,0,0,0-4.68-1.47A6.86,6.86,0,0,1,168.94,211.59Z"/><path class="cls-1" d="M98.86,309.45l-3,.33c-.53.77-2.22,1-3.63.62a13.93,13.93,0,0,0-4.42-.78,3.29,3.29,0,0,1-2.62-.48c-.21-.17-1.19.3-1.54.71-.66.78-1.29,1-2.11.31a2,2,0,0,1-.52-.47,2.32,2.32,0,0,0-2.5-1.33c-.3,0-.64-.36-1-.35s-1.09.09-1.27.38c-.73,1.17-1.22,1.32-2.3.46a5.35,5.35,0,0,0-3.25-1.44c-.31,1-1.22,1.3-2.41.86a2.11,2.11,0,0,0-1.37,0c-1.3.51-2.29-.28-3.28-.79s-1.15-1.7-1-2.8a.76.76,0,0,1,.47-.52.77.77,0,0,1,.61.35,2.09,2.09,0,0,0,2.14,1.25,3.36,3.36,0,0,1,3,1.06,6,6,0,0,0,1.08.68c.35-1,1.7-1.24,1.38-2.55a2.3,2.3,0,0,1,1-.42c1.86-.25,3.35.76,4.93,1.49.65.3,1.32.54,2,.8a2.55,2.55,0,0,0,.21-.39c.12-.54.24-1.09.35-1.64a8.16,8.16,0,0,1,1.63.42,2.89,2.89,0,0,1,1,.94,1.6,1.6,0,0,0,2.82.12c.41-.46.85-.89,1.29-1.36.24.28.32.33.34.4.26.85.29,2.24.8,2.44a19.25,19.25,0,0,0,4.3.72c1.43-1.47,3.13-.55,4.72-.49A2.2,2.2,0,0,1,98.86,309.45Z"/><path class="cls-1" d="M67.6,227.36c-.05-1.17.68-1.1,1.23-1.08,1.26.05,2-.26,2.13-1.73a2.36,2.36,0,0,1,1.33-1.49A52.72,52.72,0,0,1,77.9,221,49.23,49.23,0,0,1,84,219.47a14.18,14.18,0,0,1,3.4.17c.55,0,1.09.2,1.64.21A8,8,0,0,1,94.62,222c1.65,1.64,3.42,1.2,5.27,1.09,1-.06,2.08,0,3.12,0l.05.49-7.48,1.76a.21.21,0,0,0-.07.13c.07,2-.15,2.21-3,3-2.24.61-4.43,1.42-6.68,2a12.72,12.72,0,0,1-3,.23c-1.84,0-3.68,0-5.52,0-2.68,0-5.06-.64-6.63-3.09-.17-.26-.77-.32-1.17-.34A18.65,18.65,0,0,0,67.6,227.36ZM81,229.29c2.23-.4,5-.69,7.63-1.42,1.89-.52,3.84-1.32,4.95-3.16a1.88,1.88,0,0,0,0-1.72,5.17,5.17,0,0,0-1.91-1.18c-2.42-1.11-5.06-1.14-7.64-1.4-.7-.07-1.44.4-2.17.48a20.83,20.83,0,0,0-8.74,2.91,2.32,2.32,0,0,0-1.11,2.4,2.41,2.41,0,0,0,2.12,2.24C76.22,228.73,78.34,229,81,229.29Z"/><path class="cls-1" d="M181,293.82c0-.38,0-.53,0-.69,0-.78-.25-1.72.84-1.92.75-.14,1.82,1.13,1.89,2a1.93,1.93,0,0,0,.21.63c.56,1.2.09,2-1.28,2-1.68,0-3.36,0-5,0a2.44,2.44,0,0,0-2.63,1.75,1.77,1.77,0,0,1-1.32.8,14.08,14.08,0,0,1-2.49-.23c-.9-.09-1.69-.09-2.22.92-.18.34-1,.47-1.49.49-1.54.06-3.09,0-5,0,.37.69.53,1,.72,1.35.41.71.15,1.34-.69,1.38a15.17,15.17,0,0,1-3.47-.09,7.41,7.41,0,0,0-4.63.8c-2.09,1-4.12,2.11-6.26,3a6.25,6.25,0,0,1-2.84.08,22,22,0,0,1-2.9-.75c.65-.34,1.06-.74,1.47-.74a15.6,15.6,0,0,0,7.77-2.2,13.71,13.71,0,0,1,7-2.18c0-1.32.79-1.62,1.89-1.57a14.62,14.62,0,0,0,3,0c1.21-.2,2.37-.69,3.57-1,1.57-.4,3.15-.72,4.72-1.11.47-.12,1.09-.21,1.35-.54a5.64,5.64,0,0,1,5.07-2.24C179.12,293.86,180,293.82,181,293.82Z"/><path class="cls-1" d="M106.33,256a6.22,6.22,0,0,0,1.46.49,12.79,12.79,0,0,1,8.36,3.91,1.93,1.93,0,0,0,1.34.47,42.77,42.77,0,0,1,5.55-.42,29.17,29.17,0,0,1,5.09,1.29,16,16,0,0,1,2.65.71,40.19,40.19,0,0,1,3.62,2.06c.09.05.06.3.08.43a1.44,1.44,0,0,1-.19.19l-1,.59c.16.19.34.57.47.55a2.34,2.34,0,0,0,1.2-.43c.84-.76.51-1.49-.26-2.06a21,21,0,0,0-6.19-3.52,14.53,14.53,0,0,0-5.65-1c-.82.07-1.63.25-2.44.38-.57.09-1.19.27-.94-.84a62.27,62.27,0,0,1,7.88.08c1.9.24,3.93.6,5.43,2.25a20.25,20.25,0,0,0,3.27,2.41,1.64,1.64,0,0,1,.52,2,8.9,8.9,0,0,1-.52,1.56c-.21.39-.38.67-1.14.51-2.33-.47-3.83-2.11-5.65-3.34a7.34,7.34,0,0,0-3.52-1.17c-2.91-.18-5.83-.14-8.75-.07a1.68,1.68,0,0,1-1.84-1.1,4.54,4.54,0,0,0-3.52-2.69c-1.87-.43-3.73-.88-5.59-1.37-.73-.19-1.39-.56-1.23-1.48s.43-1.66,1.67-1.52,2.4,0,3.59.09a2.31,2.31,0,0,1,1.38.74l-5.06-.27Z"/><path class="cls-1" d="M98.48,260.89a7.6,7.6,0,0,1,2.21-.33,13.29,13.29,0,0,1,3.82,1,13.38,13.38,0,0,1,3.06,2.32,3.64,3.64,0,0,1,1,4.65c-1,1.82-4.53,3.21-6.42,2.57a1.64,1.64,0,0,0-1.19.1,3.75,3.75,0,0,0-1.22,1.1c-1,1.42-2.55,1.19-3.93.54-.84-.4-1.71-.75-2.55-1.15-1.28-.6-1.51-1.55-.56-2.59.58-.64,1.3-1.15,1.88-1.79.18-.2.29-.79.16-.91-1.33-1.22-.86-2.57-.22-3.82a3.05,3.05,0,0,1,2.85-1.77c.36,0,.72,0,1.08-.06ZM97,265.22l-.39-.26c-.12-.46-.42-1-.33-1.36.14-.6,1.89-1.09,2.48-.81a1.09,1.09,0,0,1,.38,1.88q-1.46,1.51-3,2.94c-.73.68-1.5,1.31-2.45,2.13A31.54,31.54,0,0,0,97.2,271a2,2,0,0,0,1.54-.45c.7-.67,1.18-1.55,1.82-2.28a23.65,23.65,0,0,1,2.75-2.79c.28-.23,1.12,0,1.58.29a1.15,1.15,0,0,1,.29,1.11,2.61,2.61,0,0,1-1.29,1,8.13,8.13,0,0,1-2.07,0c.34.59.49,1.16.85,1.39a2.54,2.54,0,0,0,2.54.26c2.37-1.11,3.54-2.57,1.42-4.95a15,15,0,0,0-2.91-2.35c-1.9-1.27-4.07-1-6.14-.71a4.92,4.92,0,0,0-2.28,1.54,1.92,1.92,0,0,0,.48,2.44C96.09,265.66,96.57,265.34,97,265.22Z"/><path class="cls-1" d="M67.23,275.79c1.93.75,3.82,1.6,5.79,2.21s3.76.92,5.65,1.33a19.26,19.26,0,0,0,4.75.87c2.22-.1,3.65,1.13,5.35,2.14a11.81,11.81,0,0,0,6.08,1.77,1,1,0,0,0,.68-.26c-1.21-.45-2.42-.88-3.62-1.36A13.4,13.4,0,0,1,87,279a1.18,1.18,0,0,0-.63-.41c-1.57-.18-3.15-.36-4.73-.46a31.57,31.57,0,0,1-9.81-2c-1.34-.54-2.75-.9-4.13-1.34l0-.37a6.13,6.13,0,0,1,1.56.1,49.36,49.36,0,0,0,7.91,2.19c2.76.42,5.5.08,8.2.52a4.11,4.11,0,0,1,2.52,1.26A10.88,10.88,0,0,0,93,282c1.08.44,2.23.72,3.33,1.12a4.22,4.22,0,0,1,.89.58c0,.65-1.29.36-.67,1.24a4.4,4.4,0,0,1-1.33.69,9.84,9.84,0,0,1-9.38-3.53,2,2,0,0,0-1.35-.71,28.84,28.84,0,0,1-9-.93c-2.73-.75-5-2.29-7.49-3.48-.43-.21-.84-.45-1.26-.68Z"/><path class="cls-1" d="M65.25,215.86c1.4,1.56,2.54-.16,3.83-.51.2-.06.35-.32.55-.35,2.43-.39,4.87-.69,7.28-1.15.76-.14,1.41-.85,2.17-1,1.41-.28,2.88-.25,4.29-.51,2.33-.43,4.62-1,7-1.46a19.1,19.1,0,0,1,3.1,0c-2.4.87-4.45,1.75-6.58,2.36a56.38,56.38,0,0,1-5.69,1.14c-3.31.59-6.63,1.15-9.94,1.74a2.51,2.51,0,0,0-.66.25c-.74.37-1.41.92-2.36.44a1.21,1.21,0,0,0-1.13.2c-.82.9-1.84.62-2.83.72a3.21,3.21,0,0,0-2,.82c-1.25,1.43-2.91,1.87-4.59,2.44-2.6.89-5.15,1.93-7.72,2.91a17.62,17.62,0,0,0-1.82.75,2.53,2.53,0,0,0-.66.71c-.1.12-.11.35-.23.4-1.75.77-3.5,1.53-5.27,2.24a3.62,3.62,0,0,1-1.25,0l-.16-.38c.74-.41,1.47-.84,2.22-1.23.24-.13.75-.16.75-.24.05-1.83,1.83-1.16,2.68-1.83a15.32,15.32,0,0,1,3.1-1.72c1.82-.83,3.66-1.62,5.52-2.34,1.42-.55,2.89-.95,4.33-1.45s2.95-1,4.38-1.65A9.5,9.5,0,0,0,65.25,215.86Z"/><path class="cls-1" d="M189.44,240.11a19.6,19.6,0,0,1,3.34,1.07c1.09.57,1.25,2.15.86,3.51-.61,2.1-2.25,3.32-3.66,4.77a2.16,2.16,0,0,0-.52,1.36c0,1.84.42,3.77,0,5.49-.78,3.1-2.21,6-5.36,7.45-.55.26-2.77-.74-3.13-1.47-.47-1,.26-1.48.92-1.89,2.4-1.5,3.48-3.93,4.28-6.42a5,5,0,0,0-.57-3.28,3.13,3.13,0,0,1,1.61-4.38A9.49,9.49,0,0,0,189.6,245a1.55,1.55,0,0,0,.44-1.41,2.64,2.64,0,0,0-1.45-1.14c-.67-.2-1.73.19-1.7-.93s1-1.13,1.89-1.17h.6ZM188,247.93c-2,0-2.54.73-1.74,2.5a5.59,5.59,0,0,1,.43,4.39c-1,2.49-2.22,4.9-4.67,6.35,1,1.24,1.37,1.53,2.56.14a18.22,18.22,0,0,0,1.2-1.44,15.54,15.54,0,0,0,2.28-5.39c.42-1.75.53-3.3-.51-4.85-.15-.22.05-.7.14-1.05a4.14,4.14,0,0,1,.29-.68c.15,0,.35.09.46,0a7.35,7.35,0,0,0,3.77-4.17,1.94,1.94,0,0,0-.34-1.7,3.9,3.9,0,0,0-3.77-.37,1.35,1.35,0,0,0,.7.32c1.46.18,1.71.51,1.85,1.95s-.94,2.24-1.84,3.11C188.52,247.33,188.27,247.64,188,247.93Z"/><path class="cls-1" d="M94.63,245.24c-.06.78-.12,1.39-.16,2a2.23,2.23,0,0,1-2,2.25,7.71,7.71,0,0,1-1.91,0,2,2,0,0,1-1.59-2.6,6.38,6.38,0,0,0,.13-1,2.76,2.76,0,0,1-3.64-.8,3.44,3.44,0,0,1,.23-4.35A8.29,8.29,0,0,1,93.4,238a12.13,12.13,0,0,1,4.74,1.31c2.14,1.35,2.54,4.6.76,6.05C97.49,246.52,96.9,246.52,94.63,245.24Zm1.73-1.61a1.51,1.51,0,0,0,2-1.06,3,3,0,0,0-.58-1.91,2.19,2.19,0,0,0-1.21-.85c-1-.3-2.16-.4-3.21-.69-2.81-.78-5,.31-6.88,2.25-1.09,1.13-.74,2.21.75,2.64.21.06.58,0,.66-.07a1.6,1.6,0,0,0,.06-.76c0-.33-.08-.91,0-.93a3.44,3.44,0,0,1,1.68-.21,1.34,1.34,0,0,1,.66,1.09,18.08,18.08,0,0,1-.47,3.16c-.16.68.06,1.1.68,1.07a14.09,14.09,0,0,0,2.55-.49.72.72,0,0,0,.37-.51c.19-1.17.26-2.36.53-3.5a2,2,0,0,1,1-1.24c.3-.13,1,.24,1.26.58S96.3,243,96.35,243.63Z"/><path class="cls-1" d="M200.62,255.2c-1.71-.52-3.2-.88-4.63-1.42-1.17-.45-1.39-2.65-.29-3.9a9.49,9.49,0,0,1,7.72-3.17,2.87,2.87,0,0,1,2.62,1.92,3.82,3.82,0,0,1-1.51,5C203.27,254.3,201.89,254.71,200.62,255.2ZM198.7,251c1.72.83,2.93-.3,4.26-.67C201.45,249.51,200.13,249.92,198.7,251Zm4.54-2.14a3.57,3.57,0,0,0-4.39.6Z"/><path class="cls-1" d="M167.37,220.62c.08,2.21-1.23,3.34-3.55,2.89a2,2,0,0,0-2.15.88A4.42,4.42,0,0,1,159,225.7c-4,.35-6.46-2.37-6.74-6.12-.17-2.27,1.31-4.05,3.87-5.08a5.91,5.91,0,0,1,6.66,1.42c.31.29.7.68.71,1,0,1,.59,1.2,1.48,1.21C167.29,218.18,167.29,218.21,167.37,220.62Zm-5.08-2.76.42-.1a5,5,0,0,0-.54-1.33c-1.5-1.89-5-2-7-.5s-2.47,3.79-1.19,5.41a5.88,5.88,0,0,0,4.15,2.24,7,7,0,0,0,2.41-.39c.24-.07.38-.52.56-.8-.24-.16-.47-.43-.72-.45a15,15,0,0,0-1.85,0,1.16,1.16,0,0,1-1.32-1.15c0-.17.74-.51,1.17-.55a3,3,0,0,1,1.64.24c1.82,1,3.74.41,5.62.45.21,0,.6-.52.6-.81a1.08,1.08,0,0,0-.56-.86,17,17,0,0,0-1.77-.17,15.11,15.11,0,0,1-2.28-.57,9.06,9.06,0,0,1-2-.93,4.27,4.27,0,0,1-.85-1.07c.48-.1,1.08-.43,1.43-.26A13.51,13.51,0,0,1,162.3,217.85Z"/><path class="cls-1" d="M149.76,271.22a6.71,6.71,0,0,1,1.09,0c1.52.23,2.76.87,3,1.87a4.18,4.18,0,0,1-1.41,4.67c-2.92,1.84-5.82,1.84-8.19-.08a4.27,4.27,0,0,1-1.48-1.89,2.44,2.44,0,0,1,.57-2A7.56,7.56,0,0,1,149.76,271.22Zm-1.92,2.22-.05.32,3.33.71.08-.41C150.26,272.87,149,273.34,147.84,273.43Zm-1.42,1.62v.51l2.93-.13v-.38Z"/><path class="cls-1" d="M123.87,251.44c-1.15-.38-2.4-.77-3.63-1.21-1.63-.57-1.91-3.78-.51-4.92a6.94,6.94,0,0,1,8.83-.15,3,3,0,0,1,1.23,3,2.59,2.59,0,0,1-2.34,2.54C126.33,250.85,125.23,251.15,123.87,251.44ZM126,248c-1.22-1.34-2.17-1.53-3.4-.86C123.37,248.55,124.64,247.76,126,248Zm-2.82-1.84,3,.48C125.56,245.63,124.81,245.45,123.17,246.13Z"/><path class="cls-1" d="M55,275.87a7.07,7.07,0,0,1,4.71,1.79,2.7,2.7,0,0,1,.26,4.23c-2.49,2.64-6.4,3.28-9-.14-1.52-2-1.06-4,1.47-5.21A13.9,13.9,0,0,1,55,275.87Zm1.3,3.5c-.88-.09-1.72-.71-2.63.11C55.53,280.43,55.71,280.42,56.28,279.37Zm.78-.32c.14-1.25-.78-1.65-2.45-.92Z"/><path class="cls-1" d="M61.36,236.83a20.44,20.44,0,0,1-3.58-1.16c-2.52-1.34-1.8-4.06-.34-5.43a6.09,6.09,0,0,1,8.67.35c1.44,1.48.63,4.75-1.33,5.41C63.73,236.34,62.64,236.52,61.36,236.83Zm-1.9-4.64,3.72-.75c.18-.79-.42-.8-1-.85C60.41,230.42,60,230.64,59.46,232.19Zm.76,1.11h3.09C62.39,231.92,60.94,231.94,60.22,233.3Z"/><path class="cls-1" d="M164.24,272.92c-.62-.09-1.2,0-1.45-.24-.53-.51-1.3-1.21-1.27-1.8.12-2.4.73-3.46,3.29-4.08a9.55,9.55,0,0,1,6.24.58,7.15,7.15,0,0,1,3.85,4.48c.49,1.4-1.35,3.66-2.84,3.6a2.15,2.15,0,0,0-2.54,1.84,1.47,1.47,0,0,1-.73.84,4.07,4.07,0,0,1-5.54-1.24c-.32-.42-.09-1.36.07-2A11.13,11.13,0,0,1,164.24,272.92Zm.37-1.51a4.89,4.89,0,0,0,0-.66c-.05-.37-.14-.73-.21-1.1a8,8,0,0,1,1.94.11c.21.06.45.87.31,1.15-.51,1-1.25,2-1.76,3a12.3,12.3,0,0,0-.63,2.21c.67.14,1.33.28,2,.41.19,0,.4,0,.6,0,1,.16,1.36-.49,1.63-1.22s.38-1.36.61-2c.67-2,1-2.3,2.28-2.17a1,1,0,0,1,.73.43.91.91,0,0,1-.29.79,8.06,8.06,0,0,1-1.4.71c.4.29.76.74.95.67a4.75,4.75,0,0,0,1.89-1c.43-.46.89-1.16.25-1.91a15.17,15.17,0,0,0-1.74-2.17c-2.17-1.73-4.75-1.47-7.27-1.19a3,3,0,0,0-1.7,2.37A1.77,1.77,0,0,0,164.61,271.41Z"/><path class="cls-1" d="M97.26,209.94c.89-.29,1.76-.62,2.66-.85,1.75-.46,3.52-.83,5.26-1.3,1.17-.31,2.3-.91,3.52-.18,1.28-1.25,3.29.41,4.53-1.16a9.2,9.2,0,0,1,1.64-1.28l.37,1.56c.08,0,.17.07.23,0a9.61,9.61,0,0,1,6-.75c1.87.37,3.89-.13,5.84-.1a31,31,0,0,1,4.48.45c1.68.27,3.33.69,5,1.05l0,.41a5.32,5.32,0,0,1-1.18,0,58,58,0,0,0-20.58.65c-.49.09-.91.55-1.41.87a3.63,3.63,0,0,0-4.13-.43c-.25.13-.63,0-.95.05l-6.72.85-4.43.56Z"/><path class="cls-1" d="M197.69,286.8c-.43,1.67-3.16,2.67-5.39,2a7.24,7.24,0,0,0-1.82,0c.22.56.28.74.37.92.83,1.65.3,2.62-1.49,2.5a33.58,33.58,0,0,1-4.08-.66c-.21,0-.37-.37-.55-.56l.13-.29h3.93c.07-1.11-.18-2.26.27-2.95s1.6-.84,2.66-1.33c.37-1.4.37-1.34,2.23-1.25a4,4,0,0,0,1.9-.51c1.24-.64,2.41-1.4,3.62-2.09a1,1,0,0,1,.59-.05c.88.14,1.37-.34,2-.92a40.17,40.17,0,0,1,3.82-2.92c1.39-1,1.4-1,2.06-.86-.19.29-.3.64-.52.75a6.67,6.67,0,0,0-2.46,2.16,27.91,27.91,0,0,1-4.29,3.91C199.79,285.34,198.84,286,197.69,286.8Z"/><path class="cls-1" d="M187.3,234.11c-.79-.07-1.59-.19-2.38-.22a2.79,2.79,0,0,1-2.76-1.87,3.34,3.34,0,0,1,.66-3.54,4.75,4.75,0,0,1,5.48-1.27c.7.27,1.43.44,2.14.69.92.32,1.71.77,1.85,1.88a3.11,3.11,0,0,1-1.37,3.4,20.64,20.64,0,0,1-3.51,1.21Zm1.09-4.79c-1.46-1.17-2.17-1.15-2.67,0Zm-2.54.88-.09.5a12.08,12.08,0,0,0,1.78.34c.14,0,.32-.47.55-.84Z"/><path class="cls-1" d="M38.85,254.91c-.15,2.78-1.52,4.13-4.07,4.32a1.6,1.6,0,0,0-1.14.74c-.76,1.65-1.57,2-3.43,1.55-.92-.23-1.7-.31-2.2-1.4a2.31,2.31,0,0,1,.3-2.49c.16-.26.11-.95-.08-1.07A2.3,2.3,0,0,1,27,254a3.1,3.1,0,0,1,2.12-2.18,8.75,8.75,0,0,1,5.15-.58,6.42,6.42,0,0,1,4.38,3A1.8,1.8,0,0,1,38.85,254.91Zm-5,1.2c.17,1.12.83,1,1.46.88a3.06,3.06,0,0,0,1.25-.59c.46-.41,1.13-1,1.11-1.45a2.8,2.8,0,0,0-1.08-1.65c-1.13-1-2.56-1-4-1.24a4.81,4.81,0,0,0-4.27,1.28c-.33.33-.25,1.27-.07,1.84.07.23.92.21,1.36.3l-.44-1.39L31,254c0,.38.07.82-.1,1.11-.68,1.17-1.44,2.29-2.16,3.42,1.55,1.26,2.26,1.18,3.21-.38.39-.63.59-1.37,1-2a5.39,5.39,0,0,1,1.35-1.53c.22-.15.79.19,1.21.31a4.47,4.47,0,0,1-.67,1.06C34.69,256.12,34.28,256.06,33.89,256.11Z"/><path class="cls-1" d="M47.21,269c.93,0,1.68,0,2.41,0,1.12-.08,1.6.5,1.65,1.52a5.7,5.7,0,0,1-.05,1.43c-.18.9-.62,1.51-1.71,1.39-1.53-.17-3.08-.31-4.62-.39a1.3,1.3,0,0,0-1,.38,2.66,2.66,0,0,1-2.94,1.47,3.83,3.83,0,0,1-2.59-2.7c-1-3,.91-5.69,3.26-6.8a8.74,8.74,0,0,1,3.41-.75c2.17-.06,3.15,1.48,2.42,3.53C47.36,268.28,47.34,268.47,47.21,269Zm-4.56,2.58c-.64.22-1.21.6-1.42.45s-.71-1-.57-1.21.82-.53,1.29-.7c.19-.07.45.11.69.17,2,.44,3.91.92,5.89,1.27a1.47,1.47,0,0,0,1.18-.65c.29-.51,0-.91-.66-1.08-1.67-.41-3.33-.91-5-1.41-.28-.09-.72-.39-.7-.56a1.4,1.4,0,0,1,.53-1,1.15,1.15,0,0,1,1,.08,3.66,3.66,0,0,1,.77.84l.4,0a4.4,4.4,0,0,0,.37-1.69c0-.26-.84-.49-1.32-.55a6.71,6.71,0,0,0-4.44,1.44c-2.18,1.38-2.17,4.11-.24,6.16a1.26,1.26,0,0,0,2,.15C43.13,272.76,43.12,272.12,42.64,271.61Z"/><path class="cls-1" d="M82.8,258.17c2.23-.1,4,.54,4.93,2.79a3.6,3.6,0,0,1-2.24,4.24c-.8.18-1.57.49-2.36.73-2.17.67-5.62-2.28-5.12-4.44s1.91-3.59,4.18-3.32A5.17,5.17,0,0,0,82.8,258.17ZM81,262.25a2.78,2.78,0,0,0,3.5.17.69.69,0,0,0,.23-.59.65.65,0,0,0-.48-.38C83.12,261.38,81.93,261.11,81,262.25Zm.14-1.21,1.29-.16,1.2-.15.05-.44c-.42-.1-.94-.41-1.24-.27S81.11,260.08,81.14,261Z"/><path class="cls-1" d="M171.53,240.92c.71.77,1.27,1.3.55,2.29a12.73,12.73,0,0,0-1-1.22c-.59-.56-.45-1,.09-1.48a6.33,6.33,0,0,0,.83-1.27,11.85,11.85,0,0,0-1.43-.7,3.09,3.09,0,0,0-1.07-.07c-2.71.09-5.43.16-8.14.29a11.83,11.83,0,0,0-2.19.44c-.71.17-1.14.12-1.44-.73-.76-2.19-1.93-3-3.63-3a36.46,36.46,0,0,1-4.32-.46,2.1,2.1,0,0,1-1.28-.73c-.23-.31-.1-.88-.13-1.34.54.07,1.41,0,1.55.26.4.79.91.73,1.57.63a10.48,10.48,0,0,1,5.7.78,3.53,3.53,0,0,1,1.27,1.43,3.46,3.46,0,0,0,4.08,1.46c1.74-.4,3.5-1.21,5.39-.45a2.43,2.43,0,0,0,1.64-.09,4.21,4.21,0,0,1,4.28.81,1.78,1.78,0,0,1,.56,1.51c-.11.45-.72.84-1.2,1.11A9,9,0,0,1,171.53,240.92Z"/><path class="cls-1" d="M46,243.69c.17-.3.27-.74.52-.87,1.72-.88,3.48-1.72,5.48-1,2.21.79,4.4,1.64,6.5,2.42.86-.33,1.76-.76,2.71-1,2.25-.65,4.51-.17,6.75.1a20,20,0,0,1,3.56.83,13.47,13.47,0,0,1,2.06,1l-.12.38c-.23.11-.47.34-.7.33-1.7-.13-3.39-.34-5.09-.46-2.31-.16-4.58-.6-6.93.29a5.25,5.25,0,0,1-3.64-.33,16.66,16.66,0,0,0-9-1.74,20.75,20.75,0,0,1-2.18,0Z"/><path class="cls-1" d="M113.32,216.15c.33,1.12,1.1,1.18,1.9,1.17,2.15,0,4.31-.18,6.46,0a10.73,10.73,0,0,1,3.36,1c.34.14.48.78.71,1.18a4,4,0,0,1-1.34,0,15.55,15.55,0,0,0-9.6-.41c-1.2.35-3.2-.58-3.42-1.79a1.87,1.87,0,0,1,.53-1.38,2.47,2.47,0,0,1,1.44-.73c1.86-.15,3.63-1.16,5.62-.38a23.89,23.89,0,0,0,3.71.68,5.86,5.86,0,0,1,2,.7c.79.51,1.29.2,2-.14a24.68,24.68,0,0,1,4.75-1.63,16.15,16.15,0,0,1,4-.28,1.12,1.12,0,0,1,1.17,1.35c0,.16-.16.4-.29.43s-.55,0-.61-.11c-.66-1.3-1.85-.86-2.76-.68-1.73.34-3.41.93-5.11,1.42-.08,0-.18,0-.23.07-1.6,1.59-3.12.48-4.68-.1A10.06,10.06,0,0,0,121,216a17.77,17.77,0,0,0-3.28-.4C116.25,215.69,114.82,216,113.32,216.15Z"/><path class="cls-1" d="M16.75,262.69c-2-.52-2.06-.69-1.2-2.55.29-.62.51-1.27.8-2,1.24,1.17-.33,2.11-.14,3.21l1.19.05c1.07,0,1.3.38.92,1.41-.1.26-.4.51-.37.73.09.7.12,1.83.5,2a2,2,0,0,1,1.34,2.75c.84,0,1.58,0,2.32,0a3.16,3.16,0,0,1,3.13,2.59c.5,2,2,2.5,3.64,3,1.13.32,2.33.37,3.49.62.28.06.49.45.61.87-2.76-.34-5.67.44-8-1.44a6.32,6.32,0,0,1-1.59-2.51A1.89,1.89,0,0,0,21.3,270a16.94,16.94,0,0,1-1.78.17c-.71,0-1.78.07-2-.33s0-1.44,0-2.45C16.16,266.28,15.91,264.58,16.75,262.69Z"/><path class="cls-1" d="M113,306.22c-.91,1.64-2.45,1.4-3.91,1.44-.94,0-1.82,0-2.43,1.06-.5.9-3.5,1.11-4.76.52-.91-.43-1.81-.91-2.69-1.4-.19-.11-.29-.38-.43-.58.24-.16.47-.45.71-.45,1.08,0,2.15.07,3.23.12a2.29,2.29,0,0,0,2.08-.85,2.89,2.89,0,0,1,1.73-.8c.94-.13,1.92,0,2.87-.07.48-.05.91-.47,1.39-.63s1.26-.53,1.73-.35a30.06,30.06,0,0,1,3,1.62c.64.33,1.36.5,2,.83.27.14.63.64.57.75-.21.37-.58.86-.92.88a3.34,3.34,0,0,1-1.74-.43A26.71,26.71,0,0,1,113,306.22Z"/><path class="cls-1" d="M20.3,245.43c-1.46-2.3-4-1.45-6.14-2.68.73-.27,1.18-.6,1.58-.55a21.9,21.9,0,0,1,3.11.67c.67.18,1.18.58,1.83-.24a13.78,13.78,0,0,1,5.66-4.35,1.84,1.84,0,0,0,.72-.56A33.94,33.94,0,0,1,34.64,231a17.4,17.4,0,0,1,3.11-1.61c.33-.14.82.07,1.26.13-1.8,1.2-3.44,2.19-5,3.36A14.56,14.56,0,0,0,32.39,235c-.75.87-1.58,1.67-2.38,2.51A9.56,9.56,0,0,0,28.56,239c-.79,1.35-2.19,1.41-3.43,1.8a5.67,5.67,0,0,0-3.6,2.9A13.66,13.66,0,0,1,20.3,245.43Z"/><path class="cls-1" d="M46,243.66c-.82,1-1.49.48-2-.13-.09-2.34,1.68-3,3.24-3.88a2.83,2.83,0,0,1,1.09-.39,13.64,13.64,0,0,1,9.15,2.12c.5.35,1.54,0,2.31-.15,2.24-.39,4.43-1.16,6.78-.51a38.54,38.54,0,0,0,4.33.75,9.77,9.77,0,0,1,5.39,2.65c.7.67.47,1.38-.46,1.64a4,4,0,0,1-.8.19,1.28,1.28,0,0,1-.8-.11.74.74,0,0,1,0-.72c.76-.77.12-1.25-.42-1.43-1.49-.49-3-.83-4.56-1.22-1.15-.29-2.3-.55-3.46-.82a2.35,2.35,0,0,0-.82-.13c-1.75.25-3.52.46-5.24.84a4.68,4.68,0,0,1-3-.21A30.92,30.92,0,0,0,53,240.81,8.42,8.42,0,0,0,45.2,242c-.48.36-.66.69-.07,1.1l.86.6Z"/><path class="cls-1" d="M143.78,219.4a28,28,0,0,1-3.48-1.16,2.44,2.44,0,0,1-1.45-3.12,2.4,2.4,0,0,1,2.13-1.85c2.58-.53,4.84.18,6.07,2.08.75,1.16.65,2.16-.49,2.87A19.3,19.3,0,0,1,143.78,219.4Zm1.41-4.17c-.12-1-2.06-1.33-3.78-.38.3.23.54.57.78.57C143.19,215.4,144.19,215.3,145.19,215.22Z"/><path class="cls-1" d="M139.95,306.55c-.28.22-.58.65-.84.63-1.43-.08-2.41.88-3.59,1.38a2.47,2.47,0,0,1-1.7.23c-1.73-.78-3.25.14-4.86.37a10.17,10.17,0,0,1-2.18-.08c-.43,0-.86-.18-1.29-.17a5.59,5.59,0,0,1-3.27-.76c-.39-.25-1-.13-1.5-.26a3.43,3.43,0,0,1-.81-.48c.27-.21.53-.6.8-.61,2.11-.07,4.23-.08,6.34-.07,2.43,0,4.87.12,7.3,0,1.43,0,2.85-.41,4.28-.58a6.7,6.7,0,0,1,1.24.07Z"/><path class="cls-1" d="M172.89,243.3c0-.22,0-.53.16-.65a8.41,8.41,0,0,1,1.6-1.17c.9-.46,1.73-1.09,1.68-2.09a3.29,3.29,0,0,0-1.71-2.78,4.09,4.09,0,0,0-1.57-.54c-2.9-.23-5.81-.42-8.72-.56a6.59,6.59,0,0,0-2,.33c-1.44.39-2.12.11-2.67-1.25a3.77,3.77,0,0,0-3.55-2.29c-1.75-.12-3.52,0-5.27,0a1.9,1.9,0,0,1-1.22-.35,7,7,0,0,1,1.86-.65c2.48-.12,5-.58,7.31.93.9.59,1.63,1.2,1.6,2.39,0,.8.36.8,1.09.66a39.92,39.92,0,0,1,6.43-.94,35.2,35.2,0,0,1,5.78.65c1.85.26,4,3.57,3.43,5.34a2.35,2.35,0,0,1-.82,1.1c-1,.74-2.07,1.39-3.11,2.07Z"/><path class="cls-1" d="M10.71,262.63c-1.41-1.87-.55-3.59.33-5.31a14.15,14.15,0,0,0,.77-1.32,13.21,13.21,0,0,0,.85-2.75,6.72,6.72,0,0,1,1.61-3.71c1.14-1.28.91-2-.75-2.68a10.3,10.3,0,0,1-1.22-.7,2.1,2.1,0,0,1,2.74.25c1,.74,1.67.75,2.29-.44.21-.4.78-.6,1.29-1a2.33,2.33,0,0,1-.76,2.62,4.69,4.69,0,0,0-.9,1.55,5.23,5.23,0,0,0-2.85,4.59,5.74,5.74,0,0,1-1.05,3.51c-1.49,1.92-1.53,3.41-.78,5.78l-1.6-.46Z"/><path class="cls-1" d="M150.91,208.57c.5,1.09.06,1.5-.85,1.4-1.5-.16-3-.4-4.48-.63-.87-.14-1.72-.34-2.73-.54a20.9,20.9,0,0,1,3.27-.76c4-.26,8-.42,12-.58a11.55,11.55,0,0,1,1.51.32,3.16,3.16,0,0,0,1.72,0,1.41,1.41,0,0,1,1.93.31,7.34,7.34,0,0,0,3.53,1.74c.41.12.7.65,1,1-.39.13-.83.44-1.16.35-1.64-.49-3.26-1.08-4.88-1.63a12,12,0,0,0-3-.91C156.25,208.48,153.66,208.57,150.91,208.57Z"/><path class="cls-1" d="M179,274.39c2-1.71,3.78-3.19,5.5-4.75a8.44,8.44,0,0,1,4.64-2.35,4,4,0,0,0,2-1c.86-.78,1.53-1.76,2.33-2.6a5,5,0,0,1,1-.67l.28.3c-.23.38-.43.77-.69,1.13q-.92,1.28-1.89,2.54a3.74,3.74,0,0,1-2.51,1.58,6.46,6.46,0,0,0-4,2,12.07,12.07,0,0,1-5.21,3.64A8.19,8.19,0,0,1,179,274.39Z"/><path class="cls-1" d="M72.95,284.63c1.78.05,3.57-.23,5.28.67a3.71,3.71,0,0,0,1.89.54c3-.27,5.77.74,8.58,1.52a3.7,3.7,0,0,1,1,.68l-.09.34a5.45,5.45,0,0,1-1.31.05c-1.24-.25-2.46-.63-3.71-.85a5.79,5.79,0,0,0-2.81-.18c-1.78.68-3.09-.16-4.54-.82-.85-.38-1.8-.56-2.69-.86-.58-.19-1.14-.44-1.71-.67Z"/><path class="cls-1" d="M215.87,242.75c.17-.41.23-1,.54-1.19.72-.43.55-.81.36-1.46-.32-1.1-.72-2.31.36-3.28.33-.29.95-.74,1.12-.62a3.22,3.22,0,0,1,.89,1.26,1.68,1.68,0,0,1,0,.71c0,1.79.4,2,2.17,1.38a33.93,33.93,0,0,1,4-.84l.17.36c-.26.22-.49.54-.8.65-1.7.59-3.44,1.1-5.14,1.71-1.13.41-2.21.94-3.31,1.42Z"/><path class="cls-1" d="M39.11,238.67A4.45,4.45,0,0,1,39,238c1.7-.6,1.94-3,4-3.24.46-.06.81-.87,1.25-1.28a4.42,4.42,0,0,1,1.42-1.12A39.24,39.24,0,0,1,50,231.29c.33-.07.73.24,1.1.37-.24.25-.43.62-.72.72-1.11.36-2.27.55-3.36,1a7,7,0,0,0-1.68,1.2,8.6,8.6,0,0,1-1.66,1.37,5.69,5.69,0,0,0-2.23,1.75C41,238.23,40,238.33,39.11,238.67Z"/><path class="cls-1" d="M200.71,229.69a8.9,8.9,0,0,1,3.92,2.46c.6.71,1.22,1.41,1.82,2.12.13.15.37.35.34.45-.39,1.19.84,1.47,1.23,2.21.28.53.63,1,.93,1.55a3.88,3.88,0,0,0,.43.81c.89.9.79,2,.61,3.21-1.08-1.82-2.05-3.49-3.07-5.15-.24-.4-.65-.7-.93-1.08a6.51,6.51,0,0,1-1.5-2.66c-.2-.94-1.65-1.63-2.56-2.41-.47-.4-1-.78-1.45-1.16Z"/><path class="cls-1" d="M215.84,231.79a8.55,8.55,0,0,1-1-.44c-.73-.43-1.43-.9-2.14-1.35a1.35,1.35,0,0,1-.21-.11c-1.35-1.27-2.69-2.56-4.06-3.81-.75-.68-1.57-1.29-2.32-2a10.4,10.4,0,0,1-1-1.16l.31-.31c1.49,1,3,1.92,4.47,2.86.49.31,1,.57,1.5.85a2,2,0,0,1,.59.37c1.31,1.61,2.61,3.24,3.91,4.86Z"/><path class="cls-1" d="M224.27,245.57c.35,1,.62,1.72.89,2.48a6.91,6.91,0,0,0,.73,2c.69.86.43,1.39-.24,2-.22.2-.54.66-.47.75.9,1.25-.37,1.73-.75,2.5-.16,0-.3,0-.3-.06a11.07,11.07,0,0,0-.6-2.24c-.62-1.2.56-1.45.95-2.11C223.77,249.89,223.49,246.64,224.27,245.57Z"/><path class="cls-1" d="M106.61,214.26c-.39.24-.77.5-1.17.73-.58.34-1.17.66-1.76,1a2.79,2.79,0,0,1-1,.49c-1.83.08-3.66.11-5.49.09-.34,0-.67-.34-1-.52a3.11,3.11,0,0,1,.91-.48c1.47-.21,3-.36,4.43-.55a2.26,2.26,0,0,0,.72-.32,6.81,6.81,0,0,1,4.2-.79Z"/><path class="cls-1" d="M135,216.56a14.65,14.65,0,0,1-1.71,1c-1.64.73-3.29,1.44-5,2-.57.21-1.65.34-1.83.07-.46-.71.29-1.22.87-1.53a16.22,16.22,0,0,1,6.31-2.17,5.64,5.64,0,0,1,1.22.16Z"/><path class="cls-1" d="M214.45,269.52a22,22,0,0,1,.88-2.6,2.67,2.67,0,0,1,1.16-1.32c1.4-.56,1.7-1.82,2.23-3a4.18,4.18,0,0,1,.38-.83,2.15,2.15,0,0,1,.62-.39c.13.26.43.59.36.79-.45,1.33-.94,2.65-1.5,3.94a1.21,1.21,0,0,1-.92.48c-1.22,0-1.5,1-1.58,1.83C216,269.61,215.36,269.69,214.45,269.52Z"/><path class="cls-1" d="M22.22,253.71l-.65-.58c.42-.61.77-1.21,1.21-1.73s.88-.87.53-1.64c-.09-.21.17-.67.38-.91q2.2-2.43,4.46-4.8a3.69,3.69,0,0,1,.8-.5l.2.24c-.25.31-.51.62-.74.95-.38.56-.68,1.18-1.11,1.71a8.31,8.31,0,0,1-1.46,1.46c-.71.53-1.4,1-1.12,2.07a1.81,1.81,0,0,1-.47,1.2C23.64,252,22.94,252.82,22.22,253.71Z"/><path class="cls-1" d="M107,204.66a4.66,4.66,0,0,1-1,.56,26.73,26.73,0,0,1-3.41.81c-1.76.25-3.55.35-5.32.52l-.13-.59a21.24,21.24,0,0,1,2-.75,30.54,30.54,0,0,1,4-.88,30.15,30.15,0,0,1,3.66,0Z"/><path class="cls-1" d="M171.32,216.66c1.94,0,3.88-.06,5.81.05.39,0,.7.76,1.12,1.07a4.86,4.86,0,0,0,1.46.77c.48.14,1.06,0,1.54.15.33.1.56.49.84.75l-.21.22c-1.39-.15-2.8-.22-4.16-.51a1.85,1.85,0,0,1-1-1.19c-.17-.59-.4-.78-1-.77-1.46,0-2.91,0-4.37,0Z"/><path class="cls-1" d="M130.21,300.36a23.54,23.54,0,0,1-2.44-.72,1,1,0,0,1-.18-.92,3,3,0,0,1,4.4-.27,1.28,1.28,0,0,1,.28,1.05,1.37,1.37,0,0,1-.84.69,4,4,0,0,1-1.19,0Z"/><path class="cls-1" d="M28.08,286.18a10.5,10.5,0,0,1,2,.62c.35.19.77.76.71,1.06s-.62,1-1,1a10.71,10.71,0,0,1-3-.5c-.23-.07-.31-.9-.28-1.37,0-.22.42-.48.7-.6a2.28,2.28,0,0,1,.83,0Z"/><path class="cls-1" d="M163.83,291.85c.68-1.38,3.45-1.84,4.36-.65a1.38,1.38,0,0,1,0,1.33c-.73.83-2.64,1-3.37,0A4,4,0,0,0,163.83,291.85Z"/><path class="cls-1" d="M182,208.8a14.49,14.49,0,0,1,2.53.84,1.44,1.44,0,0,1,.56,1.25c-.11.48-.54.8-1.25.45s-1.45-.12-2.06-.41-.9-.86-1.35-1.31Z"/><path class="cls-1" d="M52.43,292.72c-1.41,0-2.69,0-4,0-.24,0-.58-.54-.62-.87s.31-.6.58-.76C49.83,290.22,51.2,290.75,52.43,292.72Z"/><path class="cls-1" d="M142.76,205a7.44,7.44,0,0,1-2-.77c-.66-.51-.4-1.14.39-1.19a18.84,18.84,0,0,1,3.22.12c.21,0,.59.49.54.63a1.62,1.62,0,0,1-.71.93,4.37,4.37,0,0,1-1.41.12Z"/><path class="cls-1" d="M10.68,262.6c-.63,1.35-1.62.53-2.43.33A11,11,0,0,1,6,262c-.3-.15-.51-.5-.93-.93a4.47,4.47,0,0,1,4,.7,9.67,9.67,0,0,0,1.69.88Z"/><path class="cls-1" d="M38.1,291.45c-.87-.62-1.6-1.1-2.26-1.65-.09-.08.11-.74.18-.74a15.75,15.75,0,0,1,2.81.14c.24,0,.63.77.53,1A6.16,6.16,0,0,1,38.1,291.45Z"/><path class="cls-1" d="M177.18,206.91a1.24,1.24,0,0,1-1.64,1.21,6.86,6.86,0,0,1-2-.78c-.2-.11-.4-.69-.33-.76.3-.26.74-.63,1-.56A28.27,28.27,0,0,1,177.18,206.91Z"/><path class="cls-1" d="M113,255.57c2.35.71,4.58,1.52,5.76,3.91l-.19.29c-.43-.32-.86-.64-1.29-1s-1-.88-1.53-1.24-1.15-.51-1.67-.84S112.59,256.78,113,255.57Z"/><path class="cls-1" d="M75.63,209.11c1.25-.33,2.39-.66,3.55-.93.2,0,.47.17.7.26a2.25,2.25,0,0,1-.41.66C77.93,210.29,76.68,210.33,75.63,209.11Z"/><path class="cls-1" d="M17.57,285.61l-1.38-1.39c.5-.37,1-1,1.52-1.07a.93.93,0,0,1,1.14,1.12C18.76,284.7,18.17,285,17.57,285.61Z"/><path class="cls-1" d="M149.71,204.73a5.29,5.29,0,0,1-1.19,0c-.23-.05-.41-.35-.61-.53.23-.21.44-.57.68-.59a11.69,11.69,0,0,1,2.27.07c.29,0,.54.33.81.51a3.75,3.75,0,0,1-.89.53,4.13,4.13,0,0,1-1.07,0Z"/><path class="cls-1" d="M72.63,211.65c-1,1.59-2.31,1.24-3.59,1.11-.17,0-.41-.39-.41-.59a.7.7,0,0,1,.48-.49C70.28,211.63,71.46,211.65,72.63,211.65Z"/><path class="cls-1" d="M168.61,210.43c.15-1.48,1.22-1.85,2.33-2.18C171.29,209,170.18,210.14,168.61,210.43Z"/><path class="cls-1" d="M14.87,277.73l-1.75-.33c.08-.26.1-.69.25-.75C14,276.39,14.6,276.56,14.87,277.73Z"/><path class="cls-1" d="M166.23,209.12l.71-2.27C167.81,207.8,167.68,208.33,166.23,209.12Z"/><path class="cls-1" d="M74.28,193.37A8.4,8.4,0,0,1,73,192a2.61,2.61,0,0,0-1.59-1.42,1.46,1.46,0,0,1-1-1.8,2.58,2.58,0,0,0-.37-1.56,1.47,1.47,0,0,1,0-2c.71-.78,1.43-1.55,2.19-2.29.15-.14.47-.1.71-.15a2.69,2.69,0,0,1,.09.86c-.06.3-.38.55-.41.84s0,1,.18,1.15c.78.47.71,1.12.75,1.86a3,3,0,0,0,.51,1.43c.63.94,1.39,1.78,2,2.72S75.87,193.4,74.28,193.37Z"/><path class="cls-1" d="M132.77,188.11a26,26,0,0,1,3.89-1.64,21,21,0,0,1,10.29-.12,9.85,9.85,0,0,1,2,.7c.28.14.41.58.6.89-.32.14-.69.46-1,.39-3.15-.88-6.35-.44-9.53-.39-1.7,0-3.4.38-5.1.57a10,10,0,0,1-1.1,0Z"/><path class="cls-1" d="M112,165.77a3.13,3.13,0,0,1,1.09-.24c3.56.59,7.07,1.16,10.73.46a34.14,34.14,0,0,0,6.34-2.14,7.6,7.6,0,0,1,1.65-.28l.12.38a17.68,17.68,0,0,0-1.72,1,14.23,14.23,0,0,1-10.34,2.88c-2.62-.26-5.19-.95-7.78-1.44Z"/><path class="cls-1" d="M139.74,182.41c-2.08.75-4.18,1.47-6.25,2.27-1.49.57-2.92,1.29-4.4,1.88a5.86,5.86,0,0,1-1.42.2c.15-.48.15-1.12.46-1.43a9.69,9.69,0,0,1,5.33-2.74c1.21-.18,2.41-.52,3.63-.64a17.49,17.49,0,0,1,2.63.11Z"/><path class="cls-1" d="M106,166.22a60.68,60.68,0,0,0,13.18,4c.17,0,.28.43.31,1-1.86-.24-3.73-.43-5.58-.73-1.23-.2-2.43-.55-3.65-.82A5.11,5.11,0,0,1,106,166.22Z"/><path class="cls-1" d="M160.35,191.3c-1.87.87-3.08-.93-4.64-1.87l.07-.38,2.4.39c.42.07.84.14,1.26.18,2.06.19,4.12.36,6.18.57.19,0,.51.26.5.38a.85.85,0,0,1-.36.64,33.51,33.51,0,0,1-4.07,1.44C161.43,192.72,161,191.93,160.35,191.3Z"/><path class="cls-1" d="M140.89,159.65c-.29,2.92-8,9-11,8.67a63.1,63.1,0,0,0,5.62-4.34A25,25,0,0,1,140.89,159.65Z"/><path class="cls-1" d="M92.79,24c.1-1.25-1.07-2,.07-3.11.37,1.15.83,2.27,1.08,3.45.18.82.41,1.27,1.56.89a35.5,35.5,0,0,0-2-4.38,30.21,30.21,0,0,0-3-3.53,4.76,4.76,0,0,1,3.93,3,40.69,40.69,0,0,0,2.3,4.73c.44.69,1.47,1,2.33,1.54.64-1.35,1.22-2.53,1.76-3.73a2,2,0,0,1,1.83-1.27,2.14,2.14,0,0,0,2.21-1.52,5.94,5.94,0,0,1,2.36-2.23,8.52,8.52,0,0,0,3-2.6c.17-.29.54-.47.92-.77a2,2,0,0,1-.69,2.33c-1.1.95-2.27,1.81-3.42,2.69-.63.48-1.06.91-.37,1.72a2.82,2.82,0,0,1,.56,1.42c.11.87-.18,1.6-1.19,1.72a9.5,9.5,0,0,0-2,.12,3.39,3.39,0,0,0-1.89,1.29A4,4,0,0,1,99.25,28a5.31,5.31,0,0,1-1.12.28c-.28,0-.81-.16-.82-.27-.08-1.14-1.06-1.31-1.77-1.48-1.52-.36-3.09-.48-4.78-.71a8.55,8.55,0,0,1,0,2.09,2.92,2.92,0,0,1-1,1.73,3.33,3.33,0,0,1-3.37.27c-.64-.35-.6-.78-.2-1.25a2,2,0,0,1,.75-.54c2.09-.78,2.26-1.59.91-3.42q-2.28-3.1-4.34-6.35a1.76,1.76,0,0,1,.12-1.66,1.71,1.71,0,0,1,1.59,0,17.06,17.06,0,0,1,6.16,5.76A13.42,13.42,0,0,0,92.79,24Zm-7.2-5c1.87,2.25,3.12,4.63,5.59,6.18C91.31,23.46,87.74,19.51,85.6,19Z"/><path class="cls-1" d="M59,41.37c-.27,2.19-.47,2.43-2.3,2.33-1.67-.09-3.33-.34-5-.57a5.12,5.12,0,0,1-1.24-.61c1.35-1.65,3.21-.34,4.55-1-.56-.88-1.18-1.71-1.66-2.62-.57-1.07,0-2,1.25-2.11,1.6-.19,2.81.71,4.06,1.45.9.53,1.71,1.21,2.66,1.89a2.43,2.43,0,0,0,.21-.6c0-1.24.7-1.75,1.9-1.76a2.78,2.78,0,0,0,.89-.34,3.87,3.87,0,0,0-.57-.76c-.88-.72-1.81-1.37-2.68-2.09a1.61,1.61,0,0,1-.38-2.07,14.8,14.8,0,0,0,2.68,1.68,12.51,12.51,0,0,1,5.74,4,8,8,0,0,1,1.28,2.39,1.39,1.39,0,0,1-.57,1.25,6.29,6.29,0,0,1-2.25.26c-.33,0-.66-.32-1-.49l-.25.2c.09.3.2.6.27.91.1.47.38,1.19.2,1.36a2,2,0,0,1-1.56.48,21.27,21.27,0,0,1-3.32-1.46C61,42.58,60.09,42,59,41.37Z"/><path class="cls-1" d="M72,36a15.4,15.4,0,0,0-1.17-2,46,46,0,0,1-3.24-3.84,9.51,9.51,0,0,1-1.13-3.5c-.14-.8.48-1.18,1.27-.75s1.81,1.08,3,1.82A18.67,18.67,0,0,1,70,26c-.11-.32-.24-.8-.09-1a1.19,1.19,0,0,1,1-.43c2.49.67,5,1.23,6.89,3.28a22.53,22.53,0,0,0,1.72,1.57l-.24.35-5.67-2.89-.24.43a13.35,13.35,0,0,0,1.1.87,10.91,10.91,0,0,1,4.12,5.52,2,2,0,0,1-.33,1.58c-.13.19-1,.17-1.27-.06-1.75-1.38-3.44-2.83-5.13-4.29-.76-.66-1.46-1.39-2.23-2-.17-.15-.5-.11-1.11-.23a18.12,18.12,0,0,0,1.1,1.51c1.15,1.24,2.36,2.42,3.49,3.67a5.8,5.8,0,0,1,1.45,4c0,1-.7,1.42-1.59.86a12.47,12.47,0,0,1-1.67-1.46c-1.81-1.67-3.51-3.47-5.45-5a19.59,19.59,0,0,0-4.54-2.38,3.86,3.86,0,0,0-3.31.48,3.06,3.06,0,0,1-1.14.1c.09-.41.05-.95.3-1.21a2.29,2.29,0,0,1,1.31-.64c3.78-.45,6.85,1,9.46,3.65,1.26,1.26,2.45,2.58,3.68,3.88Zm1.13-6.74c.2,1.47,2.43,3.32,3.65,3.05Z"/><path class="cls-1" d="M114.22,46.3c.86.2,1.75.34,2.59.62.33.11.56.52.84.79a5.23,5.23,0,0,1-1,.88,2.52,2.52,0,0,1-1.06.07c-1.8,0-3.6-.09-5.4,0a36.49,36.49,0,0,0-5.07.61c-.8.16-1.48.84-2.27,1.09-1.19.37-2.44.56-4,.89.66-1.26,1.65-1.29,2.58-1.6s1.72-1.16,2.66-1.51a15.87,15.87,0,0,1,3-.56c1-.16,2-.29,3.07-.45-.59-1.7-.27-2.19,1.42-2.24a36.51,36.51,0,0,0,4.91-.28c-.87-.37-1.77-.68-2.61-1.11-.52-.27-1.42-.55-.9-1.35.26-.4,1.07-.44,1.63-.65l.16.35-.36.79c1.4.41,2.74.74,4,1.19a1.54,1.54,0,0,1,.88.91c.06.22-.41.76-.73.86a11.8,11.8,0,0,1-2.22.34c-.73.07-1.46.1-2.19.14Z"/><path class="cls-1" d="M117.72,27.92a10.58,10.58,0,0,1,.22-1.75,2.35,2.35,0,0,0-1.12-2.92,6.79,6.79,0,0,1-3.4-7,9.24,9.24,0,0,1,2.31-4.69,1.44,1.44,0,0,1,1.39,0,4.65,4.65,0,0,1,.94,4.07c-.31-.15-.6-.2-.7-.36-.63-1.09-1-.78-1.46.16-1,2.16-.2,4,1,5.75.69,1,1.49,2,2.44,3.2a38.37,38.37,0,0,1,.86-4.26c.4-1.27-.22-2.85,1-3.87l.5.07a57.44,57.44,0,0,1-.58,6.31,22.41,22.41,0,0,1-1.77,4.7c-.2.44-.81.69-1.24,1Z"/><path class="cls-1" d="M123.93,46.84a15.17,15.17,0,0,0,1.5.59,1.1,1.1,0,0,1,.92,1.31c-.08.74.26,1,1,1s1.2,0,1.8,0a1.75,1.75,0,0,1,1.58.79c.38.47,1.23.52,1.83.85a43.64,43.64,0,0,1,3.9,2.26c.29.2.21.93.31,1.41a5,5,0,0,1-1.2-.31,12.3,12.3,0,0,0-4.94-1.77,2.14,2.14,0,0,1-2.08-1.35,1.4,1.4,0,0,0-.91-.64c-1.77-.43-3.55-.78-5.32-1.2a12.76,12.76,0,0,1-1.65-.64c.61-1.32,1.67-.46,2.83-.8a17.41,17.41,0,0,0-2.3-.66,17,17,0,0,0-2.24,0l-.18-.48a4.09,4.09,0,0,1,1-.56c1-.25,2-.4,3-.64.21-.05.54-.36.52-.51a1.11,1.11,0,0,0-.51-.61c-.62-.41-1.29-.75-1.9-1.17-.13-.09-.17-.43-.13-.63a.53.53,0,0,1,.47-.21A13.19,13.19,0,0,1,124,44.35C125.15,45.29,125,45.7,123.93,46.84Z"/><path class="cls-1" d="M53.19,49.84c-1.48.27-2.95.58-4.43.81-.81.13-2.4-1.16-2.86-2-.67-1.24,0-1.94.84-2.67,1.7-1.48,4.82-1.62,7.23.24.8.62,1.61,1.24,2.36,1.92a1.52,1.52,0,0,0,2.37,0,3.59,3.59,0,0,1,1.15-.47c.08.58.39,1.25.19,1.71-.47,1.13-2.35,1.41-3.66.59s-2.54-1.83-3.9-2.56a3.91,3.91,0,0,0-4,.24,1.05,1.05,0,0,0-.09,1,2.56,2.56,0,0,0,1.35.59c.87.09,1.76,0,2.63,0a4,4,0,0,1,1,.29Z"/><path class="cls-1" d="M71.79,23.76c-1.08,0-2.14-.75-2-1.46a1.48,1.48,0,0,1,1.8-1.17c.88.1,1.75.32,2.63.46a13,13,0,0,0,1.37.06c-.15-.44-.26-.9-.45-1.33s-.51-1-.77-1.56l.29-.38c1,.11,1.93.25,2.89.34.66.06,1.32.07,2,.1l1.59,0c-1,2.26-2.64.86-4,1.34a17.81,17.81,0,0,1,.78,1.94c.1.36.12,1-.08,1.14a1.9,1.9,0,0,1-1.35.27c-1-.19-2-.57-3.08-.79C72.56,22.59,71.82,22.69,71.79,23.76Z"/><path class="cls-1" d="M121.07,25.92a15.09,15.09,0,0,0,2.13-8.47c0-1,0-1.79,1.15-2a2,2,0,0,1,1.95,1.85,5.94,5.94,0,0,1-1.93,5.1,10.57,10.57,0,0,0-1.25,1.73C122.63,24.88,122.39,25.89,121.07,25.92Z"/><path class="cls-1" d="M134.54,21.13a3.76,3.76,0,0,1-.46,1.08c-1.56,1.58-3.18,3.11-4.74,4.7A17.13,17.13,0,0,0,128,28.71a6,6,0,0,1-1,1.09,8.25,8.25,0,0,1,6-8.11Z"/><path class="cls-1" d="M129.52,29.8a4.55,4.55,0,0,1,.7,0,5.25,5.25,0,0,0,4.83-1.65c.36-.37,2.37-.3,2.48.13s0,1.25-.29,1.4c-1.05.54-2,1.47-3.47.89-.84-.32-2,.24-3,.25a4.18,4.18,0,0,1-1.42-.56Z"/><path class="cls-1" d="M50.26,52.5a2.63,2.63,0,0,1,.71,0c.2.06.51.25.51.36s-.18.57-.35.62a11.76,11.76,0,0,1-2.62.53,4.19,4.19,0,0,0-3,1,2.82,2.82,0,0,1-1.34.48c-.05,0-.39-.59-.31-.75.25-.47.58-1.12,1-1.24,1.77-.5,3.59-.83,5.39-1.23Z"/><path class="cls-1" d="M96.57,14.23c.17.39.49.79.49,1.18a4.63,4.63,0,0,0,1.34,3.17c.82.95.7,1.92.28,3.29a13.89,13.89,0,0,1-.86-1.21,18.74,18.74,0,0,0-1.14-2.22c-1-1.35-.69-2.72-.43-4.12Z"/><path class="cls-1" d="M107.14,11.73c-1.05,1.67-3.36,2.71-4.72,2.33-.73-.2-1.18-.66-.79-1.4Z"/><path class="cls-1" d="M114.33,25c.57,1.48.35,2.76-.61,3.53a1.4,1.4,0,0,1-.7-1.87C113.22,26,113.24,25,114.33,25Z"/><path class="cls-1" d="M110.66,25.34v2.61C109.4,27.31,109.38,26.28,110.66,25.34Z"/><path class="cls-1" d="M63.38,171.21a3.8,3.8,0,0,1-.84-.68c-1.4-2-2.72-4.08-4.14-6.08a10.37,10.37,0,0,0-4.88-3.36c-.15-.06-.36,0-.63,0l4.77,5.32-.34.37a23.91,23.91,0,0,1-2.2-1.55,48.88,48.88,0,0,1-3.81-3.63,2.52,2.52,0,0,1-.42-1.81c0-.22.9-.49,1.39-.49,3,0,5.06,1.72,7,3.67a7.23,7.23,0,0,1,1.18,1.64c1.12,2.05,2.2,4.13,3.29,6.2Z"/><path class="cls-1" d="M44.13,141.89a24.17,24.17,0,0,1,2-3.58,8.14,8.14,0,0,1,4.28-2.76c.83-.24,1.76-.38,2.2-1.53.19-.51,1.38-.72,2.15-.92a12.33,12.33,0,0,1,2.09-.19l.18.42a3.48,3.48,0,0,1-1.06.58c-.79.11-1.37.26-1.4,1.25a1.41,1.41,0,0,1-.73.94,24.93,24.93,0,0,1-3.14,1.33c-2,.69-3.22,2.4-4.75,3.69-.45.38-.91.74-1.37,1.11Z"/><path class="cls-1" d="M25.61,163.55a5.82,5.82,0,0,1-.08,1.26c-.51,1.47-1.06,2.93-1.59,4.4-.08.22-.19.57-.09.68,1.17,1.31.18,2.55-.17,3.74a23.26,23.26,0,0,1-1.53,3.53c-.12.25-.46.4-.7.6-.16-.27-.51-.59-.45-.79a34.28,34.28,0,0,1,1.35-4.09c.27-.64.47-1.06,0-1.69a1.57,1.57,0,0,1-.11-1.34c.87-2,1.84-3.88,2.78-5.81C25.06,163.93,25.19,163.88,25.61,163.55Z"/><path class="cls-1" d="M17.81,183.42a20.65,20.65,0,0,1,4-4.69l.49.34a15.94,15.94,0,0,1-.89,1.59c-.55.77-1.42,1.33-.53,2.53.27.36-.29,1.36-.5,2.06a9.22,9.22,0,0,1-.49,1.42,4.1,4.1,0,0,1-.64.78,10.49,10.49,0,0,1-.86-.81.48.48,0,0,1,0-.46C19.26,185.08,18.94,184.19,17.81,183.42Z"/><path class="cls-1" d="M21.47,222.32a2.49,2.49,0,0,1,.63-.76,13,13,0,0,1,2.14-1,1,1,0,0,1,.78.21c.09.08,0,.56-.11.67-.91.71-.63,1.4,0,2.11.15.18.38.37.4.57a12,12,0,0,1,0,1.47,5.79,5.79,0,0,1-1.19-.24C22.54,224.69,21.49,223.56,21.47,222.32Z"/><path class="cls-1" d="M52,200.62c2.36-1,7.41.24,9,2.17C59.86,203.41,53.81,202,52,200.62Z"/><path class="cls-1" d="M22.24,217.36a9.91,9.91,0,0,1,1.49-.55,1.26,1.26,0,0,1,1,.18.86.86,0,0,1,0,.85c-1.12,1-2.09,2.37-3.92,1.94-.9-1.68-.33-3.79,1.32-4.25Z"/><path class="cls-1" d="M20.63,194.82c-.22-.36-.45-.72-.64-1.09s-.12-.61-.3-.74c-1.34-1-.72-1.9,0-2.82.48-.62,1.05-1.16,1.58-1.74l.5.35a17.79,17.79,0,0,0-.89,1.89,3.39,3.39,0,0,0-.06,1.27c.06.92.15,1.84.23,2.76Z"/><path class="cls-1" d="M189,116.72a9.86,9.86,0,0,1-.51-1.8c-.36-4.12,1.62-7.36,4-10.42a4.82,4.82,0,0,0,1-2.67,9.93,9.93,0,0,1,4.93-7.77s.15,0,.44.09a9.87,9.87,0,0,1-.55,1.05c-.84,1.22-1.71,2.43-2.56,3.65-.12.18-.3.51-.23.6,1.18,1.59-.33,2.64-.87,3.75-1.07,2.22-2.57,4.23-3.63,6.45a18,18,0,0,0-1,4.19c-.19.94-.3,1.9-.44,2.85Z"/><path class="cls-1" d="M195.28,91.73c.18,1.86-2.67,3-4.83,2.06C191.84,92.41,193.85,93,195.28,91.73Z"/><path class="cls-1" d="M48.88,102.7l2,2.15.23-.19-.33-1.31c.82-.12.82-.12,2.05,2.64l.14-2.2.26-.2,1.21,1.29c.15-1,.56-1.53,1.47-.62a.28.28,0,0,0,.22.07c2.28-.65,1.67,1.4,2.19,2.37a7.36,7.36,0,0,1,.34,1.18,15.77,15.77,0,0,1,.83-2.39c.2-.36.71-.56,1.09-.82a3.94,3.94,0,0,1,.54,1,6.85,6.85,0,0,1,0,1.31c0,1.36.59,1.77,1.7,1.48,0-1.19,0-2.3,0-3.41,0-.1.46-.17.9-.32a5.26,5.26,0,0,0,1.39,4.49c1.08-1.09-1-2.57.55-3.71l.44,1.69.61-1.27c.58.3,1.51,1.93,1.23,2.28a5.63,5.63,0,0,1-1.42.86,23.43,23.43,0,0,1,2.54.14,4.12,4.12,0,0,1,1.15.6,4.91,4.91,0,0,1-1.13.78c-2.71.89-5.35.2-8-.31-1-.19-2,.05-3-.18a14.49,14.49,0,0,1-4.74-1.61A27.9,27.9,0,0,1,49,104.18c-.28-.31-.3-.86-.43-1.3Z"/><path class="cls-1" d="M57.46,83.67A9.82,9.82,0,0,1,56,84.83a24.18,24.18,0,0,0-3.38,1.62c-1.37,1-2.4.4-2.76-1a6.75,6.75,0,0,1,0-1.72,10.31,10.31,0,0,1,1.6-.86,1.11,1.11,0,0,1,1,.21,7.17,7.17,0,0,1,.81,1.45,8.69,8.69,0,0,0,.78-.77,10,10,0,0,0,.6-1l.84,1a6.62,6.62,0,0,0,.86-.17,6,6,0,0,0,.81-.38Z"/><path class="cls-1" d="M59.13,74.71c1.86-1.12,5.93,0,6.65,1.89Z"/><path class="cls-1" d="M59.48,77a5,5,0,0,1,4.7.64A7.87,7.87,0,0,1,59.48,77Z"/><path class="cls-1" d="M68.51,106.46c1.18.33,1.25,1,1.07,1.65,0,.14-.42.19-.64.28Z"/><path class="cls-1" d="M100.26,142.32l10.48,1.39c3.56.47,6.87-.78,10.25-1.6a7.4,7.4,0,0,1-5,2.59,51.9,51.9,0,0,1-8.14,0,40.81,40.81,0,0,1-6.49-1.61A4.44,4.44,0,0,1,100.26,142.32Z"/><path class="cls-1" d="M110.65,54.06c-2,2-6.69,3.35-8.09,2.55Z"/><path class="cls-1" d="M79.21,143.5c1.34,3.2,3,6,2.94,9.39C80.95,152.61,78.49,145,79.21,143.5Z"/><path class="cls-1" d="M151.77,135.62l1.59,4.12c-1.09.12-1.09.12-2.44-4.09h.89Z"/><path class="cls-1" d="M76.3,202c-1,.54-2,1.09-3,1.62-.28.15-.6.2-.89.33a1.88,1.88,0,0,1-2.69-1.5,2,2,0,0,0-.67-1c-.53-.47-1-.85-.63-1.68.31-.68.46-1.43.74-2.13.1-.24.38-.41.58-.61.17.22.48.45.47.66,0,1.15.41,1.69,1.61,1.7a1.17,1.17,0,0,1,.91.62c.21,1.13,1,1,1.8,1.06a8.37,8.37,0,0,1,1.72.54Z"/><path class="cls-1" d="M126.38,90.13c1.53-.93,4.44-.57,4.71.69Z"/><path class="cls-1" d="M136,87.88c-.06,1-.76,1.29-1.62,1.31-.62,0-1.51.28-1.46-1Z"/><path class="cls-1" d="M123.38,90.53c-1.83.44-2.9-.54-2.69-2.48Z"/><path class="cls-1" d="M123.68,88.06a3,3,0,0,0,.59.53,6.83,6.83,0,0,1,1.5.84,4.9,4.9,0,0,1-4-1.23l1.93-.1Z"/><path class="cls-1" d="M129.45,91.62c-1.7.69-3.77.11-4-1.1Z"/><path class="cls-1" d="M138.89,86.3,137,87l-.23-.49L139,85.3l.18.23-.35.8Z"/><path class="cls-1" d="M98.35,89.07c-1.54.21-3.08.47-4.64.62s-2.36-.79-3.23-1.91l7.85,1Z"/><path class="cls-1" d="M85.81,88.07l2.43-.59c.85,1.95.85,1.95-.79,2.81l.3-1.76H85.86Z"/><path class="cls-1" d="M103.52,87.61c.58,1.18-.23,1.57-1,1.84-.31.12-.78-.19-1.17-.31l.06-.35Z"/><path class="cls-1" d="M97.9,90.59c.22-1.29,1.49-1.36,2.38-1.87C100,89.95,98.89,90.19,97.9,90.59Z"/><path class="cls-1" d="M102.51,83.72l-.94-1.37.21-.23,1.92,1.27-.06.29h-1.17Z"/><path class="cls-1" d="M128,282.94l0,0,3.36-1.44,0,0"/><path class="cls-1" d="M132.77,226.29a8.05,8.05,0,0,1,1.13,2c.5,2.06-1.2,3.43-3.12,4a33.52,33.52,0,0,1-11.47,1,18.86,18.86,0,0,1-3.54-.48c-.63-.17-1.5-.75-1.6-1.28a2.42,2.42,0,0,1,1-1.83,10.92,10.92,0,0,1,5.47-2,1.27,1.27,0,0,1,.79.19,7,7,0,0,0,4.83,1.12,5.66,5.66,0,0,0,2.45-1.28c-1.76-.57-3.53.19-5.2-.51,3-1.37,6.21-.83,9.34-.86ZM122.36,230c-2.19-1.63-6.19-.92-6.69,1C118.14,232.38,120,230.54,122.36,230Zm6.66-.73c1.59,1.78,2.55,1.86,3.51.29a1.73,1.73,0,0,0,0-1.56,1.21,1.21,0,0,0-1.87-.22C130.15,228.26,129.62,228.75,129,229.28Zm-8.19,2.54,0,.54,7.32-.66,0-.52C125.69,231.18,123.2,230.62,120.83,231.81Z"/><path class="cls-1" d="M131.37,281.54,128,283c-2.51,0-5,.18-7.52,0a25.65,25.65,0,0,1-8.89-2.2c-1.34-.62-2.5-2.31-1-3.76.11-.11.08-.36.11-.55.95-.38,1.87-.85,2.85-1.13a29.21,29.21,0,0,1,3.94-.89,23.25,23.25,0,0,1,5.17-.46,56.57,56.57,0,0,1,6.94,1.25,7.13,7.13,0,0,1,1.82.8,3,3,0,0,1,.9,4.19C132,280.65,131.69,281.1,131.37,281.54Zm-2.69-.8.16-.32c1.81,0,2.58-.55,2.55-2a2.28,2.28,0,0,0-2.77-2.29,15.14,15.14,0,0,0-3.63,2,1.11,1.11,0,0,0,.18.91C126.31,279.66,127.5,280.18,128.67,280.74Zm-10.42-2.12a4.17,4.17,0,0,0-5.33-2.06,3.82,3.82,0,0,0-1.64,1.54,1.39,1.39,0,0,0,.37,1.31,6.61,6.61,0,0,0,3.09.71A14.77,14.77,0,0,0,118.26,278.62Zm-1.76,1.65c1,1.53,7,2.3,8.84,1.45a4.67,4.67,0,0,0-3.65-2.73C120,278.91,118.35,279.77,116.5,280.26Zm8.79-4.44v-.4c-1.77-.2-3.53-.43-5.3-.59a12,12,0,0,0-2.15.08.74.74,0,0,0-.55.35.66.66,0,0,0,.18.61c1.6.91,3.23,1.81,5.15,1.15A29,29,0,0,0,125.29,275.83Z"/><path class="cls-1" d="M81.44,227.54c-2.51-.42-5-.81-7.42-1.27-.31-.06-.78-.52-.76-.75a1.84,1.84,0,0,1,.61-1.29A12.63,12.63,0,0,1,80,222c2.54-.13,5.07-.45,7.6-.43a11.14,11.14,0,0,1,3.82,1c1.25.49,1.2,1.32,0,2.08a14.74,14.74,0,0,1-5.67,2.21C84.32,227,82.89,227.28,81.44,227.54Zm-1.74-2.83a14.1,14.1,0,0,0,6-1.23A5.34,5.34,0,0,0,79.69,224.7Zm5.24.46-4.76.78C82.2,226.69,84.41,226.42,84.94,225.16Zm2.25-1.55.08.55c.66,0,1.32,0,2,0,.17,0,.31-.35.47-.53-.19-.15-.39-.46-.55-.44C88.49,223.25,87.84,223.45,87.19,223.61Zm-12.11,1H77.8C77.52,223.48,77.28,223.47,75.08,224.57Z"/></svg>